<?xml version="1.0" encoding="utf-8" standalone="no"?>
<!DOCTYPE svg PUBLIC "-//W3C//DTD SVG 1.1//EN"
  "http://www.w3.org/Graphics/SVG/1.1/DTD/svg11.dtd">
<svg xmlns:xlink="http://www.w3.org/1999/xlink" width="460.8pt" height="345.6pt" viewBox="0 0 460.8 345.6" xmlns="http://www.w3.org/2000/svg" version="1.1">
 <metadata>
  <rdf:RDF xmlns:dc="http://purl.org/dc/elements/1.1/" xmlns:cc="http://creativecommons.org/ns#" xmlns:rdf="http://www.w3.org/1999/02/22-rdf-syntax-ns#">
   <cc:Work>
    <dc:type rdf:resource="http://purl.org/dc/dcmitype/StillImage"/>
    <dc:date>2024-09-25T12:55:30.733149</dc:date>
    <dc:format>image/svg+xml</dc:format>
    <dc:creator>
     <cc:Agent>
      <dc:title>Matplotlib v3.8.2, https://matplotlib.org/</dc:title>
     </cc:Agent>
    </dc:creator>
   </cc:Work>
  </rdf:RDF>
 </metadata>
 <defs>
  <style type="text/css">*{stroke-linejoin: round; stroke-linecap: butt}</style>
 </defs>
 <g id="figure_1">
  <g id="patch_1">
   <path d="M 0 345.6 
L 460.8 345.6 
L 460.8 0 
L 0 0 
z
" style="fill: #ffffff"/>
  </g>
  <g id="axes_1">
   <g id="patch_2">
    <path d="M 57.6 307.584 
L 414.72 307.584 
L 414.72 41.472 
L 57.6 41.472 
z
" style="fill: #ffffff"/>
   </g>
   <g id="matplotlib.axis_1">
    <g id="xtick_1">
     <g id="line2d_1">
      <defs>
       <path id="ma6680602c9" d="M 0 0 
L 0 3.5 
" style="stroke: #000000; stroke-width: 0.8"/>
      </defs>
      <g>
       <use xlink:href="#ma6680602c9" x="73.832727" y="307.584" style="stroke: #000000; stroke-width: 0.8"/>
      </g>
     </g>
     <g id="text_1">
      <!-- 0.0 -->
      <g transform="translate(61.110227 326.7415) scale(0.16 -0.16)">
       <defs>
        <path id="DejaVuSans-30" d="M 2034 4250 
Q 1547 4250 1301 3770 
Q 1056 3291 1056 2328 
Q 1056 1369 1301 889 
Q 1547 409 2034 409 
Q 2525 409 2770 889 
Q 3016 1369 3016 2328 
Q 3016 3291 2770 3770 
Q 2525 4250 2034 4250 
z
M 2034 4750 
Q 2819 4750 3233 4129 
Q 3647 3509 3647 2328 
Q 3647 1150 3233 529 
Q 2819 -91 2034 -91 
Q 1250 -91 836 529 
Q 422 1150 422 2328 
Q 422 3509 836 4129 
Q 1250 4750 2034 4750 
z
" transform="scale(0.015625)"/>
        <path id="DejaVuSans-2e" d="M 684 794 
L 1344 794 
L 1344 0 
L 684 0 
L 684 794 
z
" transform="scale(0.015625)"/>
       </defs>
       <use xlink:href="#DejaVuSans-30"/>
       <use xlink:href="#DejaVuSans-2e" x="63.623047"/>
       <use xlink:href="#DejaVuSans-30" x="95.410156"/>
      </g>
     </g>
    </g>
    <g id="xtick_2">
     <g id="line2d_2">
      <g>
       <use xlink:href="#ma6680602c9" x="138.763636" y="307.584" style="stroke: #000000; stroke-width: 0.8"/>
      </g>
     </g>
     <g id="text_2">
      <!-- 0.2 -->
      <g transform="translate(126.041136 326.7415) scale(0.16 -0.16)">
       <defs>
        <path id="DejaVuSans-32" d="M 1228 531 
L 3431 531 
L 3431 0 
L 469 0 
L 469 531 
Q 828 903 1448 1529 
Q 2069 2156 2228 2338 
Q 2531 2678 2651 2914 
Q 2772 3150 2772 3378 
Q 2772 3750 2511 3984 
Q 2250 4219 1831 4219 
Q 1534 4219 1204 4116 
Q 875 4013 500 3803 
L 500 4441 
Q 881 4594 1212 4672 
Q 1544 4750 1819 4750 
Q 2544 4750 2975 4387 
Q 3406 4025 3406 3419 
Q 3406 3131 3298 2873 
Q 3191 2616 2906 2266 
Q 2828 2175 2409 1742 
Q 1991 1309 1228 531 
z
" transform="scale(0.015625)"/>
       </defs>
       <use xlink:href="#DejaVuSans-30"/>
       <use xlink:href="#DejaVuSans-2e" x="63.623047"/>
       <use xlink:href="#DejaVuSans-32" x="95.410156"/>
      </g>
     </g>
    </g>
    <g id="xtick_3">
     <g id="line2d_3">
      <g>
       <use xlink:href="#ma6680602c9" x="203.694545" y="307.584" style="stroke: #000000; stroke-width: 0.8"/>
      </g>
     </g>
     <g id="text_3">
      <!-- 0.4 -->
      <g transform="translate(190.972045 326.7415) scale(0.16 -0.16)">
       <defs>
        <path id="DejaVuSans-34" d="M 2419 4116 
L 825 1625 
L 2419 1625 
L 2419 4116 
z
M 2253 4666 
L 3047 4666 
L 3047 1625 
L 3713 1625 
L 3713 1100 
L 3047 1100 
L 3047 0 
L 2419 0 
L 2419 1100 
L 313 1100 
L 313 1709 
L 2253 4666 
z
" transform="scale(0.015625)"/>
       </defs>
       <use xlink:href="#DejaVuSans-30"/>
       <use xlink:href="#DejaVuSans-2e" x="63.623047"/>
       <use xlink:href="#DejaVuSans-34" x="95.410156"/>
      </g>
     </g>
    </g>
    <g id="xtick_4">
     <g id="line2d_4">
      <g>
       <use xlink:href="#ma6680602c9" x="268.625455" y="307.584" style="stroke: #000000; stroke-width: 0.8"/>
      </g>
     </g>
     <g id="text_4">
      <!-- 0.6 -->
      <g transform="translate(255.902955 326.7415) scale(0.16 -0.16)">
       <defs>
        <path id="DejaVuSans-36" d="M 2113 2584 
Q 1688 2584 1439 2293 
Q 1191 2003 1191 1497 
Q 1191 994 1439 701 
Q 1688 409 2113 409 
Q 2538 409 2786 701 
Q 3034 994 3034 1497 
Q 3034 2003 2786 2293 
Q 2538 2584 2113 2584 
z
M 3366 4563 
L 3366 3988 
Q 3128 4100 2886 4159 
Q 2644 4219 2406 4219 
Q 1781 4219 1451 3797 
Q 1122 3375 1075 2522 
Q 1259 2794 1537 2939 
Q 1816 3084 2150 3084 
Q 2853 3084 3261 2657 
Q 3669 2231 3669 1497 
Q 3669 778 3244 343 
Q 2819 -91 2113 -91 
Q 1303 -91 875 529 
Q 447 1150 447 2328 
Q 447 3434 972 4092 
Q 1497 4750 2381 4750 
Q 2619 4750 2861 4703 
Q 3103 4656 3366 4563 
z
" transform="scale(0.015625)"/>
       </defs>
       <use xlink:href="#DejaVuSans-30"/>
       <use xlink:href="#DejaVuSans-2e" x="63.623047"/>
       <use xlink:href="#DejaVuSans-36" x="95.410156"/>
      </g>
     </g>
    </g>
    <g id="xtick_5">
     <g id="line2d_5">
      <g>
       <use xlink:href="#ma6680602c9" x="333.556364" y="307.584" style="stroke: #000000; stroke-width: 0.8"/>
      </g>
     </g>
     <g id="text_5">
      <!-- 0.8 -->
      <g transform="translate(320.833864 326.7415) scale(0.16 -0.16)">
       <defs>
        <path id="DejaVuSans-38" d="M 2034 2216 
Q 1584 2216 1326 1975 
Q 1069 1734 1069 1313 
Q 1069 891 1326 650 
Q 1584 409 2034 409 
Q 2484 409 2743 651 
Q 3003 894 3003 1313 
Q 3003 1734 2745 1975 
Q 2488 2216 2034 2216 
z
M 1403 2484 
Q 997 2584 770 2862 
Q 544 3141 544 3541 
Q 544 4100 942 4425 
Q 1341 4750 2034 4750 
Q 2731 4750 3128 4425 
Q 3525 4100 3525 3541 
Q 3525 3141 3298 2862 
Q 3072 2584 2669 2484 
Q 3125 2378 3379 2068 
Q 3634 1759 3634 1313 
Q 3634 634 3220 271 
Q 2806 -91 2034 -91 
Q 1263 -91 848 271 
Q 434 634 434 1313 
Q 434 1759 690 2068 
Q 947 2378 1403 2484 
z
M 1172 3481 
Q 1172 3119 1398 2916 
Q 1625 2713 2034 2713 
Q 2441 2713 2670 2916 
Q 2900 3119 2900 3481 
Q 2900 3844 2670 4047 
Q 2441 4250 2034 4250 
Q 1625 4250 1398 4047 
Q 1172 3844 1172 3481 
z
" transform="scale(0.015625)"/>
       </defs>
       <use xlink:href="#DejaVuSans-30"/>
       <use xlink:href="#DejaVuSans-2e" x="63.623047"/>
       <use xlink:href="#DejaVuSans-38" x="95.410156"/>
      </g>
     </g>
    </g>
    <g id="xtick_6">
     <g id="line2d_6">
      <g>
       <use xlink:href="#ma6680602c9" x="398.487273" y="307.584" style="stroke: #000000; stroke-width: 0.8"/>
      </g>
     </g>
     <g id="text_6">
      <!-- 1.0 -->
      <g transform="translate(385.764773 326.7415) scale(0.16 -0.16)">
       <defs>
        <path id="DejaVuSans-31" d="M 794 531 
L 1825 531 
L 1825 4091 
L 703 3866 
L 703 4441 
L 1819 4666 
L 2450 4666 
L 2450 531 
L 3481 531 
L 3481 0 
L 794 0 
L 794 531 
z
" transform="scale(0.015625)"/>
       </defs>
       <use xlink:href="#DejaVuSans-31"/>
       <use xlink:href="#DejaVuSans-2e" x="63.623047"/>
       <use xlink:href="#DejaVuSans-30" x="95.410156"/>
      </g>
     </g>
    </g>
    <g id="text_7">
     <!-- Time (ms) -->
     <g transform="translate(195.84125 346.2265) scale(0.16 -0.16)">
      <defs>
       <path id="DejaVuSans-54" d="M -19 4666 
L 3928 4666 
L 3928 4134 
L 2272 4134 
L 2272 0 
L 1638 0 
L 1638 4134 
L -19 4134 
L -19 4666 
z
" transform="scale(0.015625)"/>
       <path id="DejaVuSans-69" d="M 603 3500 
L 1178 3500 
L 1178 0 
L 603 0 
L 603 3500 
z
M 603 4863 
L 1178 4863 
L 1178 4134 
L 603 4134 
L 603 4863 
z
" transform="scale(0.015625)"/>
       <path id="DejaVuSans-6d" d="M 3328 2828 
Q 3544 3216 3844 3400 
Q 4144 3584 4550 3584 
Q 5097 3584 5394 3201 
Q 5691 2819 5691 2113 
L 5691 0 
L 5113 0 
L 5113 2094 
Q 5113 2597 4934 2840 
Q 4756 3084 4391 3084 
Q 3944 3084 3684 2787 
Q 3425 2491 3425 1978 
L 3425 0 
L 2847 0 
L 2847 2094 
Q 2847 2600 2669 2842 
Q 2491 3084 2119 3084 
Q 1678 3084 1418 2786 
Q 1159 2488 1159 1978 
L 1159 0 
L 581 0 
L 581 3500 
L 1159 3500 
L 1159 2956 
Q 1356 3278 1631 3431 
Q 1906 3584 2284 3584 
Q 2666 3584 2933 3390 
Q 3200 3197 3328 2828 
z
" transform="scale(0.015625)"/>
       <path id="DejaVuSans-65" d="M 3597 1894 
L 3597 1613 
L 953 1613 
Q 991 1019 1311 708 
Q 1631 397 2203 397 
Q 2534 397 2845 478 
Q 3156 559 3463 722 
L 3463 178 
Q 3153 47 2828 -22 
Q 2503 -91 2169 -91 
Q 1331 -91 842 396 
Q 353 884 353 1716 
Q 353 2575 817 3079 
Q 1281 3584 2069 3584 
Q 2775 3584 3186 3129 
Q 3597 2675 3597 1894 
z
M 3022 2063 
Q 3016 2534 2758 2815 
Q 2500 3097 2075 3097 
Q 1594 3097 1305 2825 
Q 1016 2553 972 2059 
L 3022 2063 
z
" transform="scale(0.015625)"/>
       <path id="DejaVuSans-20" transform="scale(0.015625)"/>
       <path id="DejaVuSans-28" d="M 1984 4856 
Q 1566 4138 1362 3434 
Q 1159 2731 1159 2009 
Q 1159 1288 1364 580 
Q 1569 -128 1984 -844 
L 1484 -844 
Q 1016 -109 783 600 
Q 550 1309 550 2009 
Q 550 2706 781 3412 
Q 1013 4119 1484 4856 
L 1984 4856 
z
" transform="scale(0.015625)"/>
       <path id="DejaVuSans-73" d="M 2834 3397 
L 2834 2853 
Q 2591 2978 2328 3040 
Q 2066 3103 1784 3103 
Q 1356 3103 1142 2972 
Q 928 2841 928 2578 
Q 928 2378 1081 2264 
Q 1234 2150 1697 2047 
L 1894 2003 
Q 2506 1872 2764 1633 
Q 3022 1394 3022 966 
Q 3022 478 2636 193 
Q 2250 -91 1575 -91 
Q 1294 -91 989 -36 
Q 684 19 347 128 
L 347 722 
Q 666 556 975 473 
Q 1284 391 1588 391 
Q 1994 391 2212 530 
Q 2431 669 2431 922 
Q 2431 1156 2273 1281 
Q 2116 1406 1581 1522 
L 1381 1569 
Q 847 1681 609 1914 
Q 372 2147 372 2553 
Q 372 3047 722 3315 
Q 1072 3584 1716 3584 
Q 2034 3584 2315 3537 
Q 2597 3491 2834 3397 
z
" transform="scale(0.015625)"/>
       <path id="DejaVuSans-29" d="M 513 4856 
L 1013 4856 
Q 1481 4119 1714 3412 
Q 1947 2706 1947 2009 
Q 1947 1309 1714 600 
Q 1481 -109 1013 -844 
L 513 -844 
Q 928 -128 1133 580 
Q 1338 1288 1338 2009 
Q 1338 2731 1133 3434 
Q 928 4138 513 4856 
z
" transform="scale(0.015625)"/>
      </defs>
      <use xlink:href="#DejaVuSans-54"/>
      <use xlink:href="#DejaVuSans-69" x="57.958984"/>
      <use xlink:href="#DejaVuSans-6d" x="85.742188"/>
      <use xlink:href="#DejaVuSans-65" x="183.154297"/>
      <use xlink:href="#DejaVuSans-20" x="244.677734"/>
      <use xlink:href="#DejaVuSans-28" x="276.464844"/>
      <use xlink:href="#DejaVuSans-6d" x="315.478516"/>
      <use xlink:href="#DejaVuSans-73" x="412.890625"/>
      <use xlink:href="#DejaVuSans-29" x="464.990234"/>
     </g>
    </g>
   </g>
   <g id="matplotlib.axis_2">
    <g id="ytick_1">
     <g id="line2d_7">
      <defs>
       <path id="m067779747b" d="M 0 0 
L -3.5 0 
" style="stroke: #000000; stroke-width: 0.8"/>
      </defs>
      <g>
       <use xlink:href="#m067779747b" x="57.6" y="295.488" style="stroke: #000000; stroke-width: 0.8"/>
      </g>
     </g>
     <g id="text_8">
      <!-- 0.00 -->
      <g transform="translate(14.975 301.56675) scale(0.16 -0.16)">
       <use xlink:href="#DejaVuSans-30"/>
       <use xlink:href="#DejaVuSans-2e" x="63.623047"/>
       <use xlink:href="#DejaVuSans-30" x="95.410156"/>
       <use xlink:href="#DejaVuSans-30" x="159.033203"/>
      </g>
     </g>
    </g>
    <g id="ytick_2">
     <g id="line2d_8">
      <g>
       <use xlink:href="#m067779747b" x="57.6" y="250.688" style="stroke: #000000; stroke-width: 0.8"/>
      </g>
     </g>
     <g id="text_9">
      <!-- 0.01 -->
      <g transform="translate(14.975 256.76675) scale(0.16 -0.16)">
       <use xlink:href="#DejaVuSans-30"/>
       <use xlink:href="#DejaVuSans-2e" x="63.623047"/>
       <use xlink:href="#DejaVuSans-30" x="95.410156"/>
       <use xlink:href="#DejaVuSans-31" x="159.033203"/>
      </g>
     </g>
    </g>
    <g id="ytick_3">
     <g id="line2d_9">
      <g>
       <use xlink:href="#m067779747b" x="57.6" y="205.888" style="stroke: #000000; stroke-width: 0.8"/>
      </g>
     </g>
     <g id="text_10">
      <!-- 0.02 -->
      <g transform="translate(14.975 211.96675) scale(0.16 -0.16)">
       <use xlink:href="#DejaVuSans-30"/>
       <use xlink:href="#DejaVuSans-2e" x="63.623047"/>
       <use xlink:href="#DejaVuSans-30" x="95.410156"/>
       <use xlink:href="#DejaVuSans-32" x="159.033203"/>
      </g>
     </g>
    </g>
    <g id="ytick_4">
     <g id="line2d_10">
      <g>
       <use xlink:href="#m067779747b" x="57.6" y="161.088" style="stroke: #000000; stroke-width: 0.8"/>
      </g>
     </g>
     <g id="text_11">
      <!-- 0.03 -->
      <g transform="translate(14.975 167.16675) scale(0.16 -0.16)">
       <defs>
        <path id="DejaVuSans-33" d="M 2597 2516 
Q 3050 2419 3304 2112 
Q 3559 1806 3559 1356 
Q 3559 666 3084 287 
Q 2609 -91 1734 -91 
Q 1441 -91 1130 -33 
Q 819 25 488 141 
L 488 750 
Q 750 597 1062 519 
Q 1375 441 1716 441 
Q 2309 441 2620 675 
Q 2931 909 2931 1356 
Q 2931 1769 2642 2001 
Q 2353 2234 1838 2234 
L 1294 2234 
L 1294 2753 
L 1863 2753 
Q 2328 2753 2575 2939 
Q 2822 3125 2822 3475 
Q 2822 3834 2567 4026 
Q 2313 4219 1838 4219 
Q 1578 4219 1281 4162 
Q 984 4106 628 3988 
L 628 4550 
Q 988 4650 1302 4700 
Q 1616 4750 1894 4750 
Q 2613 4750 3031 4423 
Q 3450 4097 3450 3541 
Q 3450 3153 3228 2886 
Q 3006 2619 2597 2516 
z
" transform="scale(0.015625)"/>
       </defs>
       <use xlink:href="#DejaVuSans-30"/>
       <use xlink:href="#DejaVuSans-2e" x="63.623047"/>
       <use xlink:href="#DejaVuSans-30" x="95.410156"/>
       <use xlink:href="#DejaVuSans-33" x="159.033203"/>
      </g>
     </g>
    </g>
    <g id="ytick_5">
     <g id="line2d_11">
      <g>
       <use xlink:href="#m067779747b" x="57.6" y="116.288" style="stroke: #000000; stroke-width: 0.8"/>
      </g>
     </g>
     <g id="text_12">
      <!-- 0.04 -->
      <g transform="translate(14.975 122.36675) scale(0.16 -0.16)">
       <use xlink:href="#DejaVuSans-30"/>
       <use xlink:href="#DejaVuSans-2e" x="63.623047"/>
       <use xlink:href="#DejaVuSans-30" x="95.410156"/>
       <use xlink:href="#DejaVuSans-34" x="159.033203"/>
      </g>
     </g>
    </g>
    <g id="ytick_6">
     <g id="line2d_12">
      <g>
       <use xlink:href="#m067779747b" x="57.6" y="71.488" style="stroke: #000000; stroke-width: 0.8"/>
      </g>
     </g>
     <g id="text_13">
      <!-- 0.05 -->
      <g transform="translate(14.975 77.56675) scale(0.16 -0.16)">
       <defs>
        <path id="DejaVuSans-35" d="M 691 4666 
L 3169 4666 
L 3169 4134 
L 1269 4134 
L 1269 2991 
Q 1406 3038 1543 3061 
Q 1681 3084 1819 3084 
Q 2600 3084 3056 2656 
Q 3513 2228 3513 1497 
Q 3513 744 3044 326 
Q 2575 -91 1722 -91 
Q 1428 -91 1123 -41 
Q 819 9 494 109 
L 494 744 
Q 775 591 1075 516 
Q 1375 441 1709 441 
Q 2250 441 2565 725 
Q 2881 1009 2881 1497 
Q 2881 1984 2565 2268 
Q 2250 2553 1709 2553 
Q 1456 2553 1204 2497 
Q 953 2441 691 2322 
L 691 4666 
z
" transform="scale(0.015625)"/>
       </defs>
       <use xlink:href="#DejaVuSans-30"/>
       <use xlink:href="#DejaVuSans-2e" x="63.623047"/>
       <use xlink:href="#DejaVuSans-30" x="95.410156"/>
       <use xlink:href="#DejaVuSans-35" x="159.033203"/>
      </g>
     </g>
    </g>
    <g id="text_14">
     <!-- Mean square displacement ($\mathrm{\mu m^2}$) -->
     <g transform="translate(7.615 308.288) rotate(-90) scale(0.16 -0.16)">
      <defs>
       <path id="DejaVuSans-4d" d="M 628 4666 
L 1569 4666 
L 2759 1491 
L 3956 4666 
L 4897 4666 
L 4897 0 
L 4281 0 
L 4281 4097 
L 3078 897 
L 2444 897 
L 1241 4097 
L 1241 0 
L 628 0 
L 628 4666 
z
" transform="scale(0.015625)"/>
       <path id="DejaVuSans-61" d="M 2194 1759 
Q 1497 1759 1228 1600 
Q 959 1441 959 1056 
Q 959 750 1161 570 
Q 1363 391 1709 391 
Q 2188 391 2477 730 
Q 2766 1069 2766 1631 
L 2766 1759 
L 2194 1759 
z
M 3341 1997 
L 3341 0 
L 2766 0 
L 2766 531 
Q 2569 213 2275 61 
Q 1981 -91 1556 -91 
Q 1019 -91 701 211 
Q 384 513 384 1019 
Q 384 1609 779 1909 
Q 1175 2209 1959 2209 
L 2766 2209 
L 2766 2266 
Q 2766 2663 2505 2880 
Q 2244 3097 1772 3097 
Q 1472 3097 1187 3025 
Q 903 2953 641 2809 
L 641 3341 
Q 956 3463 1253 3523 
Q 1550 3584 1831 3584 
Q 2591 3584 2966 3190 
Q 3341 2797 3341 1997 
z
" transform="scale(0.015625)"/>
       <path id="DejaVuSans-6e" d="M 3513 2113 
L 3513 0 
L 2938 0 
L 2938 2094 
Q 2938 2591 2744 2837 
Q 2550 3084 2163 3084 
Q 1697 3084 1428 2787 
Q 1159 2491 1159 1978 
L 1159 0 
L 581 0 
L 581 3500 
L 1159 3500 
L 1159 2956 
Q 1366 3272 1645 3428 
Q 1925 3584 2291 3584 
Q 2894 3584 3203 3211 
Q 3513 2838 3513 2113 
z
" transform="scale(0.015625)"/>
       <path id="DejaVuSans-71" d="M 947 1747 
Q 947 1113 1208 752 
Q 1469 391 1925 391 
Q 2381 391 2643 752 
Q 2906 1113 2906 1747 
Q 2906 2381 2643 2742 
Q 2381 3103 1925 3103 
Q 1469 3103 1208 2742 
Q 947 2381 947 1747 
z
M 2906 525 
Q 2725 213 2448 61 
Q 2172 -91 1784 -91 
Q 1150 -91 751 415 
Q 353 922 353 1747 
Q 353 2572 751 3078 
Q 1150 3584 1784 3584 
Q 2172 3584 2448 3432 
Q 2725 3281 2906 2969 
L 2906 3500 
L 3481 3500 
L 3481 -1331 
L 2906 -1331 
L 2906 525 
z
" transform="scale(0.015625)"/>
       <path id="DejaVuSans-75" d="M 544 1381 
L 544 3500 
L 1119 3500 
L 1119 1403 
Q 1119 906 1312 657 
Q 1506 409 1894 409 
Q 2359 409 2629 706 
Q 2900 1003 2900 1516 
L 2900 3500 
L 3475 3500 
L 3475 0 
L 2900 0 
L 2900 538 
Q 2691 219 2414 64 
Q 2138 -91 1772 -91 
Q 1169 -91 856 284 
Q 544 659 544 1381 
z
M 1991 3584 
L 1991 3584 
z
" transform="scale(0.015625)"/>
       <path id="DejaVuSans-72" d="M 2631 2963 
Q 2534 3019 2420 3045 
Q 2306 3072 2169 3072 
Q 1681 3072 1420 2755 
Q 1159 2438 1159 1844 
L 1159 0 
L 581 0 
L 581 3500 
L 1159 3500 
L 1159 2956 
Q 1341 3275 1631 3429 
Q 1922 3584 2338 3584 
Q 2397 3584 2469 3576 
Q 2541 3569 2628 3553 
L 2631 2963 
z
" transform="scale(0.015625)"/>
       <path id="DejaVuSans-64" d="M 2906 2969 
L 2906 4863 
L 3481 4863 
L 3481 0 
L 2906 0 
L 2906 525 
Q 2725 213 2448 61 
Q 2172 -91 1784 -91 
Q 1150 -91 751 415 
Q 353 922 353 1747 
Q 353 2572 751 3078 
Q 1150 3584 1784 3584 
Q 2172 3584 2448 3432 
Q 2725 3281 2906 2969 
z
M 947 1747 
Q 947 1113 1208 752 
Q 1469 391 1925 391 
Q 2381 391 2643 752 
Q 2906 1113 2906 1747 
Q 2906 2381 2643 2742 
Q 2381 3103 1925 3103 
Q 1469 3103 1208 2742 
Q 947 2381 947 1747 
z
" transform="scale(0.015625)"/>
       <path id="DejaVuSans-70" d="M 1159 525 
L 1159 -1331 
L 581 -1331 
L 581 3500 
L 1159 3500 
L 1159 2969 
Q 1341 3281 1617 3432 
Q 1894 3584 2278 3584 
Q 2916 3584 3314 3078 
Q 3713 2572 3713 1747 
Q 3713 922 3314 415 
Q 2916 -91 2278 -91 
Q 1894 -91 1617 61 
Q 1341 213 1159 525 
z
M 3116 1747 
Q 3116 2381 2855 2742 
Q 2594 3103 2138 3103 
Q 1681 3103 1420 2742 
Q 1159 2381 1159 1747 
Q 1159 1113 1420 752 
Q 1681 391 2138 391 
Q 2594 391 2855 752 
Q 3116 1113 3116 1747 
z
" transform="scale(0.015625)"/>
       <path id="DejaVuSans-6c" d="M 603 4863 
L 1178 4863 
L 1178 0 
L 603 0 
L 603 4863 
z
" transform="scale(0.015625)"/>
       <path id="DejaVuSans-63" d="M 3122 3366 
L 3122 2828 
Q 2878 2963 2633 3030 
Q 2388 3097 2138 3097 
Q 1578 3097 1268 2742 
Q 959 2388 959 1747 
Q 959 1106 1268 751 
Q 1578 397 2138 397 
Q 2388 397 2633 464 
Q 2878 531 3122 666 
L 3122 134 
Q 2881 22 2623 -34 
Q 2366 -91 2075 -91 
Q 1284 -91 818 406 
Q 353 903 353 1747 
Q 353 2603 823 3093 
Q 1294 3584 2113 3584 
Q 2378 3584 2631 3529 
Q 2884 3475 3122 3366 
z
" transform="scale(0.015625)"/>
       <path id="DejaVuSans-74" d="M 1172 4494 
L 1172 3500 
L 2356 3500 
L 2356 3053 
L 1172 3053 
L 1172 1153 
Q 1172 725 1289 603 
Q 1406 481 1766 481 
L 2356 481 
L 2356 0 
L 1766 0 
Q 1100 0 847 248 
Q 594 497 594 1153 
L 594 3053 
L 172 3053 
L 172 3500 
L 594 3500 
L 594 4494 
L 1172 4494 
z
" transform="scale(0.015625)"/>
       <path id="DejaVuSans-3bc" d="M 544 -1331 
L 544 3500 
L 1119 3500 
L 1119 1325 
Q 1119 872 1334 640 
Q 1550 409 1972 409 
Q 2434 409 2667 671 
Q 2900 934 2900 1459 
L 2900 3500 
L 3475 3500 
L 3475 806 
Q 3475 619 3529 530 
Q 3584 441 3700 441 
Q 3728 441 3778 458 
Q 3828 475 3916 513 
L 3916 50 
Q 3788 -22 3673 -56 
Q 3559 -91 3450 -91 
Q 3234 -91 3106 31 
Q 2978 153 2931 403 
Q 2775 156 2548 32 
Q 2322 -91 2016 -91 
Q 1697 -91 1473 31 
Q 1250 153 1119 397 
L 1119 -1331 
L 544 -1331 
z
" transform="scale(0.015625)"/>
      </defs>
      <use xlink:href="#DejaVuSans-4d" transform="translate(0 0.765625)"/>
      <use xlink:href="#DejaVuSans-65" transform="translate(86.279297 0.765625)"/>
      <use xlink:href="#DejaVuSans-61" transform="translate(147.802734 0.765625)"/>
      <use xlink:href="#DejaVuSans-6e" transform="translate(209.082031 0.765625)"/>
      <use xlink:href="#DejaVuSans-20" transform="translate(272.460938 0.765625)"/>
      <use xlink:href="#DejaVuSans-73" transform="translate(304.248047 0.765625)"/>
      <use xlink:href="#DejaVuSans-71" transform="translate(356.347656 0.765625)"/>
      <use xlink:href="#DejaVuSans-75" transform="translate(419.824219 0.765625)"/>
      <use xlink:href="#DejaVuSans-61" transform="translate(483.203125 0.765625)"/>
      <use xlink:href="#DejaVuSans-72" transform="translate(544.482422 0.765625)"/>
      <use xlink:href="#DejaVuSans-65" transform="translate(585.595703 0.765625)"/>
      <use xlink:href="#DejaVuSans-20" transform="translate(647.119141 0.765625)"/>
      <use xlink:href="#DejaVuSans-64" transform="translate(678.90625 0.765625)"/>
      <use xlink:href="#DejaVuSans-69" transform="translate(742.382812 0.765625)"/>
      <use xlink:href="#DejaVuSans-73" transform="translate(770.166016 0.765625)"/>
      <use xlink:href="#DejaVuSans-70" transform="translate(822.265625 0.765625)"/>
      <use xlink:href="#DejaVuSans-6c" transform="translate(885.742188 0.765625)"/>
      <use xlink:href="#DejaVuSans-61" transform="translate(913.525391 0.765625)"/>
      <use xlink:href="#DejaVuSans-63" transform="translate(974.804688 0.765625)"/>
      <use xlink:href="#DejaVuSans-65" transform="translate(1029.785156 0.765625)"/>
      <use xlink:href="#DejaVuSans-6d" transform="translate(1091.308594 0.765625)"/>
      <use xlink:href="#DejaVuSans-65" transform="translate(1188.720703 0.765625)"/>
      <use xlink:href="#DejaVuSans-6e" transform="translate(1250.244141 0.765625)"/>
      <use xlink:href="#DejaVuSans-74" transform="translate(1313.623047 0.765625)"/>
      <use xlink:href="#DejaVuSans-20" transform="translate(1352.832031 0.765625)"/>
      <use xlink:href="#DejaVuSans-28" transform="translate(1384.619141 0.765625)"/>
      <use xlink:href="#DejaVuSans-3bc" transform="translate(1423.632812 0.765625)"/>
      <use xlink:href="#DejaVuSans-6d" transform="translate(1487.255859 0.765625)"/>
      <use xlink:href="#DejaVuSans-32" transform="translate(1585.625 39.046875) scale(0.7)"/>
      <use xlink:href="#DejaVuSans-29" transform="translate(1632.895508 0.765625)"/>
     </g>
    </g>
   </g>
   <g id="line2d_13">
    <path d="M 73.832727 295.488 
L 77.079273 293.0688 
L 80.325818 290.6496 
L 83.572364 288.2304 
L 86.818909 285.8112 
L 90.065455 283.392 
L 93.312 280.9728 
L 96.558545 278.5536 
L 99.805091 276.1344 
L 103.051636 273.7152 
L 106.298182 271.296 
L 109.544727 268.8768 
L 112.791273 266.4576 
L 116.037818 264.0384 
L 119.284364 261.6192 
L 122.530909 259.2 
L 125.777455 256.7808 
L 129.024 254.3616 
L 132.270545 251.9424 
L 135.517091 249.5232 
L 138.763636 247.104 
L 142.010182 244.6848 
L 145.256727 242.2656 
L 148.503273 239.8464 
L 151.749818 237.4272 
L 154.996364 235.008 
L 158.242909 232.5888 
L 161.489455 230.1696 
L 164.736 227.7504 
L 167.982545 225.3312 
L 171.229091 222.912 
L 174.475636 220.4928 
L 177.722182 218.0736 
L 180.968727 215.6544 
L 184.215273 213.2352 
L 187.461818 210.816 
L 190.708364 208.3968 
L 193.954909 205.9776 
L 197.201455 203.5584 
L 200.448 201.1392 
L 203.694545 198.72 
L 206.941091 196.3008 
L 210.187636 193.8816 
L 213.434182 191.4624 
L 216.680727 189.0432 
L 219.927273 186.624 
L 223.173818 184.2048 
L 226.420364 181.7856 
L 229.666909 179.3664 
L 232.913455 176.9472 
L 236.16 174.528 
L 239.406545 172.1088 
L 242.653091 169.6896 
L 245.899636 167.2704 
L 249.146182 164.8512 
L 252.392727 162.432 
L 255.639273 160.0128 
L 258.885818 157.5936 
L 262.132364 155.1744 
L 265.378909 152.7552 
L 268.625455 150.336 
L 271.872 147.9168 
L 275.118545 145.4976 
L 278.365091 143.0784 
L 281.611636 140.6592 
L 284.858182 138.24 
L 288.104727 135.8208 
L 291.351273 133.4016 
L 294.597818 130.9824 
L 297.844364 128.5632 
L 301.090909 126.144 
L 304.337455 123.7248 
L 307.584 121.3056 
L 310.830545 118.8864 
L 314.077091 116.4672 
L 317.323636 114.048 
L 320.570182 111.6288 
L 323.816727 109.2096 
L 327.063273 106.7904 
L 330.309818 104.3712 
L 333.556364 101.952 
L 336.802909 99.5328 
L 340.049455 97.1136 
L 343.296 94.6944 
L 346.542545 92.2752 
L 349.789091 89.856 
L 353.035636 87.4368 
L 356.282182 85.0176 
L 359.528727 82.5984 
L 362.775273 80.1792 
L 366.021818 77.76 
L 369.268364 75.3408 
L 372.514909 72.9216 
L 375.761455 70.5024 
L 379.008 68.0832 
L 382.254545 65.664 
L 385.501091 63.2448 
L 388.747636 60.8256 
L 391.994182 58.4064 
L 395.240727 55.9872 
L 398.487273 53.568 
" clip-path="url(#pbff34615a5)" style="fill: none; stroke-dasharray: 5.55,2.4; stroke-dashoffset: 0; stroke: #000000; stroke-width: 1.5"/>
   </g>
   <g id="line2d_14">
    <path d="M 73.832727 295.488 
L 77.079273 293.280806 
L 80.325818 291.074787 
L 83.572364 289.037703 
L 86.818909 287.072566 
L 90.065455 285.234855 
L 93.312 283.328539 
L 96.558545 281.074063 
L 99.805091 279.186372 
L 103.051636 277.112729 
L 106.298182 275.305191 
L 109.544727 273.495871 
L 112.791273 271.010477 
L 116.037818 269.031879 
L 119.284364 267.095584 
L 122.530909 265.501113 
L 125.777455 263.656831 
L 129.024 261.933427 
L 132.270545 259.728315 
L 135.517091 257.765619 
L 138.763636 256.067066 
L 142.010182 254.354388 
L 145.256727 252.49209 
L 148.503273 250.394664 
L 151.749818 248.245464 
L 154.996364 246.769525 
L 158.242909 244.972008 
L 161.489455 243.36566 
L 164.736 241.28428 
L 167.982545 239.645274 
L 171.229091 237.615468 
L 174.475636 236.010284 
L 177.722182 234.444876 
L 180.968727 233.077718 
L 184.215273 231.93251 
L 187.461818 230.517431 
L 190.708364 229.600899 
L 193.954909 227.733776 
L 197.201455 226.499198 
L 200.448 225.135281 
L 203.694545 223.572016 
L 206.941091 222.317942 
L 210.187636 220.800804 
L 213.434182 219.025966 
L 216.680727 216.902241 
L 219.927273 214.841241 
L 223.173818 213.208043 
L 226.420364 211.231403 
L 229.666909 209.859326 
L 232.913455 208.192827 
L 236.16 206.37163 
L 239.406545 205.149544 
L 242.653091 202.751753 
L 245.899636 200.647269 
L 249.146182 198.903923 
L 252.392727 197.234073 
L 255.639273 195.757894 
L 258.885818 194.112485 
L 262.132364 193.074003 
L 265.378909 191.56534 
L 268.625455 190.048484 
L 271.872 188.046584 
L 275.118545 187.096343 
L 278.365091 185.623808 
L 281.611636 184.41109 
L 284.858182 183.085775 
L 288.104727 181.839683 
L 291.351273 179.977416 
L 294.597818 178.727472 
L 297.844364 177.159353 
L 301.090909 175.905162 
L 304.337455 174.479636 
L 307.584 173.338546 
L 310.830545 172.086362 
L 314.077091 170.431108 
L 317.323636 168.789537 
L 320.570182 166.958374 
L 323.816727 166.198606 
L 327.063273 164.719301 
L 330.309818 163.294353 
L 333.556364 161.027796 
L 336.802909 158.910114 
L 340.049455 157.436533 
L 343.296 155.995054 
L 346.542545 153.545691 
L 349.789091 152.718374 
L 353.035636 151.820477 
L 356.282182 150.4656 
L 359.528727 149.773516 
L 362.775273 148.229016 
L 366.021818 146.727624 
L 369.268364 144.862244 
L 372.514909 143.505573 
L 375.761455 142.305783 
L 379.008 141.03214 
L 382.254545 139.700328 
L 385.501091 137.802648 
L 388.747636 136.821554 
L 391.994182 135.077594 
L 395.240727 133.948755 
L 398.487273 132.742055 
" clip-path="url(#pbff34615a5)" style="fill: none; stroke: #1f77b4; stroke-width: 1.5; stroke-linecap: square"/>
   </g>
   <g id="line2d_15">
    <path d="M 73.832727 295.488 
L 77.079273 293.8752 
L 80.325818 292.2624 
L 83.572364 290.6496 
L 86.818909 289.0368 
L 90.065455 287.424 
L 93.312 285.8112 
L 96.558545 284.1984 
L 99.805091 282.5856 
L 103.051636 280.9728 
L 106.298182 279.36 
L 109.544727 277.7472 
L 112.791273 276.1344 
L 116.037818 274.5216 
L 119.284364 272.9088 
L 122.530909 271.296 
L 125.777455 269.6832 
L 129.024 268.0704 
L 132.270545 266.4576 
L 135.517091 264.8448 
L 138.763636 263.232 
L 142.010182 261.6192 
L 145.256727 260.0064 
L 148.503273 258.3936 
L 151.749818 256.7808 
L 154.996364 255.168 
L 158.242909 253.5552 
L 161.489455 251.9424 
L 164.736 250.3296 
L 167.982545 248.7168 
L 171.229091 247.104 
L 174.475636 245.4912 
L 177.722182 243.8784 
L 180.968727 242.2656 
L 184.215273 240.6528 
L 187.461818 239.04 
L 190.708364 237.4272 
L 193.954909 235.8144 
L 197.201455 234.2016 
L 200.448 232.5888 
L 203.694545 230.976 
L 206.941091 229.3632 
L 210.187636 227.7504 
L 213.434182 226.1376 
L 216.680727 224.5248 
L 219.927273 222.912 
L 223.173818 221.2992 
L 226.420364 219.6864 
L 229.666909 218.0736 
L 232.913455 216.4608 
L 236.16 214.848 
L 239.406545 213.2352 
L 242.653091 211.6224 
L 245.899636 210.0096 
L 249.146182 208.3968 
L 252.392727 206.784 
L 255.639273 205.1712 
L 258.885818 203.5584 
L 262.132364 201.9456 
L 265.378909 200.3328 
L 268.625455 198.72 
L 271.872 197.1072 
L 275.118545 195.4944 
L 278.365091 193.8816 
L 281.611636 192.2688 
L 284.858182 190.656 
L 288.104727 189.0432 
L 291.351273 187.4304 
L 294.597818 185.8176 
L 297.844364 184.2048 
L 301.090909 182.592 
L 304.337455 180.9792 
L 307.584 179.3664 
L 310.830545 177.7536 
L 314.077091 176.1408 
L 317.323636 174.528 
L 320.570182 172.9152 
L 323.816727 171.3024 
L 327.063273 169.6896 
L 330.309818 168.0768 
L 333.556364 166.464 
L 336.802909 164.8512 
L 340.049455 163.2384 
L 343.296 161.6256 
L 346.542545 160.0128 
L 349.789091 158.4 
L 353.035636 156.7872 
L 356.282182 155.1744 
L 359.528727 153.5616 
L 362.775273 151.9488 
L 366.021818 150.336 
L 369.268364 148.7232 
L 372.514909 147.1104 
L 375.761455 145.4976 
L 379.008 143.8848 
L 382.254545 142.272 
L 385.501091 140.6592 
L 388.747636 139.0464 
L 391.994182 137.4336 
L 395.240727 135.8208 
L 398.487273 134.208 
" clip-path="url(#pbff34615a5)" style="fill: none; stroke-dasharray: 5.55,2.4; stroke-dashoffset: 0; stroke: #000000; stroke-width: 1.5"/>
   </g>
   <g id="line2d_16">
    <path d="M 73.832727 295.488 
L 77.079273 294.044341 
L 80.325818 292.679272 
L 83.572364 291.381755 
L 86.818909 290.111804 
L 90.065455 288.878276 
L 93.312 287.62615 
L 96.558545 286.253542 
L 99.805091 285.061884 
L 103.051636 283.68142 
L 106.298182 282.490831 
L 109.544727 281.192384 
L 112.791273 280.260032 
L 116.037818 279.010439 
L 119.284364 277.732648 
L 122.530909 276.62763 
L 125.777455 275.552484 
L 129.024 274.333712 
L 132.270545 273.002296 
L 135.517091 271.907809 
L 138.763636 270.647515 
L 142.010182 269.726687 
L 145.256727 268.590633 
L 148.503273 267.437636 
L 151.749818 266.466526 
L 154.996364 265.466513 
L 158.242909 264.385299 
L 161.489455 263.488305 
L 164.736 262.615413 
L 167.982545 261.328118 
L 171.229091 260.351114 
L 174.475636 259.328136 
L 177.722182 258.503282 
L 180.968727 257.676326 
L 184.215273 256.411233 
L 187.461818 255.297306 
L 190.708364 254.115063 
L 193.954909 253.130926 
L 197.201455 252.202622 
L 200.448 251.058401 
L 203.694545 249.927333 
L 206.941091 249.015105 
L 210.187636 247.942075 
L 213.434182 246.534403 
L 216.680727 245.272636 
L 219.927273 244.386219 
L 223.173818 243.362894 
L 226.420364 242.394972 
L 229.666909 241.158944 
L 232.913455 239.942447 
L 236.16 239.2695 
L 239.406545 238.340212 
L 242.653091 237.469486 
L 245.899636 236.46634 
L 249.146182 235.339338 
L 252.392727 234.173755 
L 255.639273 232.890506 
L 258.885818 231.760847 
L 262.132364 230.589464 
L 265.378909 229.7275 
L 268.625455 228.2914 
L 271.872 227.281536 
L 275.118545 226.678553 
L 278.365091 225.463227 
L 281.611636 224.722477 
L 284.858182 223.688751 
L 288.104727 222.586592 
L 291.351273 221.450235 
L 294.597818 220.568328 
L 297.844364 219.342091 
L 301.090909 218.39097 
L 304.337455 217.273971 
L 307.584 216.412582 
L 310.830545 215.928825 
L 314.077091 214.876972 
L 317.323636 214.264282 
L 320.570182 213.413107 
L 323.816727 212.54136 
L 327.063273 211.655987 
L 330.309818 210.807145 
L 333.556364 209.452789 
L 336.802909 208.373252 
L 340.049455 207.582886 
L 343.296 206.350957 
L 346.542545 205.011144 
L 349.789091 204.369519 
L 353.035636 203.622754 
L 356.282182 202.747146 
L 359.528727 201.551497 
L 362.775273 200.801774 
L 366.021818 199.850396 
L 369.268364 199.155734 
L 372.514909 198.68017 
L 375.761455 197.823053 
L 379.008 196.63004 
L 382.254545 195.482026 
L 385.501091 194.414631 
L 388.747636 193.939291 
L 391.994182 193.15419 
L 395.240727 192.465282 
L 398.487273 192.150684 
" clip-path="url(#pbff34615a5)" style="fill: none; stroke: #ff7f0e; stroke-width: 1.5; stroke-linecap: square"/>
   </g>
   <g id="line2d_17">
    <path d="M 73.832727 295.488 
L 77.079273 294.144 
L 80.325818 292.8 
L 83.572364 291.456 
L 86.818909 290.112 
L 90.065455 288.768 
L 93.312 287.424 
L 96.558545 286.08 
L 99.805091 284.736 
L 103.051636 283.392 
L 106.298182 282.048 
L 109.544727 280.704 
L 112.791273 279.36 
L 116.037818 278.016 
L 119.284364 276.672 
L 122.530909 275.328 
L 125.777455 273.984 
L 129.024 272.64 
L 132.270545 271.296 
L 135.517091 269.952 
L 138.763636 268.608 
L 142.010182 267.264 
L 145.256727 265.92 
L 148.503273 264.576 
L 151.749818 263.232 
L 154.996364 261.888 
L 158.242909 260.544 
L 161.489455 259.2 
L 164.736 257.856 
L 167.982545 256.512 
L 171.229091 255.168 
L 174.475636 253.824 
L 177.722182 252.48 
L 180.968727 251.136 
L 184.215273 249.792 
L 187.461818 248.448 
L 190.708364 247.104 
L 193.954909 245.76 
L 197.201455 244.416 
L 200.448 243.072 
L 203.694545 241.728 
L 206.941091 240.384 
L 210.187636 239.04 
L 213.434182 237.696 
L 216.680727 236.352 
L 219.927273 235.008 
L 223.173818 233.664 
L 226.420364 232.32 
L 229.666909 230.976 
L 232.913455 229.632 
L 236.16 228.288 
L 239.406545 226.944 
L 242.653091 225.6 
L 245.899636 224.256 
L 249.146182 222.912 
L 252.392727 221.568 
L 255.639273 220.224 
L 258.885818 218.88 
L 262.132364 217.536 
L 265.378909 216.192 
L 268.625455 214.848 
L 271.872 213.504 
L 275.118545 212.16 
L 278.365091 210.816 
L 281.611636 209.472 
L 284.858182 208.128 
L 288.104727 206.784 
L 291.351273 205.44 
L 294.597818 204.096 
L 297.844364 202.752 
L 301.090909 201.408 
L 304.337455 200.064 
L 307.584 198.72 
L 310.830545 197.376 
L 314.077091 196.032 
L 317.323636 194.688 
L 320.570182 193.344 
L 323.816727 192 
L 327.063273 190.656 
L 330.309818 189.312 
L 333.556364 187.968 
L 336.802909 186.624 
L 340.049455 185.28 
L 343.296 183.936 
L 346.542545 182.592 
L 349.789091 181.248 
L 353.035636 179.904 
L 356.282182 178.56 
L 359.528727 177.216 
L 362.775273 175.872 
L 366.021818 174.528 
L 369.268364 173.184 
L 372.514909 171.84 
L 375.761455 170.496 
L 379.008 169.152 
L 382.254545 167.808 
L 385.501091 166.464 
L 388.747636 165.12 
L 391.994182 163.776 
L 395.240727 162.432 
L 398.487273 161.088 
" clip-path="url(#pbff34615a5)" style="fill: none; stroke-dasharray: 5.55,2.4; stroke-dashoffset: 0; stroke: #000000; stroke-width: 1.5"/>
   </g>
   <g id="line2d_18">
    <path d="M 73.832727 295.488 
L 77.079273 294.32903 
L 80.325818 293.259354 
L 83.572364 292.167749 
L 86.818909 291.185194 
L 90.065455 290.071435 
L 93.312 288.990788 
L 96.558545 288.157931 
L 99.805091 287.101766 
L 103.051636 286.122246 
L 106.298182 285.058581 
L 109.544727 284.010368 
L 112.791273 283.098102 
L 116.037818 282.170178 
L 119.284364 281.251228 
L 122.530909 280.31714 
L 125.777455 279.317665 
L 129.024 278.252393 
L 132.270545 277.362238 
L 135.517091 276.333965 
L 138.763636 275.426444 
L 142.010182 274.428935 
L 145.256727 273.408178 
L 148.503273 272.602236 
L 151.749818 271.902805 
L 154.996364 271.042026 
L 158.242909 270.591616 
L 161.489455 269.909888 
L 164.736 269.240365 
L 167.982545 268.529157 
L 171.229091 267.509743 
L 174.475636 266.42541 
L 177.722182 265.533409 
L 180.968727 264.719351 
L 184.215273 263.83211 
L 187.461818 263.223587 
L 190.708364 262.385655 
L 193.954909 261.586776 
L 197.201455 260.750175 
L 200.448 260.001107 
L 203.694545 259.363955 
L 206.941091 258.406855 
L 210.187636 257.71374 
L 213.434182 257.054143 
L 216.680727 256.12909 
L 219.927273 255.707308 
L 223.173818 255.13074 
L 226.420364 254.581652 
L 229.666909 253.896323 
L 232.913455 253.186061 
L 236.16 252.12766 
L 239.406545 251.155624 
L 242.653091 250.399096 
L 245.899636 249.628914 
L 249.146182 248.666038 
L 252.392727 247.922345 
L 255.639273 246.90882 
L 258.885818 245.958461 
L 262.132364 245.151575 
L 265.378909 244.247217 
L 268.625455 243.921808 
L 271.872 243.242176 
L 275.118545 242.287386 
L 278.365091 241.587371 
L 281.611636 240.834411 
L 284.858182 239.859797 
L 288.104727 239.158172 
L 291.351273 238.211598 
L 294.597818 237.553488 
L 297.844364 237.045136 
L 301.090909 236.387693 
L 304.337455 235.758431 
L 307.584 235.024599 
L 310.830545 233.858007 
L 314.077091 233.101996 
L 317.323636 232.188656 
L 320.570182 231.581428 
L 323.816727 230.688832 
L 327.063273 230.106889 
L 330.309818 229.343437 
L 333.556364 228.812756 
L 336.802909 228.385132 
L 340.049455 227.574321 
L 343.296 227.131987 
L 346.542545 226.441834 
L 349.789091 225.505907 
L 353.035636 224.767284 
L 356.282182 223.781784 
L 359.528727 223.128881 
L 362.775273 221.921177 
L 366.021818 220.951514 
L 369.268364 220.013376 
L 372.514909 219.030858 
L 375.761455 217.777935 
L 379.008 216.963952 
L 382.254545 216.627452 
L 385.501091 216.250953 
L 388.747636 215.532671 
L 391.994182 214.629218 
L 395.240727 214.018875 
L 398.487273 212.760166 
" clip-path="url(#pbff34615a5)" style="fill: none; stroke: #2ca02c; stroke-width: 1.5; stroke-linecap: square"/>
   </g>
   <g id="patch_3">
    <path d="M 57.6 307.584 
L 57.6 41.472 
" style="fill: none; stroke: #000000; stroke-width: 0.8; stroke-linejoin: miter; stroke-linecap: square"/>
   </g>
   <g id="patch_4">
    <path d="M 414.72 307.584 
L 414.72 41.472 
" style="fill: none; stroke: #000000; stroke-width: 0.8; stroke-linejoin: miter; stroke-linecap: square"/>
   </g>
   <g id="patch_5">
    <path d="M 57.6 307.584 
L 414.72 307.584 
" style="fill: none; stroke: #000000; stroke-width: 0.8; stroke-linejoin: miter; stroke-linecap: square"/>
   </g>
   <g id="patch_6">
    <path d="M 57.6 41.472 
L 414.72 41.472 
" style="fill: none; stroke: #000000; stroke-width: 0.8; stroke-linejoin: miter; stroke-linecap: square"/>
   </g>
   <g id="text_15">
    <!-- Tracer -->
    <g transform="translate(206.751 35.472) scale(0.192 -0.192)">
     <use xlink:href="#DejaVuSans-54"/>
     <use xlink:href="#DejaVuSans-72" x="46.333984"/>
     <use xlink:href="#DejaVuSans-61" x="87.447266"/>
     <use xlink:href="#DejaVuSans-63" x="148.726562"/>
     <use xlink:href="#DejaVuSans-65" x="203.707031"/>
     <use xlink:href="#DejaVuSans-72" x="265.230469"/>
    </g>
   </g>
   <g id="legend_1">
    <g id="patch_7">
     <path d="M 68.8 124.727 
L 194.56 124.727 
Q 197.76 124.727 197.76 121.527 
L 197.76 52.672 
Q 197.76 49.472 194.56 49.472 
L 68.8 49.472 
Q 65.6 49.472 65.6 52.672 
L 65.6 121.527 
Q 65.6 124.727 68.8 124.727 
z
" style="fill: #ffffff; opacity: 0.8; stroke: #cccccc; stroke-linejoin: miter"/>
    </g>
    <g id="line2d_19">
     <path d="M 72 62.4295 
L 88 62.4295 
L 104 62.4295 
" style="fill: none; stroke: #1f77b4; stroke-width: 1.5; stroke-linecap: square"/>
    </g>
    <g id="text_16">
     <!-- $\sigma_t$=10nm -->
     <g transform="translate(116.8 68.0295) scale(0.16 -0.16)">
      <defs>
       <path id="DejaVuSans-Oblique-3c3" d="M 2219 3044 
Q 1744 3044 1422 2700 
Q 1081 2341 969 1747 
Q 844 1119 1044 756 
Q 1241 397 1706 397 
Q 2166 397 2503 759 
Q 2844 1122 2966 1747 
Q 3075 2319 2881 2700 
Q 2700 3044 2219 3044 
z
M 2309 3503 
L 4219 3500 
L 4106 2925 
L 3463 2925 
Q 3706 2438 3575 1747 
Q 3406 888 2884 400 
Q 2359 -91 1609 -91 
Q 856 -91 525 400 
Q 194 888 363 1747 
Q 528 2609 1050 3097 
Q 1484 3503 2309 3503 
z
" transform="scale(0.015625)"/>
       <path id="DejaVuSans-Oblique-74" d="M 2706 3500 
L 2619 3053 
L 1472 3053 
L 1100 1153 
Q 1081 1047 1072 975 
Q 1063 903 1063 863 
Q 1063 663 1183 572 
Q 1303 481 1569 481 
L 2150 481 
L 2053 0 
L 1503 0 
Q 991 0 739 200 
Q 488 400 488 806 
Q 488 878 497 964 
Q 506 1050 525 1153 
L 897 3053 
L 409 3053 
L 500 3500 
L 978 3500 
L 1172 4494 
L 1747 4494 
L 1556 3500 
L 2706 3500 
z
" transform="scale(0.015625)"/>
       <path id="DejaVuSans-3d" d="M 678 2906 
L 4684 2906 
L 4684 2381 
L 678 2381 
L 678 2906 
z
M 678 1631 
L 4684 1631 
L 4684 1100 
L 678 1100 
L 678 1631 
z
" transform="scale(0.015625)"/>
      </defs>
      <use xlink:href="#DejaVuSans-Oblique-3c3" transform="translate(0 0.78125)"/>
      <use xlink:href="#DejaVuSans-Oblique-74" transform="translate(63.378906 -15.625) scale(0.7)"/>
      <use xlink:href="#DejaVuSans-3d" transform="translate(93.55957 0.78125)"/>
      <use xlink:href="#DejaVuSans-31" transform="translate(177.348633 0.78125)"/>
      <use xlink:href="#DejaVuSans-30" transform="translate(240.97168 0.78125)"/>
      <use xlink:href="#DejaVuSans-6e" transform="translate(304.594727 0.78125)"/>
      <use xlink:href="#DejaVuSans-6d" transform="translate(367.973633 0.78125)"/>
     </g>
    </g>
    <g id="line2d_20">
     <path d="M 72 85.9145 
L 88 85.9145 
L 104 85.9145 
" style="fill: none; stroke: #ff7f0e; stroke-width: 1.5; stroke-linecap: square"/>
    </g>
    <g id="text_17">
     <!-- $\sigma_t$=15nm -->
     <g transform="translate(116.8 91.5145) scale(0.16 -0.16)">
      <use xlink:href="#DejaVuSans-Oblique-3c3" transform="translate(0 0.09375)"/>
      <use xlink:href="#DejaVuSans-Oblique-74" transform="translate(63.378906 -16.3125) scale(0.7)"/>
      <use xlink:href="#DejaVuSans-3d" transform="translate(93.55957 0.09375)"/>
      <use xlink:href="#DejaVuSans-31" transform="translate(177.348633 0.09375)"/>
      <use xlink:href="#DejaVuSans-35" transform="translate(240.97168 0.09375)"/>
      <use xlink:href="#DejaVuSans-6e" transform="translate(304.594727 0.09375)"/>
      <use xlink:href="#DejaVuSans-6d" transform="translate(367.973633 0.09375)"/>
     </g>
    </g>
    <g id="line2d_21">
     <path d="M 72 109.3995 
L 88 109.3995 
L 104 109.3995 
" style="fill: none; stroke: #2ca02c; stroke-width: 1.5; stroke-linecap: square"/>
    </g>
    <g id="text_18">
     <!-- $\sigma_t$=18nm -->
     <g transform="translate(116.8 114.9995) scale(0.16 -0.16)">
      <use xlink:href="#DejaVuSans-Oblique-3c3" transform="translate(0 0.78125)"/>
      <use xlink:href="#DejaVuSans-Oblique-74" transform="translate(63.378906 -15.625) scale(0.7)"/>
      <use xlink:href="#DejaVuSans-3d" transform="translate(93.55957 0.78125)"/>
      <use xlink:href="#DejaVuSans-31" transform="translate(177.348633 0.78125)"/>
      <use xlink:href="#DejaVuSans-38" transform="translate(240.97168 0.78125)"/>
      <use xlink:href="#DejaVuSans-6e" transform="translate(304.594727 0.78125)"/>
      <use xlink:href="#DejaVuSans-6d" transform="translate(367.973633 0.78125)"/>
     </g>
    </g>
   </g>
  </g>
 </g>
 <defs>
  <clipPath id="pbff34615a5">
   <rect x="57.6" y="41.472" width="357.12" height="266.112"/>
  </clipPath>
 </defs>
</svg>
