<?xml version="1.0" encoding="utf-8" standalone="no"?>
<!DOCTYPE svg PUBLIC "-//W3C//DTD SVG 1.1//EN"
  "http://www.w3.org/Graphics/SVG/1.1/DTD/svg11.dtd">
<svg xmlns:xlink="http://www.w3.org/1999/xlink" width="504pt" height="432pt" viewBox="0 0 504 432" xmlns="http://www.w3.org/2000/svg" version="1.1">
 <metadata>
  <rdf:RDF xmlns:dc="http://purl.org/dc/elements/1.1/" xmlns:cc="http://creativecommons.org/ns#" xmlns:rdf="http://www.w3.org/1999/02/22-rdf-syntax-ns#">
   <cc:Work>
    <dc:type rdf:resource="http://purl.org/dc/dcmitype/StillImage"/>
    <dc:date>2024-09-27T16:56:40.538808</dc:date>
    <dc:format>image/svg+xml</dc:format>
    <dc:creator>
     <cc:Agent>
      <dc:title>Matplotlib v3.8.2, https://matplotlib.org/</dc:title>
     </cc:Agent>
    </dc:creator>
   </cc:Work>
  </rdf:RDF>
 </metadata>
 <defs>
  <style type="text/css">*{stroke-linejoin: round; stroke-linecap: butt}</style>
 </defs>
 <g id="figure_1">
  <g id="patch_1">
   <path d="M 0 432 
L 504 432 
L 504 0 
L 0 0 
z
" style="fill: #ffffff"/>
  </g>
  <g id="axes_1">
   <g id="patch_2">
    <path d="M 63 384.48 
L 453.6 384.48 
L 453.6 51.84 
L 63 51.84 
z
" style="fill: #ffffff"/>
   </g>
   <g id="matplotlib.axis_1">
    <g id="xtick_1">
     <g id="line2d_1">
      <defs>
       <path id="ma88d256a98" d="M 0 0 
L 0 3.5 
" style="stroke: #000000; stroke-width: 0.8"/>
      </defs>
      <g>
       <use xlink:href="#ma88d256a98" x="80.754545" y="384.48" style="stroke: #000000; stroke-width: 0.8"/>
      </g>
     </g>
     <g id="text_1">
      <!-- 0 -->
      <g transform="translate(75.664545 403.6375) scale(0.16 -0.16)">
       <defs>
        <path id="DejaVuSans-30" d="M 2034 4250 
Q 1547 4250 1301 3770 
Q 1056 3291 1056 2328 
Q 1056 1369 1301 889 
Q 1547 409 2034 409 
Q 2525 409 2770 889 
Q 3016 1369 3016 2328 
Q 3016 3291 2770 3770 
Q 2525 4250 2034 4250 
z
M 2034 4750 
Q 2819 4750 3233 4129 
Q 3647 3509 3647 2328 
Q 3647 1150 3233 529 
Q 2819 -91 2034 -91 
Q 1250 -91 836 529 
Q 422 1150 422 2328 
Q 422 3509 836 4129 
Q 1250 4750 2034 4750 
z
" transform="scale(0.015625)"/>
       </defs>
       <use xlink:href="#DejaVuSans-30"/>
      </g>
     </g>
    </g>
    <g id="xtick_2">
     <g id="line2d_2">
      <g>
       <use xlink:href="#ma88d256a98" x="151.772727" y="384.48" style="stroke: #000000; stroke-width: 0.8"/>
      </g>
     </g>
     <g id="text_2">
      <!-- 20 -->
      <g transform="translate(141.592727 403.6375) scale(0.16 -0.16)">
       <defs>
        <path id="DejaVuSans-32" d="M 1228 531 
L 3431 531 
L 3431 0 
L 469 0 
L 469 531 
Q 828 903 1448 1529 
Q 2069 2156 2228 2338 
Q 2531 2678 2651 2914 
Q 2772 3150 2772 3378 
Q 2772 3750 2511 3984 
Q 2250 4219 1831 4219 
Q 1534 4219 1204 4116 
Q 875 4013 500 3803 
L 500 4441 
Q 881 4594 1212 4672 
Q 1544 4750 1819 4750 
Q 2544 4750 2975 4387 
Q 3406 4025 3406 3419 
Q 3406 3131 3298 2873 
Q 3191 2616 2906 2266 
Q 2828 2175 2409 1742 
Q 1991 1309 1228 531 
z
" transform="scale(0.015625)"/>
       </defs>
       <use xlink:href="#DejaVuSans-32"/>
       <use xlink:href="#DejaVuSans-30" x="63.623047"/>
      </g>
     </g>
    </g>
    <g id="xtick_3">
     <g id="line2d_3">
      <g>
       <use xlink:href="#ma88d256a98" x="222.790909" y="384.48" style="stroke: #000000; stroke-width: 0.8"/>
      </g>
     </g>
     <g id="text_3">
      <!-- 40 -->
      <g transform="translate(212.610909 403.6375) scale(0.16 -0.16)">
       <defs>
        <path id="DejaVuSans-34" d="M 2419 4116 
L 825 1625 
L 2419 1625 
L 2419 4116 
z
M 2253 4666 
L 3047 4666 
L 3047 1625 
L 3713 1625 
L 3713 1100 
L 3047 1100 
L 3047 0 
L 2419 0 
L 2419 1100 
L 313 1100 
L 313 1709 
L 2253 4666 
z
" transform="scale(0.015625)"/>
       </defs>
       <use xlink:href="#DejaVuSans-34"/>
       <use xlink:href="#DejaVuSans-30" x="63.623047"/>
      </g>
     </g>
    </g>
    <g id="xtick_4">
     <g id="line2d_4">
      <g>
       <use xlink:href="#ma88d256a98" x="293.809091" y="384.48" style="stroke: #000000; stroke-width: 0.8"/>
      </g>
     </g>
     <g id="text_4">
      <!-- 60 -->
      <g transform="translate(283.629091 403.6375) scale(0.16 -0.16)">
       <defs>
        <path id="DejaVuSans-36" d="M 2113 2584 
Q 1688 2584 1439 2293 
Q 1191 2003 1191 1497 
Q 1191 994 1439 701 
Q 1688 409 2113 409 
Q 2538 409 2786 701 
Q 3034 994 3034 1497 
Q 3034 2003 2786 2293 
Q 2538 2584 2113 2584 
z
M 3366 4563 
L 3366 3988 
Q 3128 4100 2886 4159 
Q 2644 4219 2406 4219 
Q 1781 4219 1451 3797 
Q 1122 3375 1075 2522 
Q 1259 2794 1537 2939 
Q 1816 3084 2150 3084 
Q 2853 3084 3261 2657 
Q 3669 2231 3669 1497 
Q 3669 778 3244 343 
Q 2819 -91 2113 -91 
Q 1303 -91 875 529 
Q 447 1150 447 2328 
Q 447 3434 972 4092 
Q 1497 4750 2381 4750 
Q 2619 4750 2861 4703 
Q 3103 4656 3366 4563 
z
" transform="scale(0.015625)"/>
       </defs>
       <use xlink:href="#DejaVuSans-36"/>
       <use xlink:href="#DejaVuSans-30" x="63.623047"/>
      </g>
     </g>
    </g>
    <g id="xtick_5">
     <g id="line2d_5">
      <g>
       <use xlink:href="#ma88d256a98" x="364.827273" y="384.48" style="stroke: #000000; stroke-width: 0.8"/>
      </g>
     </g>
     <g id="text_5">
      <!-- 80 -->
      <g transform="translate(354.647273 403.6375) scale(0.16 -0.16)">
       <defs>
        <path id="DejaVuSans-38" d="M 2034 2216 
Q 1584 2216 1326 1975 
Q 1069 1734 1069 1313 
Q 1069 891 1326 650 
Q 1584 409 2034 409 
Q 2484 409 2743 651 
Q 3003 894 3003 1313 
Q 3003 1734 2745 1975 
Q 2488 2216 2034 2216 
z
M 1403 2484 
Q 997 2584 770 2862 
Q 544 3141 544 3541 
Q 544 4100 942 4425 
Q 1341 4750 2034 4750 
Q 2731 4750 3128 4425 
Q 3525 4100 3525 3541 
Q 3525 3141 3298 2862 
Q 3072 2584 2669 2484 
Q 3125 2378 3379 2068 
Q 3634 1759 3634 1313 
Q 3634 634 3220 271 
Q 2806 -91 2034 -91 
Q 1263 -91 848 271 
Q 434 634 434 1313 
Q 434 1759 690 2068 
Q 947 2378 1403 2484 
z
M 1172 3481 
Q 1172 3119 1398 2916 
Q 1625 2713 2034 2713 
Q 2441 2713 2670 2916 
Q 2900 3119 2900 3481 
Q 2900 3844 2670 4047 
Q 2441 4250 2034 4250 
Q 1625 4250 1398 4047 
Q 1172 3844 1172 3481 
z
" transform="scale(0.015625)"/>
       </defs>
       <use xlink:href="#DejaVuSans-38"/>
       <use xlink:href="#DejaVuSans-30" x="63.623047"/>
      </g>
     </g>
    </g>
    <g id="xtick_6">
     <g id="line2d_6">
      <g>
       <use xlink:href="#ma88d256a98" x="435.845455" y="384.48" style="stroke: #000000; stroke-width: 0.8"/>
      </g>
     </g>
     <g id="text_6">
      <!-- 100 -->
      <g transform="translate(420.575455 403.6375) scale(0.16 -0.16)">
       <defs>
        <path id="DejaVuSans-31" d="M 794 531 
L 1825 531 
L 1825 4091 
L 703 3866 
L 703 4441 
L 1819 4666 
L 2450 4666 
L 2450 531 
L 3481 531 
L 3481 0 
L 794 0 
L 794 531 
z
" transform="scale(0.015625)"/>
       </defs>
       <use xlink:href="#DejaVuSans-31"/>
       <use xlink:href="#DejaVuSans-30" x="63.623047"/>
       <use xlink:href="#DejaVuSans-30" x="127.246094"/>
      </g>
     </g>
    </g>
    <g id="text_7">
     <!-- Time (ms) -->
     <g transform="translate(217.98125 423.1225) scale(0.16 -0.16)">
      <defs>
       <path id="DejaVuSans-54" d="M -19 4666 
L 3928 4666 
L 3928 4134 
L 2272 4134 
L 2272 0 
L 1638 0 
L 1638 4134 
L -19 4134 
L -19 4666 
z
" transform="scale(0.015625)"/>
       <path id="DejaVuSans-69" d="M 603 3500 
L 1178 3500 
L 1178 0 
L 603 0 
L 603 3500 
z
M 603 4863 
L 1178 4863 
L 1178 4134 
L 603 4134 
L 603 4863 
z
" transform="scale(0.015625)"/>
       <path id="DejaVuSans-6d" d="M 3328 2828 
Q 3544 3216 3844 3400 
Q 4144 3584 4550 3584 
Q 5097 3584 5394 3201 
Q 5691 2819 5691 2113 
L 5691 0 
L 5113 0 
L 5113 2094 
Q 5113 2597 4934 2840 
Q 4756 3084 4391 3084 
Q 3944 3084 3684 2787 
Q 3425 2491 3425 1978 
L 3425 0 
L 2847 0 
L 2847 2094 
Q 2847 2600 2669 2842 
Q 2491 3084 2119 3084 
Q 1678 3084 1418 2786 
Q 1159 2488 1159 1978 
L 1159 0 
L 581 0 
L 581 3500 
L 1159 3500 
L 1159 2956 
Q 1356 3278 1631 3431 
Q 1906 3584 2284 3584 
Q 2666 3584 2933 3390 
Q 3200 3197 3328 2828 
z
" transform="scale(0.015625)"/>
       <path id="DejaVuSans-65" d="M 3597 1894 
L 3597 1613 
L 953 1613 
Q 991 1019 1311 708 
Q 1631 397 2203 397 
Q 2534 397 2845 478 
Q 3156 559 3463 722 
L 3463 178 
Q 3153 47 2828 -22 
Q 2503 -91 2169 -91 
Q 1331 -91 842 396 
Q 353 884 353 1716 
Q 353 2575 817 3079 
Q 1281 3584 2069 3584 
Q 2775 3584 3186 3129 
Q 3597 2675 3597 1894 
z
M 3022 2063 
Q 3016 2534 2758 2815 
Q 2500 3097 2075 3097 
Q 1594 3097 1305 2825 
Q 1016 2553 972 2059 
L 3022 2063 
z
" transform="scale(0.015625)"/>
       <path id="DejaVuSans-20" transform="scale(0.015625)"/>
       <path id="DejaVuSans-28" d="M 1984 4856 
Q 1566 4138 1362 3434 
Q 1159 2731 1159 2009 
Q 1159 1288 1364 580 
Q 1569 -128 1984 -844 
L 1484 -844 
Q 1016 -109 783 600 
Q 550 1309 550 2009 
Q 550 2706 781 3412 
Q 1013 4119 1484 4856 
L 1984 4856 
z
" transform="scale(0.015625)"/>
       <path id="DejaVuSans-73" d="M 2834 3397 
L 2834 2853 
Q 2591 2978 2328 3040 
Q 2066 3103 1784 3103 
Q 1356 3103 1142 2972 
Q 928 2841 928 2578 
Q 928 2378 1081 2264 
Q 1234 2150 1697 2047 
L 1894 2003 
Q 2506 1872 2764 1633 
Q 3022 1394 3022 966 
Q 3022 478 2636 193 
Q 2250 -91 1575 -91 
Q 1294 -91 989 -36 
Q 684 19 347 128 
L 347 722 
Q 666 556 975 473 
Q 1284 391 1588 391 
Q 1994 391 2212 530 
Q 2431 669 2431 922 
Q 2431 1156 2273 1281 
Q 2116 1406 1581 1522 
L 1381 1569 
Q 847 1681 609 1914 
Q 372 2147 372 2553 
Q 372 3047 722 3315 
Q 1072 3584 1716 3584 
Q 2034 3584 2315 3537 
Q 2597 3491 2834 3397 
z
" transform="scale(0.015625)"/>
       <path id="DejaVuSans-29" d="M 513 4856 
L 1013 4856 
Q 1481 4119 1714 3412 
Q 1947 2706 1947 2009 
Q 1947 1309 1714 600 
Q 1481 -109 1013 -844 
L 513 -844 
Q 928 -128 1133 580 
Q 1338 1288 1338 2009 
Q 1338 2731 1133 3434 
Q 928 4138 513 4856 
z
" transform="scale(0.015625)"/>
      </defs>
      <use xlink:href="#DejaVuSans-54"/>
      <use xlink:href="#DejaVuSans-69" x="57.958984"/>
      <use xlink:href="#DejaVuSans-6d" x="85.742188"/>
      <use xlink:href="#DejaVuSans-65" x="183.154297"/>
      <use xlink:href="#DejaVuSans-20" x="244.677734"/>
      <use xlink:href="#DejaVuSans-28" x="276.464844"/>
      <use xlink:href="#DejaVuSans-6d" x="315.478516"/>
      <use xlink:href="#DejaVuSans-73" x="412.890625"/>
      <use xlink:href="#DejaVuSans-29" x="464.990234"/>
     </g>
    </g>
   </g>
   <g id="matplotlib.axis_2">
    <g id="ytick_1">
     <g id="line2d_7">
      <defs>
       <path id="m7f5aa9ed7f" d="M 0 0 
L -3.5 0 
" style="stroke: #000000; stroke-width: 0.8"/>
      </defs>
      <g>
       <use xlink:href="#m7f5aa9ed7f" x="63" y="369.36" style="stroke: #000000; stroke-width: 0.8"/>
      </g>
     </g>
     <g id="text_8">
      <!-- 0.0 -->
      <g transform="translate(30.555 375.43875) scale(0.16 -0.16)">
       <defs>
        <path id="DejaVuSans-2e" d="M 684 794 
L 1344 794 
L 1344 0 
L 684 0 
L 684 794 
z
" transform="scale(0.015625)"/>
       </defs>
       <use xlink:href="#DejaVuSans-30"/>
       <use xlink:href="#DejaVuSans-2e" x="63.623047"/>
       <use xlink:href="#DejaVuSans-30" x="95.410156"/>
      </g>
     </g>
    </g>
    <g id="ytick_2">
     <g id="line2d_8">
      <g>
       <use xlink:href="#m7f5aa9ed7f" x="63" y="308.88" style="stroke: #000000; stroke-width: 0.8"/>
      </g>
     </g>
     <g id="text_9">
      <!-- 0.2 -->
      <g transform="translate(30.555 314.95875) scale(0.16 -0.16)">
       <use xlink:href="#DejaVuSans-30"/>
       <use xlink:href="#DejaVuSans-2e" x="63.623047"/>
       <use xlink:href="#DejaVuSans-32" x="95.410156"/>
      </g>
     </g>
    </g>
    <g id="ytick_3">
     <g id="line2d_9">
      <g>
       <use xlink:href="#m7f5aa9ed7f" x="63" y="248.4" style="stroke: #000000; stroke-width: 0.8"/>
      </g>
     </g>
     <g id="text_10">
      <!-- 0.4 -->
      <g transform="translate(30.555 254.47875) scale(0.16 -0.16)">
       <use xlink:href="#DejaVuSans-30"/>
       <use xlink:href="#DejaVuSans-2e" x="63.623047"/>
       <use xlink:href="#DejaVuSans-34" x="95.410156"/>
      </g>
     </g>
    </g>
    <g id="ytick_4">
     <g id="line2d_10">
      <g>
       <use xlink:href="#m7f5aa9ed7f" x="63" y="187.92" style="stroke: #000000; stroke-width: 0.8"/>
      </g>
     </g>
     <g id="text_11">
      <!-- 0.6 -->
      <g transform="translate(30.555 193.99875) scale(0.16 -0.16)">
       <use xlink:href="#DejaVuSans-30"/>
       <use xlink:href="#DejaVuSans-2e" x="63.623047"/>
       <use xlink:href="#DejaVuSans-36" x="95.410156"/>
      </g>
     </g>
    </g>
    <g id="ytick_5">
     <g id="line2d_11">
      <g>
       <use xlink:href="#m7f5aa9ed7f" x="63" y="127.44" style="stroke: #000000; stroke-width: 0.8"/>
      </g>
     </g>
     <g id="text_12">
      <!-- 0.8 -->
      <g transform="translate(30.555 133.51875) scale(0.16 -0.16)">
       <use xlink:href="#DejaVuSans-30"/>
       <use xlink:href="#DejaVuSans-2e" x="63.623047"/>
       <use xlink:href="#DejaVuSans-38" x="95.410156"/>
      </g>
     </g>
    </g>
    <g id="ytick_6">
     <g id="line2d_12">
      <g>
       <use xlink:href="#m7f5aa9ed7f" x="63" y="66.96" style="stroke: #000000; stroke-width: 0.8"/>
      </g>
     </g>
     <g id="text_13">
      <!-- 1.0 -->
      <g transform="translate(30.555 73.03875) scale(0.16 -0.16)">
       <use xlink:href="#DejaVuSans-31"/>
       <use xlink:href="#DejaVuSans-2e" x="63.623047"/>
       <use xlink:href="#DejaVuSans-30" x="95.410156"/>
      </g>
     </g>
    </g>
    <g id="text_14">
     <!-- Fraction of penetrated tracers -->
     <g transform="translate(23.2275 337.9975) rotate(-90) scale(0.16 -0.16)">
      <defs>
       <path id="DejaVuSans-46" d="M 628 4666 
L 3309 4666 
L 3309 4134 
L 1259 4134 
L 1259 2759 
L 3109 2759 
L 3109 2228 
L 1259 2228 
L 1259 0 
L 628 0 
L 628 4666 
z
" transform="scale(0.015625)"/>
       <path id="DejaVuSans-72" d="M 2631 2963 
Q 2534 3019 2420 3045 
Q 2306 3072 2169 3072 
Q 1681 3072 1420 2755 
Q 1159 2438 1159 1844 
L 1159 0 
L 581 0 
L 581 3500 
L 1159 3500 
L 1159 2956 
Q 1341 3275 1631 3429 
Q 1922 3584 2338 3584 
Q 2397 3584 2469 3576 
Q 2541 3569 2628 3553 
L 2631 2963 
z
" transform="scale(0.015625)"/>
       <path id="DejaVuSans-61" d="M 2194 1759 
Q 1497 1759 1228 1600 
Q 959 1441 959 1056 
Q 959 750 1161 570 
Q 1363 391 1709 391 
Q 2188 391 2477 730 
Q 2766 1069 2766 1631 
L 2766 1759 
L 2194 1759 
z
M 3341 1997 
L 3341 0 
L 2766 0 
L 2766 531 
Q 2569 213 2275 61 
Q 1981 -91 1556 -91 
Q 1019 -91 701 211 
Q 384 513 384 1019 
Q 384 1609 779 1909 
Q 1175 2209 1959 2209 
L 2766 2209 
L 2766 2266 
Q 2766 2663 2505 2880 
Q 2244 3097 1772 3097 
Q 1472 3097 1187 3025 
Q 903 2953 641 2809 
L 641 3341 
Q 956 3463 1253 3523 
Q 1550 3584 1831 3584 
Q 2591 3584 2966 3190 
Q 3341 2797 3341 1997 
z
" transform="scale(0.015625)"/>
       <path id="DejaVuSans-63" d="M 3122 3366 
L 3122 2828 
Q 2878 2963 2633 3030 
Q 2388 3097 2138 3097 
Q 1578 3097 1268 2742 
Q 959 2388 959 1747 
Q 959 1106 1268 751 
Q 1578 397 2138 397 
Q 2388 397 2633 464 
Q 2878 531 3122 666 
L 3122 134 
Q 2881 22 2623 -34 
Q 2366 -91 2075 -91 
Q 1284 -91 818 406 
Q 353 903 353 1747 
Q 353 2603 823 3093 
Q 1294 3584 2113 3584 
Q 2378 3584 2631 3529 
Q 2884 3475 3122 3366 
z
" transform="scale(0.015625)"/>
       <path id="DejaVuSans-74" d="M 1172 4494 
L 1172 3500 
L 2356 3500 
L 2356 3053 
L 1172 3053 
L 1172 1153 
Q 1172 725 1289 603 
Q 1406 481 1766 481 
L 2356 481 
L 2356 0 
L 1766 0 
Q 1100 0 847 248 
Q 594 497 594 1153 
L 594 3053 
L 172 3053 
L 172 3500 
L 594 3500 
L 594 4494 
L 1172 4494 
z
" transform="scale(0.015625)"/>
       <path id="DejaVuSans-6f" d="M 1959 3097 
Q 1497 3097 1228 2736 
Q 959 2375 959 1747 
Q 959 1119 1226 758 
Q 1494 397 1959 397 
Q 2419 397 2687 759 
Q 2956 1122 2956 1747 
Q 2956 2369 2687 2733 
Q 2419 3097 1959 3097 
z
M 1959 3584 
Q 2709 3584 3137 3096 
Q 3566 2609 3566 1747 
Q 3566 888 3137 398 
Q 2709 -91 1959 -91 
Q 1206 -91 779 398 
Q 353 888 353 1747 
Q 353 2609 779 3096 
Q 1206 3584 1959 3584 
z
" transform="scale(0.015625)"/>
       <path id="DejaVuSans-6e" d="M 3513 2113 
L 3513 0 
L 2938 0 
L 2938 2094 
Q 2938 2591 2744 2837 
Q 2550 3084 2163 3084 
Q 1697 3084 1428 2787 
Q 1159 2491 1159 1978 
L 1159 0 
L 581 0 
L 581 3500 
L 1159 3500 
L 1159 2956 
Q 1366 3272 1645 3428 
Q 1925 3584 2291 3584 
Q 2894 3584 3203 3211 
Q 3513 2838 3513 2113 
z
" transform="scale(0.015625)"/>
       <path id="DejaVuSans-66" d="M 2375 4863 
L 2375 4384 
L 1825 4384 
Q 1516 4384 1395 4259 
Q 1275 4134 1275 3809 
L 1275 3500 
L 2222 3500 
L 2222 3053 
L 1275 3053 
L 1275 0 
L 697 0 
L 697 3053 
L 147 3053 
L 147 3500 
L 697 3500 
L 697 3744 
Q 697 4328 969 4595 
Q 1241 4863 1831 4863 
L 2375 4863 
z
" transform="scale(0.015625)"/>
       <path id="DejaVuSans-70" d="M 1159 525 
L 1159 -1331 
L 581 -1331 
L 581 3500 
L 1159 3500 
L 1159 2969 
Q 1341 3281 1617 3432 
Q 1894 3584 2278 3584 
Q 2916 3584 3314 3078 
Q 3713 2572 3713 1747 
Q 3713 922 3314 415 
Q 2916 -91 2278 -91 
Q 1894 -91 1617 61 
Q 1341 213 1159 525 
z
M 3116 1747 
Q 3116 2381 2855 2742 
Q 2594 3103 2138 3103 
Q 1681 3103 1420 2742 
Q 1159 2381 1159 1747 
Q 1159 1113 1420 752 
Q 1681 391 2138 391 
Q 2594 391 2855 752 
Q 3116 1113 3116 1747 
z
" transform="scale(0.015625)"/>
       <path id="DejaVuSans-64" d="M 2906 2969 
L 2906 4863 
L 3481 4863 
L 3481 0 
L 2906 0 
L 2906 525 
Q 2725 213 2448 61 
Q 2172 -91 1784 -91 
Q 1150 -91 751 415 
Q 353 922 353 1747 
Q 353 2572 751 3078 
Q 1150 3584 1784 3584 
Q 2172 3584 2448 3432 
Q 2725 3281 2906 2969 
z
M 947 1747 
Q 947 1113 1208 752 
Q 1469 391 1925 391 
Q 2381 391 2643 752 
Q 2906 1113 2906 1747 
Q 2906 2381 2643 2742 
Q 2381 3103 1925 3103 
Q 1469 3103 1208 2742 
Q 947 2381 947 1747 
z
" transform="scale(0.015625)"/>
      </defs>
      <use xlink:href="#DejaVuSans-46"/>
      <use xlink:href="#DejaVuSans-72" x="50.269531"/>
      <use xlink:href="#DejaVuSans-61" x="91.382812"/>
      <use xlink:href="#DejaVuSans-63" x="152.662109"/>
      <use xlink:href="#DejaVuSans-74" x="207.642578"/>
      <use xlink:href="#DejaVuSans-69" x="246.851562"/>
      <use xlink:href="#DejaVuSans-6f" x="274.634766"/>
      <use xlink:href="#DejaVuSans-6e" x="335.816406"/>
      <use xlink:href="#DejaVuSans-20" x="399.195312"/>
      <use xlink:href="#DejaVuSans-6f" x="430.982422"/>
      <use xlink:href="#DejaVuSans-66" x="492.164062"/>
      <use xlink:href="#DejaVuSans-20" x="527.369141"/>
      <use xlink:href="#DejaVuSans-70" x="559.15625"/>
      <use xlink:href="#DejaVuSans-65" x="622.632812"/>
      <use xlink:href="#DejaVuSans-6e" x="684.15625"/>
      <use xlink:href="#DejaVuSans-65" x="747.535156"/>
      <use xlink:href="#DejaVuSans-74" x="809.058594"/>
      <use xlink:href="#DejaVuSans-72" x="848.267578"/>
      <use xlink:href="#DejaVuSans-61" x="889.380859"/>
      <use xlink:href="#DejaVuSans-74" x="950.660156"/>
      <use xlink:href="#DejaVuSans-65" x="989.869141"/>
      <use xlink:href="#DejaVuSans-64" x="1051.392578"/>
      <use xlink:href="#DejaVuSans-20" x="1114.869141"/>
      <use xlink:href="#DejaVuSans-74" x="1146.65625"/>
      <use xlink:href="#DejaVuSans-72" x="1185.865234"/>
      <use xlink:href="#DejaVuSans-61" x="1226.978516"/>
      <use xlink:href="#DejaVuSans-63" x="1288.257812"/>
      <use xlink:href="#DejaVuSans-65" x="1343.238281"/>
      <use xlink:href="#DejaVuSans-72" x="1404.761719"/>
      <use xlink:href="#DejaVuSans-73" x="1445.875"/>
     </g>
    </g>
   </g>
   <g id="line2d_13">
    <path d="M 80.754545 369.36 
L 89.631818 262.3104 
L 98.509091 195.1776 
L 107.386364 137.1168 
L 116.263636 112.9248 
L 125.140909 95.3856 
L 134.018182 85.104 
L 142.895455 80.8704 
L 151.772727 74.2176 
L 160.65 71.1936 
L 169.527273 69.3792 
L 178.404545 68.7744 
L 187.281818 68.1696 
L 196.159091 67.5648 
L 205.036364 67.5648 
L 213.913636 66.96 
L 222.790909 66.96 
L 231.668182 66.96 
L 240.545455 66.96 
L 249.422727 66.96 
L 258.3 66.96 
L 267.177273 66.96 
L 276.054545 66.96 
L 284.931818 66.96 
L 293.809091 66.96 
L 302.686364 66.96 
L 311.563636 66.96 
L 320.440909 66.96 
L 329.318182 66.96 
L 338.195455 66.96 
L 347.072727 66.96 
L 355.95 66.96 
L 364.827273 66.96 
L 373.704545 66.96 
L 382.581818 66.96 
L 391.459091 66.96 
L 400.336364 66.96 
L 409.213636 66.96 
L 418.090909 66.96 
L 426.968182 66.96 
L 435.845455 66.96 
" clip-path="url(#p4898a7fe77)" style="fill: none; stroke-dasharray: 5.55,2.4; stroke-dashoffset: 0; stroke: #1f77b4; stroke-width: 1.5"/>
   </g>
   <g id="line2d_14">
    <path d="M 80.754545 369.36 
L 89.631818 254.448 
L 98.509091 182.4768 
L 107.386364 129.8592 
L 116.263636 107.4816 
L 125.140909 91.152 
L 134.018182 81.4752 
L 142.895455 76.032 
L 151.772727 71.7984 
L 160.65 69.984 
L 169.527273 69.3792 
L 178.404545 68.7744 
L 187.281818 67.5648 
L 196.159091 66.96 
L 205.036364 66.96 
L 213.913636 66.96 
L 222.790909 66.96 
L 231.668182 66.96 
L 240.545455 66.96 
L 249.422727 66.96 
L 258.3 66.96 
L 267.177273 66.96 
L 276.054545 66.96 
L 284.931818 66.96 
L 293.809091 66.96 
L 302.686364 66.96 
L 311.563636 66.96 
L 320.440909 66.96 
L 329.318182 66.96 
L 338.195455 66.96 
L 347.072727 66.96 
L 355.95 66.96 
L 364.827273 66.96 
L 373.704545 66.96 
L 382.581818 66.96 
L 391.459091 66.96 
L 400.336364 66.96 
L 409.213636 66.96 
L 418.090909 66.96 
L 426.968182 66.96 
L 435.845455 66.96 
" clip-path="url(#p4898a7fe77)" style="fill: none; stroke: #1f77b4; stroke-width: 1.5; stroke-linecap: square"/>
   </g>
   <g id="line2d_15">
    <path d="M 80.754545 369.36 
L 89.631818 336.096 
L 98.509091 305.856 
L 107.386364 274.4064 
L 116.263636 248.4 
L 125.140909 226.0224 
L 134.018182 207.8784 
L 142.895455 192.1536 
L 151.772727 179.4528 
L 160.65 167.9616 
L 169.527273 157.68 
L 178.404545 149.8176 
L 187.281818 134.0928 
L 196.159091 128.6496 
L 205.036364 123.8112 
L 213.913636 118.9728 
L 222.790909 115.344 
L 231.668182 109.296 
L 240.545455 105.6672 
L 249.422727 101.4336 
L 258.3 95.3856 
L 267.177273 94.176 
L 276.054545 92.3616 
L 284.931818 89.3376 
L 293.809091 88.7328 
L 302.686364 86.3136 
L 311.563636 83.8944 
L 320.440909 82.6848 
L 329.318182 80.2656 
L 338.195455 79.056 
L 347.072727 78.4512 
L 355.95 76.032 
L 364.827273 75.4272 
L 373.704545 75.4272 
L 382.581818 74.8224 
L 391.459091 74.2176 
L 400.336364 73.008 
L 409.213636 72.4032 
L 418.090909 71.7984 
L 426.968182 71.7984 
L 435.845455 71.7984 
" clip-path="url(#p4898a7fe77)" style="fill: none; stroke-dasharray: 5.55,2.4; stroke-dashoffset: 0; stroke: #ff7f0e; stroke-width: 1.5"/>
   </g>
   <g id="line2d_16">
    <path d="M 80.754545 369.36 
L 89.631818 326.4192 
L 98.509091 280.4544 
L 107.386364 248.4 
L 116.263636 224.208 
L 125.140909 199.4112 
L 134.018182 183.0816 
L 142.895455 168.5664 
L 151.772727 157.0752 
L 160.65 140.7456 
L 169.527273 132.8832 
L 178.404545 120.7872 
L 187.281818 112.32 
L 196.159091 107.4816 
L 205.036364 101.4336 
L 213.913636 96.5952 
L 222.790909 91.7568 
L 231.668182 86.3136 
L 240.545455 83.2896 
L 249.422727 82.08 
L 258.3 80.2656 
L 267.177273 79.056 
L 276.054545 77.2416 
L 284.931818 75.4272 
L 293.809091 75.4272 
L 302.686364 73.6128 
L 311.563636 71.1936 
L 320.440909 71.1936 
L 329.318182 70.5888 
L 338.195455 69.984 
L 347.072727 69.3792 
L 355.95 69.3792 
L 364.827273 69.3792 
L 373.704545 69.3792 
L 382.581818 69.3792 
L 391.459091 69.3792 
L 400.336364 68.7744 
L 409.213636 68.1696 
L 418.090909 68.1696 
L 426.968182 68.1696 
L 435.845455 68.1696 
" clip-path="url(#p4898a7fe77)" style="fill: none; stroke: #ff7f0e; stroke-width: 1.5; stroke-linecap: square"/>
   </g>
   <g id="line2d_17">
    <path d="M 80.754545 369.36 
L 89.631818 356.0544 
L 98.509091 339.12 
L 107.386364 329.4432 
L 116.263636 320.3712 
L 125.140909 308.88 
L 134.018182 297.3888 
L 142.895455 284.0832 
L 151.772727 271.9872 
L 160.65 264.1248 
L 169.527273 257.472 
L 178.404545 252.6336 
L 187.281818 243.5616 
L 196.159091 237.5136 
L 205.036364 234.4896 
L 213.913636 230.8608 
L 222.790909 222.3936 
L 231.668182 215.7408 
L 240.545455 209.6928 
L 249.422727 203.04 
L 258.3 198.2016 
L 267.177273 192.7584 
L 276.054545 187.3152 
L 284.931818 184.2912 
L 293.809091 181.872 
L 302.686364 178.2432 
L 311.563636 176.4288 
L 320.440909 170.3808 
L 329.318182 166.752 
L 338.195455 160.0992 
L 347.072727 154.656 
L 355.95 152.8416 
L 364.827273 148.608 
L 373.704545 145.584 
L 382.581818 141.3504 
L 391.459091 138.9312 
L 400.336364 135.9072 
L 409.213636 132.8832 
L 418.090909 130.464 
L 426.968182 125.6256 
L 435.845455 124.416 
" clip-path="url(#p4898a7fe77)" style="fill: none; stroke-dasharray: 5.55,2.4; stroke-dashoffset: 0; stroke: #2ca02c; stroke-width: 1.5"/>
   </g>
   <g id="line2d_18">
    <path d="M 80.754545 369.36 
L 89.631818 348.192 
L 98.509091 332.4672 
L 107.386364 315.5328 
L 116.263636 295.5744 
L 125.140909 281.0592 
L 134.018182 271.3824 
L 142.895455 259.2864 
L 151.772727 252.0288 
L 160.65 239.9328 
L 169.527273 227.232 
L 178.404545 219.9744 
L 187.281818 210.2976 
L 196.159091 202.4352 
L 205.036364 193.968 
L 213.913636 186.1056 
L 222.790909 176.4288 
L 231.668182 169.776 
L 240.545455 163.728 
L 249.422727 158.8896 
L 258.3 154.656 
L 267.177273 146.1888 
L 276.054545 141.3504 
L 284.931818 138.3264 
L 293.809091 134.6976 
L 302.686364 131.0688 
L 311.563636 127.44 
L 320.440909 124.416 
L 329.318182 118.9728 
L 338.195455 112.32 
L 347.072727 110.5056 
L 355.95 106.8768 
L 364.827273 104.4576 
L 373.704545 102.0384 
L 382.581818 99.0144 
L 391.459091 98.4096 
L 400.336364 97.2 
L 409.213636 96.5952 
L 418.090909 94.176 
L 426.968182 92.9664 
L 435.845455 91.7568 
" clip-path="url(#p4898a7fe77)" style="fill: none; stroke: #2ca02c; stroke-width: 1.5; stroke-linecap: square"/>
   </g>
   <g id="line2d_19">
    <path d="M 80.754545 369.36 
L 89.631818 366.9408 
L 98.509091 362.7072 
L 107.386364 358.4736 
L 116.263636 356.0544 
L 125.140909 353.6352 
L 134.018182 349.4016 
L 142.895455 346.3776 
L 151.772727 342.144 
L 160.65 339.12 
L 169.527273 335.4912 
L 178.404545 334.2816 
L 187.281818 330.6528 
L 196.159091 325.8144 
L 205.036364 323.3952 
L 213.913636 321.5808 
L 222.790909 320.3712 
L 231.668182 316.1376 
L 240.545455 311.904 
L 249.422727 307.6704 
L 258.3 304.0416 
L 267.177273 302.2272 
L 276.054545 301.6224 
L 284.931818 298.5984 
L 293.809091 297.3888 
L 302.686364 290.736 
L 311.563636 287.712 
L 320.440909 286.5024 
L 329.318182 284.0832 
L 338.195455 282.2688 
L 347.072727 278.64 
L 355.95 275.616 
L 364.827273 271.3824 
L 373.704545 268.3584 
L 382.581818 266.544 
L 391.459091 265.3344 
L 400.336364 262.9152 
L 409.213636 261.7056 
L 418.090909 259.8912 
L 426.968182 255.6576 
L 435.845455 253.2384 
" clip-path="url(#p4898a7fe77)" style="fill: none; stroke-dasharray: 5.55,2.4; stroke-dashoffset: 0; stroke: #d62728; stroke-width: 1.5"/>
   </g>
   <g id="line2d_20">
    <path d="M 80.754545 369.36 
L 89.631818 361.4976 
L 98.509091 354.24 
L 107.386364 344.5632 
L 116.263636 340.3296 
L 125.140909 333.072 
L 134.018182 326.4192 
L 142.895455 318.5568 
L 151.772727 315.5328 
L 160.65 310.6944 
L 169.527273 304.6464 
L 178.404545 299.2032 
L 187.281818 293.76 
L 196.159091 288.3168 
L 205.036364 281.664 
L 213.913636 276.2208 
L 222.790909 270.7776 
L 231.668182 265.3344 
L 240.545455 261.1008 
L 249.422727 256.8672 
L 258.3 247.7952 
L 267.177273 241.1424 
L 276.054545 236.304 
L 284.931818 232.0704 
L 293.809091 229.6512 
L 302.686364 225.4176 
L 311.563636 219.3696 
L 320.440909 212.7168 
L 329.318182 209.6928 
L 338.195455 206.6688 
L 347.072727 204.8544 
L 355.95 203.6448 
L 364.827273 200.6208 
L 373.704545 196.992 
L 382.581818 194.5728 
L 391.459091 191.5488 
L 400.336364 186.7104 
L 409.213636 184.2912 
L 418.090909 181.2672 
L 426.968182 178.848 
L 435.845455 174.0096 
" clip-path="url(#p4898a7fe77)" style="fill: none; stroke: #d62728; stroke-width: 1.5; stroke-linecap: square"/>
   </g>
   <g id="line2d_21">
    <path d="M 80.754545 369.36 
L 89.631818 366.9408 
L 98.509091 365.7312 
L 107.386364 364.5216 
L 116.263636 363.312 
L 125.140909 361.4976 
L 134.018182 360.8928 
L 142.895455 360.288 
L 151.772727 359.0784 
L 160.65 358.4736 
L 169.527273 357.8688 
L 178.404545 357.8688 
L 187.281818 356.6592 
L 196.159091 356.0544 
L 205.036364 355.4496 
L 213.913636 355.4496 
L 222.790909 353.6352 
L 231.668182 352.4256 
L 240.545455 351.216 
L 249.422727 351.216 
L 258.3 350.0064 
L 267.177273 348.7968 
L 276.054545 348.192 
L 284.931818 346.9824 
L 293.809091 345.168 
L 302.686364 345.168 
L 311.563636 343.3536 
L 320.440909 340.9344 
L 329.318182 340.3296 
L 338.195455 339.7248 
L 347.072727 338.5152 
L 355.95 337.3056 
L 364.827273 336.096 
L 373.704545 335.4912 
L 382.581818 334.8864 
L 391.459091 333.072 
L 400.336364 332.4672 
L 409.213636 332.4672 
L 418.090909 332.4672 
L 426.968182 332.4672 
L 435.845455 330.6528 
" clip-path="url(#p4898a7fe77)" style="fill: none; stroke-dasharray: 5.55,2.4; stroke-dashoffset: 0; stroke: #9467bd; stroke-width: 1.5"/>
   </g>
   <g id="line2d_22">
    <path d="M 80.754545 369.36 
L 89.631818 366.336 
L 98.509091 362.7072 
L 107.386364 361.4976 
L 116.263636 358.4736 
L 125.140909 355.4496 
L 134.018182 354.8448 
L 142.895455 353.0304 
L 151.772727 348.7968 
L 160.65 347.5872 
L 169.527273 346.9824 
L 178.404545 344.5632 
L 187.281818 342.144 
L 196.159091 338.5152 
L 205.036364 336.7008 
L 213.913636 334.2816 
L 222.790909 330.6528 
L 231.668182 328.8384 
L 240.545455 322.7904 
L 249.422727 322.7904 
L 258.3 320.3712 
L 267.177273 315.5328 
L 276.054545 313.1136 
L 284.931818 311.904 
L 293.809091 311.2992 
L 302.686364 310.0896 
L 311.563636 307.0656 
L 320.440909 305.856 
L 329.318182 302.832 
L 338.195455 297.3888 
L 347.072727 291.3408 
L 355.95 291.3408 
L 364.827273 288.9216 
L 373.704545 287.712 
L 382.581818 285.8976 
L 391.459091 284.0832 
L 400.336364 282.8736 
L 409.213636 281.0592 
L 418.090909 277.4304 
L 426.968182 275.616 
L 435.845455 273.8016 
" clip-path="url(#p4898a7fe77)" style="fill: none; stroke: #9467bd; stroke-width: 1.5; stroke-linecap: square"/>
   </g>
   <g id="patch_3">
    <path d="M 63 384.48 
L 63 51.84 
" style="fill: none; stroke: #000000; stroke-width: 0.8; stroke-linejoin: miter; stroke-linecap: square"/>
   </g>
   <g id="patch_4">
    <path d="M 453.6 384.48 
L 453.6 51.84 
" style="fill: none; stroke: #000000; stroke-width: 0.8; stroke-linejoin: miter; stroke-linecap: square"/>
   </g>
   <g id="patch_5">
    <path d="M 63 384.48 
L 453.6 384.48 
" style="fill: none; stroke: #000000; stroke-width: 0.8; stroke-linejoin: miter; stroke-linecap: square"/>
   </g>
   <g id="patch_6">
    <path d="M 63 51.84 
L 453.6 51.84 
" style="fill: none; stroke: #000000; stroke-width: 0.8; stroke-linejoin: miter; stroke-linecap: square"/>
   </g>
   <g id="legend_1">
    <g id="patch_7">
     <path d="M 34.7 494.146 
L 481.9 494.146 
Q 485.1 494.146 485.1 490.946 
L 485.1 445.576 
Q 485.1 442.376 481.9 442.376 
L 34.7 442.376 
Q 31.5 442.376 31.5 445.576 
L 31.5 490.946 
Q 31.5 494.146 34.7 494.146 
z
" style="fill: #ffffff; opacity: 0.8; stroke: #cccccc; stroke-linejoin: miter"/>
    </g>
    <g id="line2d_23">
     <path style="fill: none; stroke: #1f77b4; stroke-width: 1.5; stroke-linecap: square"/>
    </g>
    <g id="text_15">
     <!-- $\sigma_t=$10nm -->
     <g transform="translate(82.7 460.9335) scale(0.16 -0.16)">
      <defs>
       <path id="DejaVuSans-Oblique-3c3" d="M 2219 3044 
Q 1744 3044 1422 2700 
Q 1081 2341 969 1747 
Q 844 1119 1044 756 
Q 1241 397 1706 397 
Q 2166 397 2503 759 
Q 2844 1122 2966 1747 
Q 3075 2319 2881 2700 
Q 2700 3044 2219 3044 
z
M 2309 3503 
L 4219 3500 
L 4106 2925 
L 3463 2925 
Q 3706 2438 3575 1747 
Q 3406 888 2884 400 
Q 2359 -91 1609 -91 
Q 856 -91 525 400 
Q 194 888 363 1747 
Q 528 2609 1050 3097 
Q 1484 3503 2309 3503 
z
" transform="scale(0.015625)"/>
       <path id="DejaVuSans-Oblique-74" d="M 2706 3500 
L 2619 3053 
L 1472 3053 
L 1100 1153 
Q 1081 1047 1072 975 
Q 1063 903 1063 863 
Q 1063 663 1183 572 
Q 1303 481 1569 481 
L 2150 481 
L 2053 0 
L 1503 0 
Q 991 0 739 200 
Q 488 400 488 806 
Q 488 878 497 964 
Q 506 1050 525 1153 
L 897 3053 
L 409 3053 
L 500 3500 
L 978 3500 
L 1172 4494 
L 1747 4494 
L 1556 3500 
L 2706 3500 
z
" transform="scale(0.015625)"/>
       <path id="DejaVuSans-3d" d="M 678 2906 
L 4684 2906 
L 4684 2381 
L 678 2381 
L 678 2906 
z
M 678 1631 
L 4684 1631 
L 4684 1100 
L 678 1100 
L 678 1631 
z
" transform="scale(0.015625)"/>
      </defs>
      <use xlink:href="#DejaVuSans-Oblique-3c3" transform="translate(0 0.78125)"/>
      <use xlink:href="#DejaVuSans-Oblique-74" transform="translate(63.378906 -15.625) scale(0.7)"/>
      <use xlink:href="#DejaVuSans-3d" transform="translate(113.041992 0.78125)"/>
      <use xlink:href="#DejaVuSans-31" transform="translate(216.313477 0.78125)"/>
      <use xlink:href="#DejaVuSans-30" transform="translate(279.936523 0.78125)"/>
      <use xlink:href="#DejaVuSans-6e" transform="translate(343.55957 0.78125)"/>
      <use xlink:href="#DejaVuSans-6d" transform="translate(406.938477 0.78125)"/>
     </g>
    </g>
    <g id="line2d_24">
     <path style="fill: none; stroke: #ff7f0e; stroke-width: 1.5; stroke-linecap: square"/>
    </g>
    <g id="text_16">
     <!-- $\sigma_t=$14nm -->
     <g transform="translate(82.7 484.4185) scale(0.16 -0.16)">
      <use xlink:href="#DejaVuSans-Oblique-3c3" transform="translate(0 0.09375)"/>
      <use xlink:href="#DejaVuSans-Oblique-74" transform="translate(63.378906 -16.3125) scale(0.7)"/>
      <use xlink:href="#DejaVuSans-3d" transform="translate(113.041992 0.09375)"/>
      <use xlink:href="#DejaVuSans-31" transform="translate(216.313477 0.09375)"/>
      <use xlink:href="#DejaVuSans-34" transform="translate(279.936523 0.09375)"/>
      <use xlink:href="#DejaVuSans-6e" transform="translate(343.55957 0.09375)"/>
      <use xlink:href="#DejaVuSans-6d" transform="translate(406.938477 0.09375)"/>
     </g>
    </g>
    <g id="line2d_25">
     <path style="fill: none; stroke: #2ca02c; stroke-width: 1.5; stroke-linecap: square"/>
    </g>
    <g id="text_17">
     <!-- $\sigma_t=$16nm -->
     <g transform="translate(240.3 460.9335) scale(0.16 -0.16)">
      <use xlink:href="#DejaVuSans-Oblique-3c3" transform="translate(0 0.78125)"/>
      <use xlink:href="#DejaVuSans-Oblique-74" transform="translate(63.378906 -15.625) scale(0.7)"/>
      <use xlink:href="#DejaVuSans-3d" transform="translate(113.041992 0.78125)"/>
      <use xlink:href="#DejaVuSans-31" transform="translate(216.313477 0.78125)"/>
      <use xlink:href="#DejaVuSans-36" transform="translate(279.936523 0.78125)"/>
      <use xlink:href="#DejaVuSans-6e" transform="translate(343.55957 0.78125)"/>
      <use xlink:href="#DejaVuSans-6d" transform="translate(406.938477 0.78125)"/>
     </g>
    </g>
    <g id="line2d_26">
     <path style="fill: none; stroke: #d62728; stroke-width: 1.5; stroke-linecap: square"/>
    </g>
    <g id="text_18">
     <!-- $\sigma_t=$18nm -->
     <g transform="translate(240.3 484.4185) scale(0.16 -0.16)">
      <use xlink:href="#DejaVuSans-Oblique-3c3" transform="translate(0 0.78125)"/>
      <use xlink:href="#DejaVuSans-Oblique-74" transform="translate(63.378906 -15.625) scale(0.7)"/>
      <use xlink:href="#DejaVuSans-3d" transform="translate(113.041992 0.78125)"/>
      <use xlink:href="#DejaVuSans-31" transform="translate(216.313477 0.78125)"/>
      <use xlink:href="#DejaVuSans-38" transform="translate(279.936523 0.78125)"/>
      <use xlink:href="#DejaVuSans-6e" transform="translate(343.55957 0.78125)"/>
      <use xlink:href="#DejaVuSans-6d" transform="translate(406.938477 0.78125)"/>
     </g>
    </g>
    <g id="line2d_27">
     <path style="fill: none; stroke: #9467bd; stroke-width: 1.5; stroke-linecap: square"/>
    </g>
    <g id="text_19">
     <!-- $\sigma_t=$20nm -->
     <g transform="translate(397.9 460.9335) scale(0.16 -0.16)">
      <use xlink:href="#DejaVuSans-Oblique-3c3" transform="translate(0 0.78125)"/>
      <use xlink:href="#DejaVuSans-Oblique-74" transform="translate(63.378906 -15.625) scale(0.7)"/>
      <use xlink:href="#DejaVuSans-3d" transform="translate(113.041992 0.78125)"/>
      <use xlink:href="#DejaVuSans-32" transform="translate(216.313477 0.78125)"/>
      <use xlink:href="#DejaVuSans-30" transform="translate(279.936523 0.78125)"/>
      <use xlink:href="#DejaVuSans-6e" transform="translate(343.55957 0.78125)"/>
      <use xlink:href="#DejaVuSans-6d" transform="translate(406.938477 0.78125)"/>
     </g>
    </g>
   </g>
  </g>
 </g>
 <defs>
  <clipPath id="p4898a7fe77">
   <rect x="63" y="51.84" width="390.6" height="332.64"/>
  </clipPath>
 </defs>
</svg>
