<?xml version="1.0" encoding="utf-8" standalone="no"?>
<!DOCTYPE svg PUBLIC "-//W3C//DTD SVG 1.1//EN"
  "http://www.w3.org/Graphics/SVG/1.1/DTD/svg11.dtd">
<svg xmlns:xlink="http://www.w3.org/1999/xlink" width="460.8pt" height="345.6pt" viewBox="0 0 460.8 345.6" xmlns="http://www.w3.org/2000/svg" version="1.1">
 <metadata>
  <rdf:RDF xmlns:dc="http://purl.org/dc/elements/1.1/" xmlns:cc="http://creativecommons.org/ns#" xmlns:rdf="http://www.w3.org/1999/02/22-rdf-syntax-ns#">
   <cc:Work>
    <dc:type rdf:resource="http://purl.org/dc/dcmitype/StillImage"/>
    <dc:date>2024-09-25T13:55:30.331457</dc:date>
    <dc:format>image/svg+xml</dc:format>
    <dc:creator>
     <cc:Agent>
      <dc:title>Matplotlib v3.8.2, https://matplotlib.org/</dc:title>
     </cc:Agent>
    </dc:creator>
   </cc:Work>
  </rdf:RDF>
 </metadata>
 <defs>
  <style type="text/css">*{stroke-linejoin: round; stroke-linecap: butt}</style>
 </defs>
 <g id="figure_1">
  <g id="patch_1">
   <path d="M 0 345.6 
L 460.8 345.6 
L 460.8 0 
L 0 0 
z
" style="fill: #ffffff"/>
  </g>
  <g id="axes_1">
   <g id="patch_2">
    <path d="M 57.6 307.584 
L 414.72 307.584 
L 414.72 41.472 
L 57.6 41.472 
z
" style="fill: #ffffff"/>
   </g>
   <g id="patch_3">
    <path d="M 57.6 307.584 
L 57.6 228.558147 
L 62.393557 228.558147 
L 62.393557 167.791832 
L 67.187114 167.791832 
L 67.187114 95.880084 
L 71.980671 95.880084 
L 71.980671 67.008674 
L 76.774228 67.008674 
L 76.774228 63.866611 
L 81.567785 63.866611 
L 81.567785 78.213389 
L 86.361342 78.213389 
L 86.361342 74.715621 
L 91.154899 74.715621 
L 91.154899 75.249179 
L 95.948456 75.249179 
L 95.948456 76.434863 
L 100.742013 76.434863 
L 100.742013 79.517642 
L 105.53557 79.517642 
L 105.53557 75.308463 
L 110.329128 75.308463 
L 110.329128 72.047832 
L 115.122685 72.047832 
L 115.122685 70.802863 
L 119.916242 70.802863 
L 119.916242 64.755874 
L 124.709799 64.755874 
L 124.709799 69.854316 
L 129.503356 69.854316 
L 129.503356 75.901305 
L 134.296913 75.901305 
L 134.296913 77.442695 
L 139.09047 77.442695 
L 139.09047 71.573558 
L 143.884027 71.573558 
L 143.884027 75.5456 
L 148.677584 75.5456 
L 148.677584 83.015411 
L 153.471141 83.015411 
L 153.471141 72.937095 
L 158.264698 72.937095 
L 158.264698 76.849853 
L 163.058255 76.849853 
L 163.058255 78.391242 
L 167.851812 78.391242 
L 167.851812 71.869979 
L 172.645369 71.869979 
L 172.645369 73.944926 
L 177.438926 73.944926 
L 177.438926 71.395705 
L 182.232483 71.395705 
L 182.232483 78.391242 
L 187.02604 78.391242 
L 187.02604 76.790568 
L 191.819597 76.790568 
L 191.819597 67.6608 
L 196.613154 67.6608 
L 196.613154 71.810695 
L 201.406711 71.810695 
L 201.406711 75.782737 
L 206.200268 75.782737 
L 206.200268 59.005305 
L 210.993826 59.005305 
L 210.993826 60.428126 
L 215.787383 60.428126 
L 215.787383 52.424758 
L 220.58094 52.424758 
L 220.58094 68.016505 
L 225.374497 68.016505 
L 225.374497 119.653053 
L 230.168054 119.653053 
L 230.168054 194.944 
L 234.961611 194.944 
L 234.961611 249.485474 
L 239.755168 249.485474 
L 239.755168 272.428463 
L 244.548725 272.428463 
L 244.548725 284.581726 
L 249.342282 284.581726 
L 249.342282 289.028042 
L 254.135839 289.028042 
L 254.135839 290.035874 
L 258.929396 290.035874 
L 258.929396 287.427368 
L 263.722953 287.427368 
L 263.722953 290.154442 
L 268.51651 290.154442 
L 268.51651 288.198063 
L 273.310067 288.198063 
L 273.310067 289.265179 
L 278.103624 289.265179 
L 278.103624 293.355789 
L 282.897181 293.355789 
L 282.897181 296.616421 
L 287.690738 296.616421 
L 287.690738 292.347958 
L 292.484295 292.347958 
L 292.484295 290.035874 
L 297.277852 290.035874 
L 297.277852 294.778611 
L 302.071409 294.778611 
L 302.071409 298.394947 
L 306.864966 298.394947 
L 306.864966 299.284211 
L 311.658523 299.284211 
L 311.658523 299.758484 
L 316.452081 299.758484 
L 316.452081 301.714863 
L 321.245638 301.714863 
L 321.245638 299.936337 
L 326.039195 299.936337 
L 326.039195 297.920674 
L 330.832752 297.920674 
L 330.832752 298.276379 
L 335.626309 298.276379 
L 335.626309 299.877053 
L 340.419866 299.877053 
L 340.419866 297.979958 
L 345.213423 297.979958 
L 345.213423 299.758484 
L 350.00698 299.758484 
L 350.00698 301.181305 
L 354.800537 301.181305 
L 354.800537 298.513516 
L 359.594094 298.513516 
L 359.594094 292.407242 
L 364.387651 292.407242 
L 364.387651 294.245053 
L 369.181208 294.245053 
L 369.181208 294.837895 
L 373.974765 294.837895 
L 373.974765 299.877053 
L 378.768322 299.877053 
L 378.768322 298.276379 
L 383.561879 298.276379 
L 383.561879 296.912842 
L 388.355436 296.912842 
L 388.355436 288.731621 
L 393.148993 288.731621 
L 393.148993 282.566063 
L 397.94255 282.566063 
L 397.94255 282.388211 
L 402.736107 282.388211 
L 402.736107 277.349053 
L 407.529664 277.349053 
L 407.529664 272.132042 
L 412.323221 272.132042 
L 412.323221 282.328926 
L 417.116779 282.328926 
L 417.116779 307.584 
L 417.116779 307.584 
" clip-path="url(#pe4242812fe)" style="fill: none; stroke: #1f77b4; stroke-linejoin: miter"/>
   </g>
   <g id="patch_4">
    <path d="M 57.6 307.584 
L 57.6 217.175579 
L 62.393557 217.175579 
L 62.393557 152.615074 
L 67.187114 152.615074 
L 67.187114 83.133979 
L 71.980671 83.133979 
L 71.980671 54.381137 
L 76.774228 54.381137 
L 76.774228 51.416926 
L 81.567785 51.416926 
L 81.567785 54.321853 
L 86.361342 54.321853 
L 86.361342 65.348716 
L 91.154899 65.348716 
L 91.154899 64.459453 
L 95.948456 64.459453 
L 95.948456 64.163032 
L 100.742013 64.163032 
L 100.742013 66.356547 
L 105.53557 66.356547 
L 105.53557 63.688758 
L 110.329128 63.688758 
L 110.329128 65.585853 
L 115.122685 65.585853 
L 115.122685 67.067958 
L 119.916242 67.067958 
L 119.916242 64.874442 
L 124.709799 64.874442 
L 124.709799 60.9024 
L 129.503356 60.9024 
L 129.503356 63.866611 
L 134.296913 63.866611 
L 134.296913 59.716716 
L 139.09047 59.716716 
L 139.09047 65.348716 
L 143.884027 65.348716 
L 143.884027 76.019874 
L 148.677584 76.019874 
L 148.677584 71.395705 
L 153.471141 71.395705 
L 153.471141 76.257011 
L 158.264698 76.257011 
L 158.264698 82.363284 
L 163.058255 82.363284 
L 163.058255 84.319663 
L 167.851812 84.319663 
L 167.851812 89.0624 
L 172.645369 89.0624 
L 172.645369 85.031074 
L 177.438926 85.031074 
L 177.438926 76.790568 
L 182.232483 76.790568 
L 182.232483 72.877811 
L 187.02604 72.877811 
L 187.02604 79.873347 
L 191.819597 79.873347 
L 191.819597 81.770442 
L 196.613154 81.770442 
L 196.613154 88.825263 
L 201.406711 88.825263 
L 201.406711 84.912505 
L 206.200268 84.912505 
L 206.200268 88.469558 
L 210.993826 88.469558 
L 210.993826 84.912505 
L 215.787383 84.912505 
L 215.787383 79.280505 
L 220.58094 79.280505 
L 220.58094 103.349895 
L 225.374497 103.349895 
L 225.374497 158.543495 
L 230.168054 158.543495 
L 230.168054 219.191242 
L 234.961611 219.191242 
L 234.961611 259.800926 
L 239.755168 259.800926 
L 239.755168 283.396042 
L 244.548725 283.396042 
L 244.548725 290.569432 
L 249.342282 290.569432 
L 249.342282 294.897179 
L 254.135839 294.897179 
L 254.135839 292.644379 
L 258.929396 292.644379 
L 258.929396 290.865853 
L 263.722953 290.865853 
L 263.722953 284.641011 
L 268.51651 284.641011 
L 268.51651 286.1824 
L 273.310067 286.1824 
L 273.310067 285.115284 
L 278.103624 285.115284 
L 278.103624 284.581726 
L 282.897181 284.581726 
L 282.897181 284.048168 
L 287.690738 284.048168 
L 287.690738 289.028042 
L 292.484295 289.028042 
L 292.484295 292.170105 
L 297.277852 292.170105 
L 297.277852 292.703663 
L 302.071409 292.703663 
L 302.071409 288.375916 
L 306.864966 288.375916 
L 306.864966 294.185768 
L 311.658523 294.185768 
L 311.658523 296.201432 
L 316.452081 296.201432 
L 316.452081 295.845726 
L 321.245638 295.845726 
L 321.245638 297.327832 
L 326.039195 297.327832 
L 326.039195 298.691368 
L 330.832752 298.691368 
L 330.832752 298.394947 
L 335.626309 298.394947 
L 335.626309 296.142147 
L 340.419866 296.142147 
L 340.419866 293.474358 
L 345.213423 293.474358 
L 345.213423 296.201432 
L 350.00698 296.201432 
L 350.00698 295.252884 
L 354.800537 295.252884 
L 354.800537 294.897179 
L 359.594094 294.897179 
L 359.594094 290.450863 
L 364.387651 290.450863 
L 364.387651 286.775242 
L 369.181208 286.775242 
L 369.181208 283.751747 
L 373.974765 283.751747 
L 373.974765 284.107453 
L 378.768322 284.107453 
L 378.768322 287.960926 
L 383.561879 287.960926 
L 383.561879 293.415074 
L 393.148993 293.415074 
L 393.148993 290.213726 
L 397.94255 290.213726 
L 397.94255 290.332295 
L 402.736107 290.332295 
L 402.736107 287.249516 
L 407.529664 287.249516 
L 407.529664 280.906105 
L 412.323221 280.906105 
L 412.323221 284.285305 
L 417.116779 284.285305 
L 417.116779 307.584 
L 417.116779 307.584 
" clip-path="url(#pe4242812fe)" style="fill: none; stroke: #ff7f0e; stroke-linejoin: miter"/>
   </g>
   <g id="patch_5">
    <path d="M 57.6 307.584 
L 57.6 228.202442 
L 62.393557 228.202442 
L 62.393557 179.233684 
L 67.187114 179.233684 
L 67.187114 115.977432 
L 71.980671 115.977432 
L 71.980671 84.201095 
L 76.774228 84.201095 
L 76.774228 89.358821 
L 81.567785 89.358821 
L 81.567785 84.793937 
L 86.361342 84.793937 
L 86.361342 79.932632 
L 91.154899 79.932632 
L 91.154899 83.311832 
L 95.948456 83.311832 
L 95.948456 90.840926 
L 100.742013 90.840926 
L 100.742013 86.038905 
L 105.53557 86.038905 
L 105.53557 77.205558 
L 110.329128 77.205558 
L 110.329128 83.311832 
L 115.122685 83.311832 
L 115.122685 84.734653 
L 119.916242 84.734653 
L 119.916242 75.012042 
L 124.709799 75.012042 
L 124.709799 82.778274 
L 129.503356 82.778274 
L 129.503356 80.525474 
L 134.296913 80.525474 
L 134.296913 77.561263 
L 139.09047 77.561263 
L 139.09047 72.937095 
L 143.884027 72.937095 
L 143.884027 75.308463 
L 148.677584 75.308463 
L 148.677584 64.637305 
L 153.471141 64.637305 
L 153.471141 71.277137 
L 158.264698 71.277137 
L 158.264698 65.408 
L 163.058255 65.408 
L 163.058255 66.771537 
L 167.851812 66.771537 
L 167.851812 61.317389 
L 177.438926 61.317389 
L 177.438926 67.364379 
L 182.232483 67.364379 
L 182.232483 58.946021 
L 187.02604 58.946021 
L 187.02604 57.108211 
L 191.819597 57.108211 
L 191.819597 57.819621 
L 196.613154 57.819621 
L 196.613154 59.420295 
L 201.406711 59.420295 
L 201.406711 68.965053 
L 206.200268 68.965053 
L 206.200268 65.822989 
L 210.993826 65.822989 
L 210.993826 58.827453 
L 215.787383 58.827453 
L 215.787383 66.5344 
L 220.58094 66.5344 
L 220.58094 91.848758 
L 225.374497 91.848758 
L 225.374497 148.702316 
L 230.168054 148.702316 
L 230.168054 211.247158 
L 234.961611 211.247158 
L 234.961611 254.821053 
L 239.755168 254.821053 
L 239.755168 275.807663 
L 244.548725 275.807663 
L 244.548725 288.257347 
L 249.342282 288.257347 
L 249.342282 290.628716 
L 258.929396 290.569432 
L 258.929396 292.822232 
L 263.722953 292.822232 
L 263.722953 292.585095 
L 268.51651 292.585095 
L 268.51651 291.340126 
L 273.310067 291.340126 
L 273.310067 288.553768 
L 278.103624 288.553768 
L 278.103624 284.344589 
L 282.897181 284.344589 
L 282.897181 284.226021 
L 287.690738 284.226021 
L 287.690738 288.375916 
L 292.484295 288.375916 
L 292.484295 288.672337 
L 297.277852 288.672337 
L 297.277852 290.273011 
L 302.071409 290.273011 
L 302.071409 289.502316 
L 306.864966 289.502316 
L 306.864966 291.577263 
L 311.658523 291.577263 
L 311.658523 292.703663 
L 316.452081 292.703663 
L 316.452081 291.8144 
L 321.245638 291.8144 
L 321.245638 292.288674 
L 326.039195 292.288674 
L 326.039195 290.391579 
L 330.832752 290.391579 
L 330.832752 291.992253 
L 335.626309 291.992253 
L 335.626309 290.510147 
L 340.419866 290.510147 
L 340.419866 289.324463 
L 345.213423 289.324463 
L 345.213423 290.273011 
L 350.00698 290.273011 
L 350.00698 290.747284 
L 354.800537 290.747284 
L 354.800537 290.569432 
L 359.594094 290.569432 
L 359.594094 289.858021 
L 364.387651 289.858021 
L 364.387651 285.174568 
L 373.974765 285.115284 
L 373.974765 286.419537 
L 378.768322 286.419537 
L 378.768322 290.450863 
L 383.561879 290.450863 
L 383.561879 291.340126 
L 388.355436 291.340126 
L 388.355436 291.8144 
L 393.148993 291.8144 
L 393.148993 293.177937 
L 397.94255 293.177937 
L 397.94255 294.245053 
L 402.736107 294.245053 
L 402.736107 287.249516 
L 407.529664 287.249516 
L 407.529664 272.013474 
L 412.323221 272.013474 
L 412.323221 281.736084 
L 417.116779 281.736084 
L 417.116779 307.584 
L 417.116779 307.584 
" clip-path="url(#pe4242812fe)" style="fill: none; stroke: #2ca02c; stroke-linejoin: miter"/>
   </g>
   <g id="patch_6">
    <path d="M 57.6 307.584 
L 57.6 217.649853 
L 62.393557 217.649853 
L 62.393557 140.936084 
L 67.187114 140.936084 
L 67.187114 81.889011 
L 71.980671 81.889011 
L 71.980671 57.463916 
L 76.774228 57.463916 
L 76.774228 53.729011 
L 81.567785 53.729011 
L 81.567785 59.361011 
L 86.361342 59.361011 
L 86.361342 66.000842 
L 91.154899 66.000842 
L 91.154899 67.957221 
L 95.948456 67.957221 
L 95.948456 71.099284 
L 100.742013 71.099284 
L 100.742013 67.423663 
L 105.53557 67.423663 
L 105.53557 79.458358 
L 110.329128 79.458358 
L 110.329128 74.537768 
L 115.122685 74.537768 
L 115.122685 78.035537 
L 119.916242 78.035537 
L 119.916242 71.810695 
L 124.709799 71.810695 
L 124.709799 77.739116 
L 129.503356 77.739116 
L 129.503356 67.897937 
L 134.296913 67.897937 
L 134.296913 71.217853 
L 139.09047 71.217853 
L 139.09047 71.869979 
L 143.884027 71.869979 
L 143.884027 66.178695 
L 148.677584 66.178695 
L 148.677584 64.696589 
L 153.471141 64.696589 
L 153.471141 65.822989 
L 158.264698 65.822989 
L 158.264698 65.941558 
L 163.058255 65.941558 
L 163.058255 70.032168 
L 167.851812 70.032168 
L 167.851812 66.178695 
L 172.645369 66.178695 
L 172.645369 76.672 
L 177.438926 76.672 
L 177.438926 72.581389 
L 182.232483 72.581389 
L 182.232483 79.161937 
L 187.02604 79.161937 
L 187.02604 72.640674 
L 191.819597 72.640674 
L 191.819597 76.197726 
L 196.613154 76.197726 
L 196.613154 75.130611 
L 201.406711 75.130611 
L 201.406711 83.252547 
L 206.200268 83.252547 
L 206.200268 85.031074 
L 210.993826 85.031074 
L 210.993826 77.561263 
L 215.787383 77.561263 
L 215.787383 78.865516 
L 220.58094 78.865516 
L 220.58094 88.528842 
L 225.374497 88.528842 
L 225.374497 154.3936 
L 230.168054 154.3936 
L 230.168054 212.788547 
L 234.961611 212.788547 
L 234.961611 258.081684 
L 239.755168 258.081684 
L 239.755168 282.032505 
L 244.548725 282.032505 
L 244.548725 291.043705 
L 249.342282 291.043705 
L 249.342282 291.458695 
L 254.135839 291.458695 
L 254.135839 289.443032 
L 258.929396 289.443032 
L 258.929396 285.174568 
L 263.722953 285.174568 
L 263.722953 286.419537 
L 268.51651 286.419537 
L 268.51651 288.079495 
L 273.310067 288.079495 
L 273.310067 288.790905 
L 278.103624 288.790905 
L 278.103624 289.087326 
L 282.897181 289.087326 
L 282.897181 290.391579 
L 287.690738 290.391579 
L 287.690738 286.834526 
L 292.484295 286.834526 
L 292.484295 283.988884 
L 297.277852 283.988884 
L 297.277852 284.878147 
L 302.071409 284.878147 
L 302.071409 288.375916 
L 306.864966 288.375916 
L 306.864966 290.569432 
L 311.658523 290.569432 
L 311.658523 292.585095 
L 316.452081 292.585095 
L 316.452081 295.964295 
L 321.245638 295.964295 
L 321.245638 297.564968 
L 326.039195 297.564968 
L 326.039195 294.897179 
L 330.832752 294.897179 
L 330.832752 296.379284 
L 335.626309 296.379284 
L 335.626309 296.082863 
L 340.419866 296.082863 
L 340.419866 298.454232 
L 345.213423 298.454232 
L 345.213423 295.430737 
L 350.00698 295.430737 
L 350.00698 297.861389 
L 354.800537 297.861389 
L 354.800537 296.201432 
L 359.594094 296.201432 
L 359.594094 295.608589 
L 364.387651 295.608589 
L 364.387651 296.379284 
L 369.181208 296.379284 
L 369.181208 296.616421 
L 373.974765 296.616421 
L 373.974765 297.327832 
L 378.768322 297.327832 
L 378.768322 297.979958 
L 383.561879 297.979958 
L 383.561879 297.209263 
L 388.355436 297.209263 
L 388.355436 295.786442 
L 397.94255 295.845726 
L 397.94255 296.023579 
L 402.736107 296.023579 
L 402.736107 292.170105 
L 407.529664 292.170105 
L 407.529664 284.166737 
L 412.323221 284.166737 
L 412.323221 287.249516 
L 417.116779 287.249516 
L 417.116779 307.584 
L 417.116779 307.584 
" clip-path="url(#pe4242812fe)" style="fill: none; stroke: #d62728; stroke-linejoin: miter"/>
   </g>
   <g id="patch_7">
    <path d="M 57.6 307.584 
L 57.6 226.898189 
L 62.393557 226.898189 
L 62.393557 163.879074 
L 67.187114 163.879074 
L 67.187114 109.693305 
L 71.980671 109.693305 
L 71.980671 74.715621 
L 76.774228 74.715621 
L 76.774228 86.750316 
L 81.567785 86.750316 
L 81.567785 74.834189 
L 86.361342 74.834189 
L 86.361342 78.331958 
L 91.154899 78.331958 
L 91.154899 75.427032 
L 95.948456 75.427032 
L 95.948456 67.186526 
L 100.742013 67.186526 
L 100.742013 69.024337 
L 105.53557 69.024337 
L 105.53557 75.5456 
L 110.329128 75.5456 
L 110.329128 68.016505 
L 115.122685 68.016505 
L 115.122685 78.984084 
L 119.916242 78.984084 
L 119.916242 76.197726 
L 124.709799 76.197726 
L 124.709799 73.826358 
L 129.503356 73.826358 
L 129.503356 81.770442 
L 134.296913 81.770442 
L 134.296913 71.395705 
L 139.09047 71.395705 
L 139.09047 68.668632 
L 143.884027 68.668632 
L 143.884027 68.253642 
L 148.677584 68.253642 
L 148.677584 60.309558 
L 153.471141 60.309558 
L 153.471141 65.467284 
L 158.264698 65.467284 
L 158.264698 68.846484 
L 163.058255 68.846484 
L 163.058255 62.799495 
L 167.851812 62.799495 
L 167.851812 68.965053 
L 172.645369 68.965053 
L 172.645369 73.767074 
L 177.438926 73.767074 
L 177.438926 70.743579 
L 182.232483 70.743579 
L 182.232483 74.597053 
L 187.02604 74.597053 
L 187.02604 72.996379 
L 191.819597 72.996379 
L 191.819597 76.612716 
L 196.613154 76.612716 
L 196.613154 69.854316 
L 201.406711 69.854316 
L 201.406711 75.071326 
L 206.200268 75.071326 
L 206.200268 64.993011 
L 210.993826 64.993011 
L 210.993826 75.901305 
L 215.787383 75.901305 
L 215.787383 57.938189 
L 220.58094 57.938189 
L 220.58094 79.043368 
L 225.374497 79.043368 
L 225.374497 136.134063 
L 230.168054 136.134063 
L 230.168054 207.156547 
L 234.961611 207.156547 
L 234.961611 253.161095 
L 239.755168 253.161095 
L 239.755168 281.321095 
L 244.548725 281.321095 
L 244.548725 289.324463 
L 249.342282 289.324463 
L 249.342282 293.059368 
L 254.135839 293.059368 
L 254.135839 293.889347 
L 258.929396 293.889347 
L 258.929396 293.652211 
L 263.722953 293.652211 
L 263.722953 293.415074 
L 268.51651 293.415074 
L 268.51651 291.577263 
L 273.310067 291.577263 
L 273.310067 292.762947 
L 278.103624 292.762947 
L 278.103624 293.118653 
L 282.897181 293.118653 
L 282.897181 296.675705 
L 287.690738 296.675705 
L 287.690738 297.387116 
L 292.484295 297.387116 
L 292.484295 295.845726 
L 297.277852 295.845726 
L 297.277852 296.972126 
L 302.071409 296.972126 
L 302.071409 293.177937 
L 306.864966 293.177937 
L 306.864966 292.762947 
L 311.658523 292.762947 
L 311.658523 293.059368 
L 316.452081 293.059368 
L 316.452081 292.229389 
L 321.245638 292.229389 
L 321.245638 294.482189 
L 326.039195 294.482189 
L 326.039195 294.897179 
L 330.832752 294.897179 
L 330.832752 296.142147 
L 335.626309 296.142147 
L 335.626309 296.023579 
L 340.419866 296.023579 
L 340.419866 294.600758 
L 345.213423 294.600758 
L 345.213423 293.355789 
L 350.00698 293.355789 
L 350.00698 292.229389 
L 354.800537 292.229389 
L 354.800537 293.000084 
L 359.594094 293.000084 
L 359.594094 294.719326 
L 364.387651 294.719326 
L 364.387651 295.905011 
L 369.181208 295.905011 
L 369.181208 295.312168 
L 378.768322 295.312168 
L 378.768322 291.8144 
L 383.561879 291.8144 
L 383.561879 289.265179 
L 388.355436 289.265179 
L 388.355436 285.470989 
L 393.148993 285.470989 
L 393.148993 282.388211 
L 397.94255 282.388211 
L 397.94255 285.411705 
L 402.736107 285.411705 
L 402.736107 281.261811 
L 407.529664 281.261811 
L 407.529664 266.440758 
L 412.323221 266.440758 
L 412.323221 274.147705 
L 417.116779 274.147705 
L 417.116779 307.584 
L 417.116779 307.584 
" clip-path="url(#pe4242812fe)" style="fill: none; stroke: #9467bd; stroke-linejoin: miter"/>
   </g>
   <g id="patch_8">
    <path d="M 57.6 307.584 
L 57.6 224.526821 
L 62.393557 224.526821 
L 62.393557 161.626274 
L 67.187114 161.626274 
L 67.187114 109.278316 
L 71.980671 109.278316 
L 71.980671 80.110484 
L 76.774228 80.110484 
L 76.774228 82.363284 
L 81.567785 82.363284 
L 81.567785 78.213389 
L 86.361342 78.213389 
L 86.361342 70.565726 
L 91.154899 70.565726 
L 91.154899 66.593684 
L 95.948456 66.593684 
L 95.948456 59.064589 
L 100.742013 59.064589 
L 100.742013 65.348716 
L 105.53557 65.348716 
L 105.53557 67.245811 
L 110.329128 67.245811 
L 110.329128 71.514274 
L 115.122685 71.514274 
L 115.122685 77.264842 
L 119.916242 77.264842 
L 119.916242 65.170863 
L 124.709799 65.170863 
L 124.709799 68.550063 
L 129.503356 68.550063 
L 129.503356 62.562358 
L 134.296913 62.562358 
L 134.296913 69.617179 
L 139.09047 69.617179 
L 139.09047 67.542232 
L 143.884027 67.542232 
L 143.884027 70.862147 
L 148.677584 70.862147 
L 148.677584 75.012042 
L 153.471141 75.012042 
L 153.471141 69.202189 
L 158.264698 69.202189 
L 158.264698 60.843116 
L 163.058255 60.843116 
L 163.058255 73.885642 
L 167.851812 73.885642 
L 167.851812 66.060126 
L 172.645369 66.060126 
L 172.645369 63.392337 
L 177.438926 63.392337 
L 177.438926 69.854316 
L 182.232483 69.854316 
L 182.232483 62.265937 
L 187.02604 62.265937 
L 187.02604 57.641768 
L 191.819597 57.641768 
L 191.819597 66.652968 
L 196.613154 66.652968 
L 196.613154 69.320758 
L 201.406711 69.320758 
L 201.406711 65.585853 
L 206.200268 65.585853 
L 206.200268 73.589221 
L 210.993826 73.589221 
L 210.993826 66.297263 
L 215.787383 66.297263 
L 215.787383 68.075789 
L 220.58094 68.075789 
L 220.58094 79.576926 
L 225.374497 79.576926 
L 225.374497 142.596042 
L 230.168054 142.596042 
L 230.168054 208.223663 
L 234.961611 208.223663 
L 234.961611 254.050358 
L 239.755168 254.050358 
L 239.755168 277.289768 
L 244.548725 277.289768 
L 244.548725 288.316632 
L 249.342282 288.316632 
L 249.342282 292.051537 
L 254.135839 292.051537 
L 254.135839 292.407242 
L 258.929396 292.407242 
L 258.929396 291.873684 
L 263.722953 291.873684 
L 263.722953 293.355789 
L 268.51651 293.355789 
L 268.51651 291.755116 
L 273.310067 291.755116 
L 273.310067 291.102989 
L 278.103624 291.102989 
L 278.103624 290.865853 
L 282.897181 290.865853 
L 282.897181 292.051537 
L 287.690738 292.051537 
L 287.690738 291.340126 
L 292.484295 291.340126 
L 292.484295 291.577263 
L 297.277852 291.577263 
L 297.277852 293.592926 
L 306.864966 293.652211 
L 306.864966 293.889347 
L 311.658523 293.889347 
L 311.658523 292.822232 
L 316.452081 292.822232 
L 316.452081 292.407242 
L 321.245638 292.407242 
L 321.245638 291.280842 
L 326.039195 291.280842 
L 326.039195 292.9408 
L 330.832752 292.9408 
L 330.832752 291.280842 
L 335.626309 291.280842 
L 335.626309 291.458695 
L 340.419866 291.458695 
L 340.419866 293.118653 
L 345.213423 293.118653 
L 345.213423 293.000084 
L 350.00698 293.000084 
L 350.00698 293.948632 
L 354.800537 293.948632 
L 354.800537 296.082863 
L 359.594094 296.082863 
L 359.594094 296.32 
L 364.387651 296.32 
L 364.387651 296.497853 
L 369.181208 296.497853 
L 369.181208 298.809937 
L 373.974765 298.809937 
L 373.974765 298.157811 
L 378.768322 298.157811 
L 378.768322 297.564968 
L 383.561879 297.564968 
L 383.561879 299.165642 
L 388.355436 299.165642 
L 388.355436 300.054905 
L 393.148993 300.054905 
L 393.148993 301.122021 
L 397.94255 301.122021 
L 397.94255 300.766316 
L 402.736107 300.766316 
L 402.736107 298.039242 
L 407.529664 298.039242 
L 407.529664 290.569432 
L 412.323221 290.569432 
L 412.323221 295.490021 
L 417.116779 295.490021 
L 417.116779 307.584 
L 417.116779 307.584 
" clip-path="url(#pe4242812fe)" style="fill: none; stroke: #8c564b; stroke-linejoin: miter"/>
   </g>
   <g id="patch_9">
    <path d="M 57.6 307.584 
L 57.6 225.712505 
L 62.393557 225.712505 
L 62.393557 151.429389 
L 67.187114 151.429389 
L 67.187114 88.884547 
L 71.980671 88.884547 
L 71.980671 70.802863 
L 76.774228 70.802863 
L 76.774228 71.988547 
L 81.567785 71.988547 
L 81.567785 72.344253 
L 86.361342 72.344253 
L 86.361342 71.454989 
L 91.154899 71.454989 
L 91.154899 71.336421 
L 95.948456 71.336421 
L 95.948456 65.526568 
L 100.742013 65.526568 
L 100.742013 54.144 
L 105.53557 54.144 
L 105.53557 62.977347 
L 110.329128 62.977347 
L 110.329128 60.131705 
L 115.122685 60.131705 
L 115.122685 67.601516 
L 119.916242 67.601516 
L 119.916242 62.443789 
L 124.709799 62.443789 
L 124.709799 70.150737 
L 129.503356 70.150737 
L 129.503356 79.517642 
L 134.296913 79.517642 
L 134.296913 80.406905 
L 139.09047 80.406905 
L 139.09047 75.071326 
L 143.884027 75.071326 
L 143.884027 77.7984 
L 148.677584 77.7984 
L 148.677584 73.885642 
L 153.471141 73.885642 
L 153.471141 79.399074 
L 158.264698 79.399074 
L 158.264698 85.861053 
L 163.058255 85.861053 
L 163.058255 87.580295 
L 167.851812 87.580295 
L 167.851812 80.703326 
L 172.645369 80.703326 
L 172.645369 74.241347 
L 177.438926 74.241347 
L 177.438926 82.066863 
L 182.232483 82.066863 
L 182.232483 73.352084 
L 187.02604 73.352084 
L 187.02604 71.04 
L 191.819597 71.04 
L 191.819597 73.529937 
L 196.613154 73.529937 
L 196.613154 76.138442 
L 201.406711 76.138442 
L 201.406711 77.383411 
L 206.200268 77.383411 
L 206.200268 86.335326 
L 210.993826 86.335326 
L 210.993826 94.397979 
L 215.787383 94.397979 
L 215.787383 95.8208 
L 220.58094 95.8208 
L 220.58094 109.456168 
L 225.374497 109.456168 
L 225.374497 155.282863 
L 230.168054 155.282863 
L 230.168054 214.0928 
L 234.961611 214.0928 
L 234.961611 256.362442 
L 239.755168 256.362442 
L 239.755168 277.764042 
L 244.548725 277.764042 
L 244.548725 288.850189 
L 249.342282 288.850189 
L 249.342282 292.288674 
L 254.135839 292.288674 
L 254.135839 291.340126 
L 258.929396 291.340126 
L 258.929396 288.257347 
L 263.722953 288.257347 
L 263.722953 289.265179 
L 268.51651 289.265179 
L 268.51651 290.984421 
L 273.310067 290.984421 
L 273.310067 290.806568 
L 278.103624 290.806568 
L 278.103624 290.510147 
L 282.897181 290.510147 
L 282.897181 290.628716 
L 287.690738 290.628716 
L 287.690738 289.976589 
L 292.484295 289.976589 
L 292.484295 290.213726 
L 297.277852 290.213726 
L 297.277852 289.205895 
L 302.071409 289.205895 
L 302.071409 287.901642 
L 306.864966 287.901642 
L 306.864966 290.391579 
L 311.658523 290.391579 
L 311.658523 289.028042 
L 316.452081 289.028042 
L 316.452081 287.783074 
L 321.245638 287.783074 
L 321.245638 288.968758 
L 326.039195 288.968758 
L 326.039195 288.790905 
L 330.832752 288.790905 
L 330.832752 288.198063 
L 335.626309 288.198063 
L 335.626309 289.205895 
L 340.419866 289.205895 
L 340.419866 286.538105 
L 345.213423 286.538105 
L 345.213423 287.427368 
L 350.00698 287.427368 
L 350.00698 287.664505 
L 354.800537 287.664505 
L 354.800537 287.427368 
L 359.594094 287.427368 
L 359.594094 286.241684 
L 364.387651 286.241684 
L 364.387651 286.004547 
L 369.181208 286.004547 
L 369.181208 283.811032 
L 373.974765 283.811032 
L 373.974765 287.071663 
L 378.768322 287.071663 
L 378.768322 284.937432 
L 383.561879 284.937432 
L 383.561879 286.656674 
L 388.355436 286.656674 
L 388.355436 288.198063 
L 393.148993 288.198063 
L 393.148993 289.858021 
L 397.94255 289.858021 
L 397.94255 292.170105 
L 402.736107 292.170105 
L 402.736107 289.265179 
L 407.529664 289.265179 
L 407.529664 271.954189 
L 412.323221 271.954189 
L 412.323221 283.9296 
L 417.116779 283.9296 
L 417.116779 307.584 
L 417.116779 307.584 
" clip-path="url(#pe4242812fe)" style="fill: none; stroke: #e377c2; stroke-linejoin: miter"/>
   </g>
   <g id="matplotlib.axis_1">
    <g id="xtick_1">
     <g id="line2d_1">
      <defs>
       <path id="m774f49177c" d="M 0 0 
L 0 3.5 
" style="stroke: #000000; stroke-width: 0.8"/>
      </defs>
      <g>
       <use xlink:href="#m774f49177c" x="57.6" y="307.584" style="stroke: #000000; stroke-width: 0.8"/>
      </g>
     </g>
     <g id="text_1">
      <!-- 0.00 -->
      <g transform="translate(39.7875 326.7415) scale(0.16 -0.16)">
       <defs>
        <path id="DejaVuSans-30" d="M 2034 4250 
Q 1547 4250 1301 3770 
Q 1056 3291 1056 2328 
Q 1056 1369 1301 889 
Q 1547 409 2034 409 
Q 2525 409 2770 889 
Q 3016 1369 3016 2328 
Q 3016 3291 2770 3770 
Q 2525 4250 2034 4250 
z
M 2034 4750 
Q 2819 4750 3233 4129 
Q 3647 3509 3647 2328 
Q 3647 1150 3233 529 
Q 2819 -91 2034 -91 
Q 1250 -91 836 529 
Q 422 1150 422 2328 
Q 422 3509 836 4129 
Q 1250 4750 2034 4750 
z
" transform="scale(0.015625)"/>
        <path id="DejaVuSans-2e" d="M 684 794 
L 1344 794 
L 1344 0 
L 684 0 
L 684 794 
z
" transform="scale(0.015625)"/>
       </defs>
       <use xlink:href="#DejaVuSans-30"/>
       <use xlink:href="#DejaVuSans-2e" x="63.623047"/>
       <use xlink:href="#DejaVuSans-30" x="95.410156"/>
       <use xlink:href="#DejaVuSans-30" x="159.033203"/>
      </g>
     </g>
    </g>
    <g id="xtick_2">
     <g id="line2d_2">
      <g>
       <use xlink:href="#m774f49177c" x="117.519463" y="307.584" style="stroke: #000000; stroke-width: 0.8"/>
      </g>
     </g>
     <g id="text_2">
      <!-- 0.05 -->
      <g transform="translate(99.706963 326.7415) scale(0.16 -0.16)">
       <defs>
        <path id="DejaVuSans-35" d="M 691 4666 
L 3169 4666 
L 3169 4134 
L 1269 4134 
L 1269 2991 
Q 1406 3038 1543 3061 
Q 1681 3084 1819 3084 
Q 2600 3084 3056 2656 
Q 3513 2228 3513 1497 
Q 3513 744 3044 326 
Q 2575 -91 1722 -91 
Q 1428 -91 1123 -41 
Q 819 9 494 109 
L 494 744 
Q 775 591 1075 516 
Q 1375 441 1709 441 
Q 2250 441 2565 725 
Q 2881 1009 2881 1497 
Q 2881 1984 2565 2268 
Q 2250 2553 1709 2553 
Q 1456 2553 1204 2497 
Q 953 2441 691 2322 
L 691 4666 
z
" transform="scale(0.015625)"/>
       </defs>
       <use xlink:href="#DejaVuSans-30"/>
       <use xlink:href="#DejaVuSans-2e" x="63.623047"/>
       <use xlink:href="#DejaVuSans-30" x="95.410156"/>
       <use xlink:href="#DejaVuSans-35" x="159.033203"/>
      </g>
     </g>
    </g>
    <g id="xtick_3">
     <g id="line2d_3">
      <g>
       <use xlink:href="#m774f49177c" x="177.438926" y="307.584" style="stroke: #000000; stroke-width: 0.8"/>
      </g>
     </g>
     <g id="text_3">
      <!-- 0.10 -->
      <g transform="translate(159.626426 326.7415) scale(0.16 -0.16)">
       <defs>
        <path id="DejaVuSans-31" d="M 794 531 
L 1825 531 
L 1825 4091 
L 703 3866 
L 703 4441 
L 1819 4666 
L 2450 4666 
L 2450 531 
L 3481 531 
L 3481 0 
L 794 0 
L 794 531 
z
" transform="scale(0.015625)"/>
       </defs>
       <use xlink:href="#DejaVuSans-30"/>
       <use xlink:href="#DejaVuSans-2e" x="63.623047"/>
       <use xlink:href="#DejaVuSans-31" x="95.410156"/>
       <use xlink:href="#DejaVuSans-30" x="159.033203"/>
      </g>
     </g>
    </g>
    <g id="xtick_4">
     <g id="line2d_4">
      <g>
       <use xlink:href="#m774f49177c" x="237.358389" y="307.584" style="stroke: #000000; stroke-width: 0.8"/>
      </g>
     </g>
     <g id="text_4">
      <!-- 0.15 -->
      <g transform="translate(219.545889 326.7415) scale(0.16 -0.16)">
       <use xlink:href="#DejaVuSans-30"/>
       <use xlink:href="#DejaVuSans-2e" x="63.623047"/>
       <use xlink:href="#DejaVuSans-31" x="95.410156"/>
       <use xlink:href="#DejaVuSans-35" x="159.033203"/>
      </g>
     </g>
    </g>
    <g id="xtick_5">
     <g id="line2d_5">
      <g>
       <use xlink:href="#m774f49177c" x="297.277852" y="307.584" style="stroke: #000000; stroke-width: 0.8"/>
      </g>
     </g>
     <g id="text_5">
      <!-- 0.20 -->
      <g transform="translate(279.465352 326.7415) scale(0.16 -0.16)">
       <defs>
        <path id="DejaVuSans-32" d="M 1228 531 
L 3431 531 
L 3431 0 
L 469 0 
L 469 531 
Q 828 903 1448 1529 
Q 2069 2156 2228 2338 
Q 2531 2678 2651 2914 
Q 2772 3150 2772 3378 
Q 2772 3750 2511 3984 
Q 2250 4219 1831 4219 
Q 1534 4219 1204 4116 
Q 875 4013 500 3803 
L 500 4441 
Q 881 4594 1212 4672 
Q 1544 4750 1819 4750 
Q 2544 4750 2975 4387 
Q 3406 4025 3406 3419 
Q 3406 3131 3298 2873 
Q 3191 2616 2906 2266 
Q 2828 2175 2409 1742 
Q 1991 1309 1228 531 
z
" transform="scale(0.015625)"/>
       </defs>
       <use xlink:href="#DejaVuSans-30"/>
       <use xlink:href="#DejaVuSans-2e" x="63.623047"/>
       <use xlink:href="#DejaVuSans-32" x="95.410156"/>
       <use xlink:href="#DejaVuSans-30" x="159.033203"/>
      </g>
     </g>
    </g>
    <g id="xtick_6">
     <g id="line2d_6">
      <g>
       <use xlink:href="#m774f49177c" x="357.197315" y="307.584" style="stroke: #000000; stroke-width: 0.8"/>
      </g>
     </g>
     <g id="text_6">
      <!-- 0.25 -->
      <g transform="translate(339.384815 326.7415) scale(0.16 -0.16)">
       <use xlink:href="#DejaVuSans-30"/>
       <use xlink:href="#DejaVuSans-2e" x="63.623047"/>
       <use xlink:href="#DejaVuSans-32" x="95.410156"/>
       <use xlink:href="#DejaVuSans-35" x="159.033203"/>
      </g>
     </g>
    </g>
    <g id="text_7">
     <!-- Position x (um) -->
     <g transform="translate(176.0925 346.2265) scale(0.16 -0.16)">
      <defs>
       <path id="DejaVuSans-50" d="M 1259 4147 
L 1259 2394 
L 2053 2394 
Q 2494 2394 2734 2622 
Q 2975 2850 2975 3272 
Q 2975 3691 2734 3919 
Q 2494 4147 2053 4147 
L 1259 4147 
z
M 628 4666 
L 2053 4666 
Q 2838 4666 3239 4311 
Q 3641 3956 3641 3272 
Q 3641 2581 3239 2228 
Q 2838 1875 2053 1875 
L 1259 1875 
L 1259 0 
L 628 0 
L 628 4666 
z
" transform="scale(0.015625)"/>
       <path id="DejaVuSans-6f" d="M 1959 3097 
Q 1497 3097 1228 2736 
Q 959 2375 959 1747 
Q 959 1119 1226 758 
Q 1494 397 1959 397 
Q 2419 397 2687 759 
Q 2956 1122 2956 1747 
Q 2956 2369 2687 2733 
Q 2419 3097 1959 3097 
z
M 1959 3584 
Q 2709 3584 3137 3096 
Q 3566 2609 3566 1747 
Q 3566 888 3137 398 
Q 2709 -91 1959 -91 
Q 1206 -91 779 398 
Q 353 888 353 1747 
Q 353 2609 779 3096 
Q 1206 3584 1959 3584 
z
" transform="scale(0.015625)"/>
       <path id="DejaVuSans-73" d="M 2834 3397 
L 2834 2853 
Q 2591 2978 2328 3040 
Q 2066 3103 1784 3103 
Q 1356 3103 1142 2972 
Q 928 2841 928 2578 
Q 928 2378 1081 2264 
Q 1234 2150 1697 2047 
L 1894 2003 
Q 2506 1872 2764 1633 
Q 3022 1394 3022 966 
Q 3022 478 2636 193 
Q 2250 -91 1575 -91 
Q 1294 -91 989 -36 
Q 684 19 347 128 
L 347 722 
Q 666 556 975 473 
Q 1284 391 1588 391 
Q 1994 391 2212 530 
Q 2431 669 2431 922 
Q 2431 1156 2273 1281 
Q 2116 1406 1581 1522 
L 1381 1569 
Q 847 1681 609 1914 
Q 372 2147 372 2553 
Q 372 3047 722 3315 
Q 1072 3584 1716 3584 
Q 2034 3584 2315 3537 
Q 2597 3491 2834 3397 
z
" transform="scale(0.015625)"/>
       <path id="DejaVuSans-69" d="M 603 3500 
L 1178 3500 
L 1178 0 
L 603 0 
L 603 3500 
z
M 603 4863 
L 1178 4863 
L 1178 4134 
L 603 4134 
L 603 4863 
z
" transform="scale(0.015625)"/>
       <path id="DejaVuSans-74" d="M 1172 4494 
L 1172 3500 
L 2356 3500 
L 2356 3053 
L 1172 3053 
L 1172 1153 
Q 1172 725 1289 603 
Q 1406 481 1766 481 
L 2356 481 
L 2356 0 
L 1766 0 
Q 1100 0 847 248 
Q 594 497 594 1153 
L 594 3053 
L 172 3053 
L 172 3500 
L 594 3500 
L 594 4494 
L 1172 4494 
z
" transform="scale(0.015625)"/>
       <path id="DejaVuSans-6e" d="M 3513 2113 
L 3513 0 
L 2938 0 
L 2938 2094 
Q 2938 2591 2744 2837 
Q 2550 3084 2163 3084 
Q 1697 3084 1428 2787 
Q 1159 2491 1159 1978 
L 1159 0 
L 581 0 
L 581 3500 
L 1159 3500 
L 1159 2956 
Q 1366 3272 1645 3428 
Q 1925 3584 2291 3584 
Q 2894 3584 3203 3211 
Q 3513 2838 3513 2113 
z
" transform="scale(0.015625)"/>
       <path id="DejaVuSans-20" transform="scale(0.015625)"/>
       <path id="DejaVuSans-78" d="M 3513 3500 
L 2247 1797 
L 3578 0 
L 2900 0 
L 1881 1375 
L 863 0 
L 184 0 
L 1544 1831 
L 300 3500 
L 978 3500 
L 1906 2253 
L 2834 3500 
L 3513 3500 
z
" transform="scale(0.015625)"/>
       <path id="DejaVuSans-28" d="M 1984 4856 
Q 1566 4138 1362 3434 
Q 1159 2731 1159 2009 
Q 1159 1288 1364 580 
Q 1569 -128 1984 -844 
L 1484 -844 
Q 1016 -109 783 600 
Q 550 1309 550 2009 
Q 550 2706 781 3412 
Q 1013 4119 1484 4856 
L 1984 4856 
z
" transform="scale(0.015625)"/>
       <path id="DejaVuSans-75" d="M 544 1381 
L 544 3500 
L 1119 3500 
L 1119 1403 
Q 1119 906 1312 657 
Q 1506 409 1894 409 
Q 2359 409 2629 706 
Q 2900 1003 2900 1516 
L 2900 3500 
L 3475 3500 
L 3475 0 
L 2900 0 
L 2900 538 
Q 2691 219 2414 64 
Q 2138 -91 1772 -91 
Q 1169 -91 856 284 
Q 544 659 544 1381 
z
M 1991 3584 
L 1991 3584 
z
" transform="scale(0.015625)"/>
       <path id="DejaVuSans-6d" d="M 3328 2828 
Q 3544 3216 3844 3400 
Q 4144 3584 4550 3584 
Q 5097 3584 5394 3201 
Q 5691 2819 5691 2113 
L 5691 0 
L 5113 0 
L 5113 2094 
Q 5113 2597 4934 2840 
Q 4756 3084 4391 3084 
Q 3944 3084 3684 2787 
Q 3425 2491 3425 1978 
L 3425 0 
L 2847 0 
L 2847 2094 
Q 2847 2600 2669 2842 
Q 2491 3084 2119 3084 
Q 1678 3084 1418 2786 
Q 1159 2488 1159 1978 
L 1159 0 
L 581 0 
L 581 3500 
L 1159 3500 
L 1159 2956 
Q 1356 3278 1631 3431 
Q 1906 3584 2284 3584 
Q 2666 3584 2933 3390 
Q 3200 3197 3328 2828 
z
" transform="scale(0.015625)"/>
       <path id="DejaVuSans-29" d="M 513 4856 
L 1013 4856 
Q 1481 4119 1714 3412 
Q 1947 2706 1947 2009 
Q 1947 1309 1714 600 
Q 1481 -109 1013 -844 
L 513 -844 
Q 928 -128 1133 580 
Q 1338 1288 1338 2009 
Q 1338 2731 1133 3434 
Q 928 4138 513 4856 
z
" transform="scale(0.015625)"/>
      </defs>
      <use xlink:href="#DejaVuSans-50"/>
      <use xlink:href="#DejaVuSans-6f" x="56.677734"/>
      <use xlink:href="#DejaVuSans-73" x="117.859375"/>
      <use xlink:href="#DejaVuSans-69" x="169.958984"/>
      <use xlink:href="#DejaVuSans-74" x="197.742188"/>
      <use xlink:href="#DejaVuSans-69" x="236.951172"/>
      <use xlink:href="#DejaVuSans-6f" x="264.734375"/>
      <use xlink:href="#DejaVuSans-6e" x="325.916016"/>
      <use xlink:href="#DejaVuSans-20" x="389.294922"/>
      <use xlink:href="#DejaVuSans-78" x="421.082031"/>
      <use xlink:href="#DejaVuSans-20" x="480.261719"/>
      <use xlink:href="#DejaVuSans-28" x="512.048828"/>
      <use xlink:href="#DejaVuSans-75" x="551.0625"/>
      <use xlink:href="#DejaVuSans-6d" x="614.441406"/>
      <use xlink:href="#DejaVuSans-29" x="711.853516"/>
     </g>
    </g>
   </g>
   <g id="matplotlib.axis_2">
    <g id="ytick_1">
     <g id="line2d_7">
      <defs>
       <path id="mcc9b5ec542" d="M 0 0 
L -3.5 0 
" style="stroke: #000000; stroke-width: 0.8"/>
      </defs>
      <g>
       <use xlink:href="#mcc9b5ec542" x="57.6" y="307.584" style="stroke: #000000; stroke-width: 0.8"/>
      </g>
     </g>
     <g id="text_8">
      <!-- 0.00 -->
      <g transform="translate(14.975 313.66275) scale(0.16 -0.16)">
       <use xlink:href="#DejaVuSans-30"/>
       <use xlink:href="#DejaVuSans-2e" x="63.623047"/>
       <use xlink:href="#DejaVuSans-30" x="95.410156"/>
       <use xlink:href="#DejaVuSans-30" x="159.033203"/>
      </g>
     </g>
    </g>
    <g id="ytick_2">
     <g id="line2d_8">
      <g>
       <use xlink:href="#mcc9b5ec542" x="57.6" y="254.583916" style="stroke: #000000; stroke-width: 0.8"/>
      </g>
     </g>
     <g id="text_9">
      <!-- 0.02 -->
      <g transform="translate(14.975 260.662666) scale(0.16 -0.16)">
       <use xlink:href="#DejaVuSans-30"/>
       <use xlink:href="#DejaVuSans-2e" x="63.623047"/>
       <use xlink:href="#DejaVuSans-30" x="95.410156"/>
       <use xlink:href="#DejaVuSans-32" x="159.033203"/>
      </g>
     </g>
    </g>
    <g id="ytick_3">
     <g id="line2d_9">
      <g>
       <use xlink:href="#mcc9b5ec542" x="57.6" y="201.583832" style="stroke: #000000; stroke-width: 0.8"/>
      </g>
     </g>
     <g id="text_10">
      <!-- 0.04 -->
      <g transform="translate(14.975 207.662582) scale(0.16 -0.16)">
       <defs>
        <path id="DejaVuSans-34" d="M 2419 4116 
L 825 1625 
L 2419 1625 
L 2419 4116 
z
M 2253 4666 
L 3047 4666 
L 3047 1625 
L 3713 1625 
L 3713 1100 
L 3047 1100 
L 3047 0 
L 2419 0 
L 2419 1100 
L 313 1100 
L 313 1709 
L 2253 4666 
z
" transform="scale(0.015625)"/>
       </defs>
       <use xlink:href="#DejaVuSans-30"/>
       <use xlink:href="#DejaVuSans-2e" x="63.623047"/>
       <use xlink:href="#DejaVuSans-30" x="95.410156"/>
       <use xlink:href="#DejaVuSans-34" x="159.033203"/>
      </g>
     </g>
    </g>
    <g id="ytick_4">
     <g id="line2d_10">
      <g>
       <use xlink:href="#mcc9b5ec542" x="57.6" y="148.583747" style="stroke: #000000; stroke-width: 0.8"/>
      </g>
     </g>
     <g id="text_11">
      <!-- 0.06 -->
      <g transform="translate(14.975 154.662497) scale(0.16 -0.16)">
       <defs>
        <path id="DejaVuSans-36" d="M 2113 2584 
Q 1688 2584 1439 2293 
Q 1191 2003 1191 1497 
Q 1191 994 1439 701 
Q 1688 409 2113 409 
Q 2538 409 2786 701 
Q 3034 994 3034 1497 
Q 3034 2003 2786 2293 
Q 2538 2584 2113 2584 
z
M 3366 4563 
L 3366 3988 
Q 3128 4100 2886 4159 
Q 2644 4219 2406 4219 
Q 1781 4219 1451 3797 
Q 1122 3375 1075 2522 
Q 1259 2794 1537 2939 
Q 1816 3084 2150 3084 
Q 2853 3084 3261 2657 
Q 3669 2231 3669 1497 
Q 3669 778 3244 343 
Q 2819 -91 2113 -91 
Q 1303 -91 875 529 
Q 447 1150 447 2328 
Q 447 3434 972 4092 
Q 1497 4750 2381 4750 
Q 2619 4750 2861 4703 
Q 3103 4656 3366 4563 
z
" transform="scale(0.015625)"/>
       </defs>
       <use xlink:href="#DejaVuSans-30"/>
       <use xlink:href="#DejaVuSans-2e" x="63.623047"/>
       <use xlink:href="#DejaVuSans-30" x="95.410156"/>
       <use xlink:href="#DejaVuSans-36" x="159.033203"/>
      </g>
     </g>
    </g>
    <g id="ytick_5">
     <g id="line2d_11">
      <g>
       <use xlink:href="#mcc9b5ec542" x="57.6" y="95.583663" style="stroke: #000000; stroke-width: 0.8"/>
      </g>
     </g>
     <g id="text_12">
      <!-- 0.08 -->
      <g transform="translate(14.975 101.662413) scale(0.16 -0.16)">
       <defs>
        <path id="DejaVuSans-38" d="M 2034 2216 
Q 1584 2216 1326 1975 
Q 1069 1734 1069 1313 
Q 1069 891 1326 650 
Q 1584 409 2034 409 
Q 2484 409 2743 651 
Q 3003 894 3003 1313 
Q 3003 1734 2745 1975 
Q 2488 2216 2034 2216 
z
M 1403 2484 
Q 997 2584 770 2862 
Q 544 3141 544 3541 
Q 544 4100 942 4425 
Q 1341 4750 2034 4750 
Q 2731 4750 3128 4425 
Q 3525 4100 3525 3541 
Q 3525 3141 3298 2862 
Q 3072 2584 2669 2484 
Q 3125 2378 3379 2068 
Q 3634 1759 3634 1313 
Q 3634 634 3220 271 
Q 2806 -91 2034 -91 
Q 1263 -91 848 271 
Q 434 634 434 1313 
Q 434 1759 690 2068 
Q 947 2378 1403 2484 
z
M 1172 3481 
Q 1172 3119 1398 2916 
Q 1625 2713 2034 2713 
Q 2441 2713 2670 2916 
Q 2900 3119 2900 3481 
Q 2900 3844 2670 4047 
Q 2441 4250 2034 4250 
Q 1625 4250 1398 4047 
Q 1172 3844 1172 3481 
z
" transform="scale(0.015625)"/>
       </defs>
       <use xlink:href="#DejaVuSans-30"/>
       <use xlink:href="#DejaVuSans-2e" x="63.623047"/>
       <use xlink:href="#DejaVuSans-30" x="95.410156"/>
       <use xlink:href="#DejaVuSans-38" x="159.033203"/>
      </g>
     </g>
    </g>
    <g id="ytick_6">
     <g id="line2d_12">
      <g>
       <use xlink:href="#mcc9b5ec542" x="57.6" y="42.583579" style="stroke: #000000; stroke-width: 0.8"/>
      </g>
     </g>
     <g id="text_13">
      <!-- 0.10 -->
      <g transform="translate(14.975 48.662329) scale(0.16 -0.16)">
       <use xlink:href="#DejaVuSans-30"/>
       <use xlink:href="#DejaVuSans-2e" x="63.623047"/>
       <use xlink:href="#DejaVuSans-31" x="95.410156"/>
       <use xlink:href="#DejaVuSans-30" x="159.033203"/>
      </g>
     </g>
    </g>
    <g id="text_14">
     <!-- Probability Density -->
     <g transform="translate(7.6475 249.7705) rotate(-90) scale(0.16 -0.16)">
      <defs>
       <path id="DejaVuSans-72" d="M 2631 2963 
Q 2534 3019 2420 3045 
Q 2306 3072 2169 3072 
Q 1681 3072 1420 2755 
Q 1159 2438 1159 1844 
L 1159 0 
L 581 0 
L 581 3500 
L 1159 3500 
L 1159 2956 
Q 1341 3275 1631 3429 
Q 1922 3584 2338 3584 
Q 2397 3584 2469 3576 
Q 2541 3569 2628 3553 
L 2631 2963 
z
" transform="scale(0.015625)"/>
       <path id="DejaVuSans-62" d="M 3116 1747 
Q 3116 2381 2855 2742 
Q 2594 3103 2138 3103 
Q 1681 3103 1420 2742 
Q 1159 2381 1159 1747 
Q 1159 1113 1420 752 
Q 1681 391 2138 391 
Q 2594 391 2855 752 
Q 3116 1113 3116 1747 
z
M 1159 2969 
Q 1341 3281 1617 3432 
Q 1894 3584 2278 3584 
Q 2916 3584 3314 3078 
Q 3713 2572 3713 1747 
Q 3713 922 3314 415 
Q 2916 -91 2278 -91 
Q 1894 -91 1617 61 
Q 1341 213 1159 525 
L 1159 0 
L 581 0 
L 581 4863 
L 1159 4863 
L 1159 2969 
z
" transform="scale(0.015625)"/>
       <path id="DejaVuSans-61" d="M 2194 1759 
Q 1497 1759 1228 1600 
Q 959 1441 959 1056 
Q 959 750 1161 570 
Q 1363 391 1709 391 
Q 2188 391 2477 730 
Q 2766 1069 2766 1631 
L 2766 1759 
L 2194 1759 
z
M 3341 1997 
L 3341 0 
L 2766 0 
L 2766 531 
Q 2569 213 2275 61 
Q 1981 -91 1556 -91 
Q 1019 -91 701 211 
Q 384 513 384 1019 
Q 384 1609 779 1909 
Q 1175 2209 1959 2209 
L 2766 2209 
L 2766 2266 
Q 2766 2663 2505 2880 
Q 2244 3097 1772 3097 
Q 1472 3097 1187 3025 
Q 903 2953 641 2809 
L 641 3341 
Q 956 3463 1253 3523 
Q 1550 3584 1831 3584 
Q 2591 3584 2966 3190 
Q 3341 2797 3341 1997 
z
" transform="scale(0.015625)"/>
       <path id="DejaVuSans-6c" d="M 603 4863 
L 1178 4863 
L 1178 0 
L 603 0 
L 603 4863 
z
" transform="scale(0.015625)"/>
       <path id="DejaVuSans-79" d="M 2059 -325 
Q 1816 -950 1584 -1140 
Q 1353 -1331 966 -1331 
L 506 -1331 
L 506 -850 
L 844 -850 
Q 1081 -850 1212 -737 
Q 1344 -625 1503 -206 
L 1606 56 
L 191 3500 
L 800 3500 
L 1894 763 
L 2988 3500 
L 3597 3500 
L 2059 -325 
z
" transform="scale(0.015625)"/>
       <path id="DejaVuSans-44" d="M 1259 4147 
L 1259 519 
L 2022 519 
Q 2988 519 3436 956 
Q 3884 1394 3884 2338 
Q 3884 3275 3436 3711 
Q 2988 4147 2022 4147 
L 1259 4147 
z
M 628 4666 
L 1925 4666 
Q 3281 4666 3915 4102 
Q 4550 3538 4550 2338 
Q 4550 1131 3912 565 
Q 3275 0 1925 0 
L 628 0 
L 628 4666 
z
" transform="scale(0.015625)"/>
       <path id="DejaVuSans-65" d="M 3597 1894 
L 3597 1613 
L 953 1613 
Q 991 1019 1311 708 
Q 1631 397 2203 397 
Q 2534 397 2845 478 
Q 3156 559 3463 722 
L 3463 178 
Q 3153 47 2828 -22 
Q 2503 -91 2169 -91 
Q 1331 -91 842 396 
Q 353 884 353 1716 
Q 353 2575 817 3079 
Q 1281 3584 2069 3584 
Q 2775 3584 3186 3129 
Q 3597 2675 3597 1894 
z
M 3022 2063 
Q 3016 2534 2758 2815 
Q 2500 3097 2075 3097 
Q 1594 3097 1305 2825 
Q 1016 2553 972 2059 
L 3022 2063 
z
" transform="scale(0.015625)"/>
      </defs>
      <use xlink:href="#DejaVuSans-50"/>
      <use xlink:href="#DejaVuSans-72" x="58.552734"/>
      <use xlink:href="#DejaVuSans-6f" x="97.416016"/>
      <use xlink:href="#DejaVuSans-62" x="158.597656"/>
      <use xlink:href="#DejaVuSans-61" x="222.074219"/>
      <use xlink:href="#DejaVuSans-62" x="283.353516"/>
      <use xlink:href="#DejaVuSans-69" x="346.830078"/>
      <use xlink:href="#DejaVuSans-6c" x="374.613281"/>
      <use xlink:href="#DejaVuSans-69" x="402.396484"/>
      <use xlink:href="#DejaVuSans-74" x="430.179688"/>
      <use xlink:href="#DejaVuSans-79" x="469.388672"/>
      <use xlink:href="#DejaVuSans-20" x="528.568359"/>
      <use xlink:href="#DejaVuSans-44" x="560.355469"/>
      <use xlink:href="#DejaVuSans-65" x="637.357422"/>
      <use xlink:href="#DejaVuSans-6e" x="698.880859"/>
      <use xlink:href="#DejaVuSans-73" x="762.259766"/>
      <use xlink:href="#DejaVuSans-69" x="814.359375"/>
      <use xlink:href="#DejaVuSans-74" x="842.142578"/>
      <use xlink:href="#DejaVuSans-79" x="881.351562"/>
     </g>
    </g>
   </g>
   <g id="line2d_13">
    <path d="M 236.16 307.584 
L 236.16 41.472 
" clip-path="url(#pe4242812fe)" style="fill: none; stroke-dasharray: 5.55,2.4; stroke-dashoffset: 0; stroke: #c0c0c0; stroke-width: 1.5"/>
   </g>
   <g id="line2d_14">
    <path d="M 296.079463 307.584 
L 296.079463 41.472 
" clip-path="url(#pe4242812fe)" style="fill: none; stroke-dasharray: 5.55,2.4; stroke-dashoffset: 0; stroke: #c0c0c0; stroke-width: 1.5"/>
   </g>
   <g id="patch_10">
    <path d="M 57.6 307.584 
L 57.6 41.472 
" style="fill: none; stroke: #000000; stroke-width: 0.8; stroke-linejoin: miter; stroke-linecap: square"/>
   </g>
   <g id="patch_11">
    <path d="M 414.72 307.584 
L 414.72 41.472 
" style="fill: none; stroke: #000000; stroke-width: 0.8; stroke-linejoin: miter; stroke-linecap: square"/>
   </g>
   <g id="patch_12">
    <path d="M 57.6 307.584 
L 414.72 307.584 
" style="fill: none; stroke: #000000; stroke-width: 0.8; stroke-linejoin: miter; stroke-linecap: square"/>
   </g>
   <g id="patch_13">
    <path d="M 57.6 41.472 
L 414.72 41.472 
" style="fill: none; stroke: #000000; stroke-width: 0.8; stroke-linejoin: miter; stroke-linecap: square"/>
   </g>
   <g id="text_15">
    <!-- T=0.1s, $\sigma_t=$18nm,  -->
    <g transform="translate(141.312 10.5126) scale(0.192 -0.192)">
     <defs>
      <path id="DejaVuSans-54" d="M -19 4666 
L 3928 4666 
L 3928 4134 
L 2272 4134 
L 2272 0 
L 1638 0 
L 1638 4134 
L -19 4134 
L -19 4666 
z
" transform="scale(0.015625)"/>
      <path id="DejaVuSans-3d" d="M 678 2906 
L 4684 2906 
L 4684 2381 
L 678 2381 
L 678 2906 
z
M 678 1631 
L 4684 1631 
L 4684 1100 
L 678 1100 
L 678 1631 
z
" transform="scale(0.015625)"/>
      <path id="DejaVuSans-2c" d="M 750 794 
L 1409 794 
L 1409 256 
L 897 -744 
L 494 -744 
L 750 256 
L 750 794 
z
" transform="scale(0.015625)"/>
      <path id="DejaVuSans-Oblique-3c3" d="M 2219 3044 
Q 1744 3044 1422 2700 
Q 1081 2341 969 1747 
Q 844 1119 1044 756 
Q 1241 397 1706 397 
Q 2166 397 2503 759 
Q 2844 1122 2966 1747 
Q 3075 2319 2881 2700 
Q 2700 3044 2219 3044 
z
M 2309 3503 
L 4219 3500 
L 4106 2925 
L 3463 2925 
Q 3706 2438 3575 1747 
Q 3406 888 2884 400 
Q 2359 -91 1609 -91 
Q 856 -91 525 400 
Q 194 888 363 1747 
Q 528 2609 1050 3097 
Q 1484 3503 2309 3503 
z
" transform="scale(0.015625)"/>
      <path id="DejaVuSans-Oblique-74" d="M 2706 3500 
L 2619 3053 
L 1472 3053 
L 1100 1153 
Q 1081 1047 1072 975 
Q 1063 903 1063 863 
Q 1063 663 1183 572 
Q 1303 481 1569 481 
L 2150 481 
L 2053 0 
L 1503 0 
Q 991 0 739 200 
Q 488 400 488 806 
Q 488 878 497 964 
Q 506 1050 525 1153 
L 897 3053 
L 409 3053 
L 500 3500 
L 978 3500 
L 1172 4494 
L 1747 4494 
L 1556 3500 
L 2706 3500 
z
" transform="scale(0.015625)"/>
     </defs>
     <use xlink:href="#DejaVuSans-54" transform="translate(0 0.78125)"/>
     <use xlink:href="#DejaVuSans-3d" transform="translate(61.083984 0.78125)"/>
     <use xlink:href="#DejaVuSans-30" transform="translate(144.873047 0.78125)"/>
     <use xlink:href="#DejaVuSans-2e" transform="translate(208.496094 0.78125)"/>
     <use xlink:href="#DejaVuSans-31" transform="translate(240.283203 0.78125)"/>
     <use xlink:href="#DejaVuSans-73" transform="translate(303.90625 0.78125)"/>
     <use xlink:href="#DejaVuSans-2c" transform="translate(356.005859 0.78125)"/>
     <use xlink:href="#DejaVuSans-20" transform="translate(387.792969 0.78125)"/>
     <use xlink:href="#DejaVuSans-Oblique-3c3" transform="translate(419.580078 0.78125)"/>
     <use xlink:href="#DejaVuSans-Oblique-74" transform="translate(482.958984 -15.625) scale(0.7)"/>
     <use xlink:href="#DejaVuSans-3d" transform="translate(532.62207 0.78125)"/>
     <use xlink:href="#DejaVuSans-31" transform="translate(635.893555 0.78125)"/>
     <use xlink:href="#DejaVuSans-38" transform="translate(699.516602 0.78125)"/>
     <use xlink:href="#DejaVuSans-6e" transform="translate(763.139648 0.78125)"/>
     <use xlink:href="#DejaVuSans-6d" transform="translate(826.518555 0.78125)"/>
     <use xlink:href="#DejaVuSans-2c" transform="translate(923.930664 0.78125)"/>
     <use xlink:href="#DejaVuSans-20" transform="translate(955.717773 0.78125)"/>
    </g>
    <!-- $d_c$=0nm, $D_c=$9.375$\mathrm{\mu m^2}$/s, $\Delta t$=1e-9s -->
    <g transform="translate(60.384 35.472) scale(0.192 -0.192)">
     <defs>
      <path id="DejaVuSans-Oblique-64" d="M 2675 525 
Q 2444 222 2128 65 
Q 1813 -91 1428 -91 
Q 903 -91 598 267 
Q 294 625 294 1247 
Q 294 1766 478 2236 
Q 663 2706 1013 3078 
Q 1244 3325 1534 3454 
Q 1825 3584 2144 3584 
Q 2481 3584 2739 3421 
Q 2997 3259 3138 2956 
L 3513 4863 
L 4091 4863 
L 3144 0 
L 2566 0 
L 2675 525 
z
M 891 1350 
Q 891 897 1095 644 
Q 1300 391 1663 391 
Q 1931 391 2161 520 
Q 2391 650 2566 903 
Q 2750 1166 2856 1509 
Q 2963 1853 2963 2188 
Q 2963 2622 2758 2865 
Q 2553 3109 2194 3109 
Q 1922 3109 1687 2981 
Q 1453 2853 1288 2613 
Q 1106 2353 998 2009 
Q 891 1666 891 1350 
z
" transform="scale(0.015625)"/>
      <path id="DejaVuSans-Oblique-63" d="M 3431 3366 
L 3316 2797 
Q 3109 2947 2876 3022 
Q 2644 3097 2394 3097 
Q 2119 3097 1870 3000 
Q 1622 2903 1453 2725 
Q 1184 2453 1037 2087 
Q 891 1722 891 1331 
Q 891 859 1127 628 
Q 1363 397 1844 397 
Q 2081 397 2348 469 
Q 2616 541 2906 684 
L 2797 116 
Q 2547 13 2283 -39 
Q 2019 -91 1741 -91 
Q 1044 -91 669 257 
Q 294 606 294 1253 
Q 294 1797 489 2255 
Q 684 2713 1069 3078 
Q 1331 3328 1684 3456 
Q 2038 3584 2456 3584 
Q 2700 3584 2940 3529 
Q 3181 3475 3431 3366 
z
" transform="scale(0.015625)"/>
      <path id="DejaVuSans-Oblique-44" d="M 1081 4666 
L 2438 4666 
Q 3519 4666 4070 4208 
Q 4622 3750 4622 2847 
Q 4622 2250 4412 1698 
Q 4203 1147 3834 769 
Q 3463 381 2891 190 
Q 2319 0 1538 0 
L 172 0 
L 1081 4666 
z
M 1613 4147 
L 909 519 
L 1734 519 
Q 2794 519 3375 1128 
Q 3956 1738 3956 2847 
Q 3956 3519 3581 3833 
Q 3206 4147 2406 4147 
L 1613 4147 
z
" transform="scale(0.015625)"/>
      <path id="DejaVuSans-39" d="M 703 97 
L 703 672 
Q 941 559 1184 500 
Q 1428 441 1663 441 
Q 2288 441 2617 861 
Q 2947 1281 2994 2138 
Q 2813 1869 2534 1725 
Q 2256 1581 1919 1581 
Q 1219 1581 811 2004 
Q 403 2428 403 3163 
Q 403 3881 828 4315 
Q 1253 4750 1959 4750 
Q 2769 4750 3195 4129 
Q 3622 3509 3622 2328 
Q 3622 1225 3098 567 
Q 2575 -91 1691 -91 
Q 1453 -91 1209 -44 
Q 966 3 703 97 
z
M 1959 2075 
Q 2384 2075 2632 2365 
Q 2881 2656 2881 3163 
Q 2881 3666 2632 3958 
Q 2384 4250 1959 4250 
Q 1534 4250 1286 3958 
Q 1038 3666 1038 3163 
Q 1038 2656 1286 2365 
Q 1534 2075 1959 2075 
z
" transform="scale(0.015625)"/>
      <path id="DejaVuSans-33" d="M 2597 2516 
Q 3050 2419 3304 2112 
Q 3559 1806 3559 1356 
Q 3559 666 3084 287 
Q 2609 -91 1734 -91 
Q 1441 -91 1130 -33 
Q 819 25 488 141 
L 488 750 
Q 750 597 1062 519 
Q 1375 441 1716 441 
Q 2309 441 2620 675 
Q 2931 909 2931 1356 
Q 2931 1769 2642 2001 
Q 2353 2234 1838 2234 
L 1294 2234 
L 1294 2753 
L 1863 2753 
Q 2328 2753 2575 2939 
Q 2822 3125 2822 3475 
Q 2822 3834 2567 4026 
Q 2313 4219 1838 4219 
Q 1578 4219 1281 4162 
Q 984 4106 628 3988 
L 628 4550 
Q 988 4650 1302 4700 
Q 1616 4750 1894 4750 
Q 2613 4750 3031 4423 
Q 3450 4097 3450 3541 
Q 3450 3153 3228 2886 
Q 3006 2619 2597 2516 
z
" transform="scale(0.015625)"/>
      <path id="DejaVuSans-37" d="M 525 4666 
L 3525 4666 
L 3525 4397 
L 1831 0 
L 1172 0 
L 2766 4134 
L 525 4134 
L 525 4666 
z
" transform="scale(0.015625)"/>
      <path id="DejaVuSans-3bc" d="M 544 -1331 
L 544 3500 
L 1119 3500 
L 1119 1325 
Q 1119 872 1334 640 
Q 1550 409 1972 409 
Q 2434 409 2667 671 
Q 2900 934 2900 1459 
L 2900 3500 
L 3475 3500 
L 3475 806 
Q 3475 619 3529 530 
Q 3584 441 3700 441 
Q 3728 441 3778 458 
Q 3828 475 3916 513 
L 3916 50 
Q 3788 -22 3673 -56 
Q 3559 -91 3450 -91 
Q 3234 -91 3106 31 
Q 2978 153 2931 403 
Q 2775 156 2548 32 
Q 2322 -91 2016 -91 
Q 1697 -91 1473 31 
Q 1250 153 1119 397 
L 1119 -1331 
L 544 -1331 
z
" transform="scale(0.015625)"/>
      <path id="DejaVuSans-2f" d="M 1625 4666 
L 2156 4666 
L 531 -594 
L 0 -594 
L 1625 4666 
z
" transform="scale(0.015625)"/>
      <path id="DejaVuSans-394" d="M 2188 4044 
L 906 525 
L 3472 525 
L 2188 4044 
z
M 50 0 
L 1831 4666 
L 2547 4666 
L 4325 0 
L 50 0 
z
" transform="scale(0.015625)"/>
      <path id="DejaVuSans-2d" d="M 313 2009 
L 1997 2009 
L 1997 1497 
L 313 1497 
L 313 2009 
z
" transform="scale(0.015625)"/>
     </defs>
     <use xlink:href="#DejaVuSans-Oblique-64" transform="translate(0 0.765625)"/>
     <use xlink:href="#DejaVuSans-Oblique-63" transform="translate(63.476562 -15.640625) scale(0.7)"/>
     <use xlink:href="#DejaVuSans-3d" transform="translate(104.697266 0.765625)"/>
     <use xlink:href="#DejaVuSans-30" transform="translate(188.486328 0.765625)"/>
     <use xlink:href="#DejaVuSans-6e" transform="translate(252.109375 0.765625)"/>
     <use xlink:href="#DejaVuSans-6d" transform="translate(315.488281 0.765625)"/>
     <use xlink:href="#DejaVuSans-2c" transform="translate(412.900391 0.765625)"/>
     <use xlink:href="#DejaVuSans-20" transform="translate(444.6875 0.765625)"/>
     <use xlink:href="#DejaVuSans-Oblique-44" transform="translate(476.474609 0.765625)"/>
     <use xlink:href="#DejaVuSans-Oblique-63" transform="translate(553.476562 -15.640625) scale(0.7)"/>
     <use xlink:href="#DejaVuSans-3d" transform="translate(614.179688 0.765625)"/>
     <use xlink:href="#DejaVuSans-39" transform="translate(717.451172 0.765625)"/>
     <use xlink:href="#DejaVuSans-2e" transform="translate(781.074219 0.765625)"/>
     <use xlink:href="#DejaVuSans-33" transform="translate(812.861328 0.765625)"/>
     <use xlink:href="#DejaVuSans-37" transform="translate(876.484375 0.765625)"/>
     <use xlink:href="#DejaVuSans-35" transform="translate(940.107422 0.765625)"/>
     <use xlink:href="#DejaVuSans-3bc" transform="translate(1003.730469 0.765625)"/>
     <use xlink:href="#DejaVuSans-6d" transform="translate(1067.353516 0.765625)"/>
     <use xlink:href="#DejaVuSans-32" transform="translate(1165.722656 39.046875) scale(0.7)"/>
     <use xlink:href="#DejaVuSans-2f" transform="translate(1212.993164 0.765625)"/>
     <use xlink:href="#DejaVuSans-73" transform="translate(1246.68457 0.765625)"/>
     <use xlink:href="#DejaVuSans-2c" transform="translate(1298.78418 0.765625)"/>
     <use xlink:href="#DejaVuSans-20" transform="translate(1330.571289 0.765625)"/>
     <use xlink:href="#DejaVuSans-394" transform="translate(1362.358398 0.765625)"/>
     <use xlink:href="#DejaVuSans-Oblique-74" transform="translate(1430.766602 0.765625)"/>
     <use xlink:href="#DejaVuSans-3d" transform="translate(1469.975586 0.765625)"/>
     <use xlink:href="#DejaVuSans-31" transform="translate(1553.764648 0.765625)"/>
     <use xlink:href="#DejaVuSans-65" transform="translate(1617.387695 0.765625)"/>
     <use xlink:href="#DejaVuSans-2d" transform="translate(1678.911133 0.765625)"/>
     <use xlink:href="#DejaVuSans-39" transform="translate(1714.995117 0.765625)"/>
     <use xlink:href="#DejaVuSans-73" transform="translate(1778.618164 0.765625)"/>
    </g>
   </g>
   <g id="legend_1">
    <g id="patch_14">
     <path d="M 269.76 218.667 
L 403.52 218.667 
Q 406.72 218.667 406.72 215.467 
L 406.72 52.672 
Q 406.72 49.472 403.52 49.472 
L 269.76 49.472 
Q 266.56 49.472 266.56 52.672 
L 266.56 215.467 
Q 266.56 218.667 269.76 218.667 
z
" style="fill: #ffffff; opacity: 0.8; stroke: #cccccc; stroke-linejoin: miter"/>
    </g>
    <g id="line2d_15">
     <path d="M 272.96 62.4295 
L 304.96 62.4295 
" style="fill: none; stroke: #1f77b4; stroke-linecap: square"/>
    </g>
    <g id="text_16">
     <!-- $d_c=$0nm -->
     <g transform="translate(317.76 68.0295) scale(0.16 -0.16)">
      <use xlink:href="#DejaVuSans-Oblique-64" transform="translate(0 0.015625)"/>
      <use xlink:href="#DejaVuSans-Oblique-63" transform="translate(63.476562 -16.390625) scale(0.7)"/>
      <use xlink:href="#DejaVuSans-3d" transform="translate(124.179688 0.015625)"/>
      <use xlink:href="#DejaVuSans-30" transform="translate(227.451172 0.015625)"/>
      <use xlink:href="#DejaVuSans-6e" transform="translate(291.074219 0.015625)"/>
      <use xlink:href="#DejaVuSans-6d" transform="translate(354.453125 0.015625)"/>
     </g>
    </g>
    <g id="line2d_16">
     <path d="M 272.96 85.9145 
L 304.96 85.9145 
" style="fill: none; stroke: #ff7f0e; stroke-linecap: square"/>
    </g>
    <g id="text_17">
     <!-- $d_c=$4nm -->
     <g transform="translate(317.76 91.5145) scale(0.16 -0.16)">
      <use xlink:href="#DejaVuSans-Oblique-64" transform="translate(0 0.015625)"/>
      <use xlink:href="#DejaVuSans-Oblique-63" transform="translate(63.476562 -16.390625) scale(0.7)"/>
      <use xlink:href="#DejaVuSans-3d" transform="translate(124.179688 0.015625)"/>
      <use xlink:href="#DejaVuSans-34" transform="translate(227.451172 0.015625)"/>
      <use xlink:href="#DejaVuSans-6e" transform="translate(291.074219 0.015625)"/>
      <use xlink:href="#DejaVuSans-6d" transform="translate(354.453125 0.015625)"/>
     </g>
    </g>
    <g id="line2d_17">
     <path d="M 272.96 109.3995 
L 304.96 109.3995 
" style="fill: none; stroke: #2ca02c; stroke-linecap: square"/>
    </g>
    <g id="text_18">
     <!-- $d_c=$8nm -->
     <g transform="translate(317.76 114.9995) scale(0.16 -0.16)">
      <use xlink:href="#DejaVuSans-Oblique-64" transform="translate(0 0.015625)"/>
      <use xlink:href="#DejaVuSans-Oblique-63" transform="translate(63.476562 -16.390625) scale(0.7)"/>
      <use xlink:href="#DejaVuSans-3d" transform="translate(124.179688 0.015625)"/>
      <use xlink:href="#DejaVuSans-38" transform="translate(227.451172 0.015625)"/>
      <use xlink:href="#DejaVuSans-6e" transform="translate(291.074219 0.015625)"/>
      <use xlink:href="#DejaVuSans-6d" transform="translate(354.453125 0.015625)"/>
     </g>
    </g>
    <g id="line2d_18">
     <path d="M 272.96 132.8845 
L 304.96 132.8845 
" style="fill: none; stroke: #d62728; stroke-linecap: square"/>
    </g>
    <g id="text_19">
     <!-- $d_c=$12nm -->
     <g transform="translate(317.76 138.4845) scale(0.16 -0.16)">
      <use xlink:href="#DejaVuSans-Oblique-64" transform="translate(0 0.015625)"/>
      <use xlink:href="#DejaVuSans-Oblique-63" transform="translate(63.476562 -16.390625) scale(0.7)"/>
      <use xlink:href="#DejaVuSans-3d" transform="translate(124.179688 0.015625)"/>
      <use xlink:href="#DejaVuSans-31" transform="translate(227.451172 0.015625)"/>
      <use xlink:href="#DejaVuSans-32" transform="translate(291.074219 0.015625)"/>
      <use xlink:href="#DejaVuSans-6e" transform="translate(354.697266 0.015625)"/>
      <use xlink:href="#DejaVuSans-6d" transform="translate(418.076172 0.015625)"/>
     </g>
    </g>
    <g id="line2d_19">
     <path d="M 272.96 156.3695 
L 304.96 156.3695 
" style="fill: none; stroke: #9467bd; stroke-linecap: square"/>
    </g>
    <g id="text_20">
     <!-- $d_c=$16nm -->
     <g transform="translate(317.76 161.9695) scale(0.16 -0.16)">
      <use xlink:href="#DejaVuSans-Oblique-64" transform="translate(0 0.015625)"/>
      <use xlink:href="#DejaVuSans-Oblique-63" transform="translate(63.476562 -16.390625) scale(0.7)"/>
      <use xlink:href="#DejaVuSans-3d" transform="translate(124.179688 0.015625)"/>
      <use xlink:href="#DejaVuSans-31" transform="translate(227.451172 0.015625)"/>
      <use xlink:href="#DejaVuSans-36" transform="translate(291.074219 0.015625)"/>
      <use xlink:href="#DejaVuSans-6e" transform="translate(354.697266 0.015625)"/>
      <use xlink:href="#DejaVuSans-6d" transform="translate(418.076172 0.015625)"/>
     </g>
    </g>
    <g id="line2d_20">
     <path d="M 272.96 179.8545 
L 304.96 179.8545 
" style="fill: none; stroke: #8c564b; stroke-linecap: square"/>
    </g>
    <g id="text_21">
     <!-- $d_c=$20nm -->
     <g transform="translate(317.76 185.4545) scale(0.16 -0.16)">
      <use xlink:href="#DejaVuSans-Oblique-64" transform="translate(0 0.015625)"/>
      <use xlink:href="#DejaVuSans-Oblique-63" transform="translate(63.476562 -16.390625) scale(0.7)"/>
      <use xlink:href="#DejaVuSans-3d" transform="translate(124.179688 0.015625)"/>
      <use xlink:href="#DejaVuSans-32" transform="translate(227.451172 0.015625)"/>
      <use xlink:href="#DejaVuSans-30" transform="translate(291.074219 0.015625)"/>
      <use xlink:href="#DejaVuSans-6e" transform="translate(354.697266 0.015625)"/>
      <use xlink:href="#DejaVuSans-6d" transform="translate(418.076172 0.015625)"/>
     </g>
    </g>
    <g id="line2d_21">
     <path d="M 272.96 203.3395 
L 304.96 203.3395 
" style="fill: none; stroke: #e377c2; stroke-linecap: square"/>
    </g>
    <g id="text_22">
     <!-- $d_c=$24nm -->
     <g transform="translate(317.76 208.9395) scale(0.16 -0.16)">
      <use xlink:href="#DejaVuSans-Oblique-64" transform="translate(0 0.015625)"/>
      <use xlink:href="#DejaVuSans-Oblique-63" transform="translate(63.476562 -16.390625) scale(0.7)"/>
      <use xlink:href="#DejaVuSans-3d" transform="translate(124.179688 0.015625)"/>
      <use xlink:href="#DejaVuSans-32" transform="translate(227.451172 0.015625)"/>
      <use xlink:href="#DejaVuSans-34" transform="translate(291.074219 0.015625)"/>
      <use xlink:href="#DejaVuSans-6e" transform="translate(354.697266 0.015625)"/>
      <use xlink:href="#DejaVuSans-6d" transform="translate(418.076172 0.015625)"/>
     </g>
    </g>
   </g>
  </g>
 </g>
 <defs>
  <clipPath id="pe4242812fe">
   <rect x="57.6" y="41.472" width="357.12" height="266.112"/>
  </clipPath>
 </defs>
</svg>
