<?xml version="1.0" encoding="utf-8" standalone="no"?>
<!DOCTYPE svg PUBLIC "-//W3C//DTD SVG 1.1//EN"
  "http://www.w3.org/Graphics/SVG/1.1/DTD/svg11.dtd">
<svg xmlns:xlink="http://www.w3.org/1999/xlink" width="504pt" height="432pt" viewBox="0 0 504 432" xmlns="http://www.w3.org/2000/svg" version="1.1">
 <metadata>
  <rdf:RDF xmlns:dc="http://purl.org/dc/elements/1.1/" xmlns:cc="http://creativecommons.org/ns#" xmlns:rdf="http://www.w3.org/1999/02/22-rdf-syntax-ns#">
   <cc:Work>
    <dc:type rdf:resource="http://purl.org/dc/dcmitype/StillImage"/>
    <dc:date>2024-09-30T13:37:34.062313</dc:date>
    <dc:format>image/svg+xml</dc:format>
    <dc:creator>
     <cc:Agent>
      <dc:title>Matplotlib v3.8.2, https://matplotlib.org/</dc:title>
     </cc:Agent>
    </dc:creator>
   </cc:Work>
  </rdf:RDF>
 </metadata>
 <defs>
  <style type="text/css">*{stroke-linejoin: round; stroke-linecap: butt}</style>
 </defs>
 <g id="figure_1">
  <g id="patch_1">
   <path d="M 0 432 
L 504 432 
L 504 0 
L 0 0 
z
" style="fill: #ffffff"/>
  </g>
  <g id="axes_1">
   <g id="patch_2">
    <path d="M 69.305 301.824 
L 455.712592 301.824 
L 455.712592 17.28 
L 69.305 17.28 
z
" style="fill: #ffffff"/>
   </g>
   <g id="matplotlib.axis_1">
    <g id="xtick_1">
     <g id="line2d_1">
      <defs>
       <path id="mcc8530dd8b" d="M 0 0 
L 0 3.5 
" style="stroke: #000000; stroke-width: 0.8"/>
      </defs>
      <g>
       <use xlink:href="#mcc8530dd8b" x="86.868981" y="301.824" style="stroke: #000000; stroke-width: 0.8"/>
      </g>
     </g>
     <g id="text_1">
      <!-- 0 -->
      <g transform="translate(81.778981 320.9815) scale(0.16 -0.16)">
       <defs>
        <path id="DejaVuSans-30" d="M 2034 4250 
Q 1547 4250 1301 3770 
Q 1056 3291 1056 2328 
Q 1056 1369 1301 889 
Q 1547 409 2034 409 
Q 2525 409 2770 889 
Q 3016 1369 3016 2328 
Q 3016 3291 2770 3770 
Q 2525 4250 2034 4250 
z
M 2034 4750 
Q 2819 4750 3233 4129 
Q 3647 3509 3647 2328 
Q 3647 1150 3233 529 
Q 2819 -91 2034 -91 
Q 1250 -91 836 529 
Q 422 1150 422 2328 
Q 422 3509 836 4129 
Q 1250 4750 2034 4750 
z
" transform="scale(0.015625)"/>
       </defs>
       <use xlink:href="#DejaVuSans-30"/>
      </g>
     </g>
    </g>
    <g id="xtick_2">
     <g id="line2d_2">
      <g>
       <use xlink:href="#mcc8530dd8b" x="157.124907" y="301.824" style="stroke: #000000; stroke-width: 0.8"/>
      </g>
     </g>
     <g id="text_2">
      <!-- 20 -->
      <g transform="translate(146.944907 320.9815) scale(0.16 -0.16)">
       <defs>
        <path id="DejaVuSans-32" d="M 1228 531 
L 3431 531 
L 3431 0 
L 469 0 
L 469 531 
Q 828 903 1448 1529 
Q 2069 2156 2228 2338 
Q 2531 2678 2651 2914 
Q 2772 3150 2772 3378 
Q 2772 3750 2511 3984 
Q 2250 4219 1831 4219 
Q 1534 4219 1204 4116 
Q 875 4013 500 3803 
L 500 4441 
Q 881 4594 1212 4672 
Q 1544 4750 1819 4750 
Q 2544 4750 2975 4387 
Q 3406 4025 3406 3419 
Q 3406 3131 3298 2873 
Q 3191 2616 2906 2266 
Q 2828 2175 2409 1742 
Q 1991 1309 1228 531 
z
" transform="scale(0.015625)"/>
       </defs>
       <use xlink:href="#DejaVuSans-32"/>
       <use xlink:href="#DejaVuSans-30" x="63.623047"/>
      </g>
     </g>
    </g>
    <g id="xtick_3">
     <g id="line2d_3">
      <g>
       <use xlink:href="#mcc8530dd8b" x="227.380833" y="301.824" style="stroke: #000000; stroke-width: 0.8"/>
      </g>
     </g>
     <g id="text_3">
      <!-- 40 -->
      <g transform="translate(217.200833 320.9815) scale(0.16 -0.16)">
       <defs>
        <path id="DejaVuSans-34" d="M 2419 4116 
L 825 1625 
L 2419 1625 
L 2419 4116 
z
M 2253 4666 
L 3047 4666 
L 3047 1625 
L 3713 1625 
L 3713 1100 
L 3047 1100 
L 3047 0 
L 2419 0 
L 2419 1100 
L 313 1100 
L 313 1709 
L 2253 4666 
z
" transform="scale(0.015625)"/>
       </defs>
       <use xlink:href="#DejaVuSans-34"/>
       <use xlink:href="#DejaVuSans-30" x="63.623047"/>
      </g>
     </g>
    </g>
    <g id="xtick_4">
     <g id="line2d_4">
      <g>
       <use xlink:href="#mcc8530dd8b" x="297.636759" y="301.824" style="stroke: #000000; stroke-width: 0.8"/>
      </g>
     </g>
     <g id="text_4">
      <!-- 60 -->
      <g transform="translate(287.456759 320.9815) scale(0.16 -0.16)">
       <defs>
        <path id="DejaVuSans-36" d="M 2113 2584 
Q 1688 2584 1439 2293 
Q 1191 2003 1191 1497 
Q 1191 994 1439 701 
Q 1688 409 2113 409 
Q 2538 409 2786 701 
Q 3034 994 3034 1497 
Q 3034 2003 2786 2293 
Q 2538 2584 2113 2584 
z
M 3366 4563 
L 3366 3988 
Q 3128 4100 2886 4159 
Q 2644 4219 2406 4219 
Q 1781 4219 1451 3797 
Q 1122 3375 1075 2522 
Q 1259 2794 1537 2939 
Q 1816 3084 2150 3084 
Q 2853 3084 3261 2657 
Q 3669 2231 3669 1497 
Q 3669 778 3244 343 
Q 2819 -91 2113 -91 
Q 1303 -91 875 529 
Q 447 1150 447 2328 
Q 447 3434 972 4092 
Q 1497 4750 2381 4750 
Q 2619 4750 2861 4703 
Q 3103 4656 3366 4563 
z
" transform="scale(0.015625)"/>
       </defs>
       <use xlink:href="#DejaVuSans-36"/>
       <use xlink:href="#DejaVuSans-30" x="63.623047"/>
      </g>
     </g>
    </g>
    <g id="xtick_5">
     <g id="line2d_5">
      <g>
       <use xlink:href="#mcc8530dd8b" x="367.892685" y="301.824" style="stroke: #000000; stroke-width: 0.8"/>
      </g>
     </g>
     <g id="text_5">
      <!-- 80 -->
      <g transform="translate(357.712685 320.9815) scale(0.16 -0.16)">
       <defs>
        <path id="DejaVuSans-38" d="M 2034 2216 
Q 1584 2216 1326 1975 
Q 1069 1734 1069 1313 
Q 1069 891 1326 650 
Q 1584 409 2034 409 
Q 2484 409 2743 651 
Q 3003 894 3003 1313 
Q 3003 1734 2745 1975 
Q 2488 2216 2034 2216 
z
M 1403 2484 
Q 997 2584 770 2862 
Q 544 3141 544 3541 
Q 544 4100 942 4425 
Q 1341 4750 2034 4750 
Q 2731 4750 3128 4425 
Q 3525 4100 3525 3541 
Q 3525 3141 3298 2862 
Q 3072 2584 2669 2484 
Q 3125 2378 3379 2068 
Q 3634 1759 3634 1313 
Q 3634 634 3220 271 
Q 2806 -91 2034 -91 
Q 1263 -91 848 271 
Q 434 634 434 1313 
Q 434 1759 690 2068 
Q 947 2378 1403 2484 
z
M 1172 3481 
Q 1172 3119 1398 2916 
Q 1625 2713 2034 2713 
Q 2441 2713 2670 2916 
Q 2900 3119 2900 3481 
Q 2900 3844 2670 4047 
Q 2441 4250 2034 4250 
Q 1625 4250 1398 4047 
Q 1172 3844 1172 3481 
z
" transform="scale(0.015625)"/>
       </defs>
       <use xlink:href="#DejaVuSans-38"/>
       <use xlink:href="#DejaVuSans-30" x="63.623047"/>
      </g>
     </g>
    </g>
    <g id="xtick_6">
     <g id="line2d_6">
      <g>
       <use xlink:href="#mcc8530dd8b" x="438.148611" y="301.824" style="stroke: #000000; stroke-width: 0.8"/>
      </g>
     </g>
     <g id="text_6">
      <!-- 100 -->
      <g transform="translate(422.878611 320.9815) scale(0.16 -0.16)">
       <defs>
        <path id="DejaVuSans-31" d="M 794 531 
L 1825 531 
L 1825 4091 
L 703 3866 
L 703 4441 
L 1819 4666 
L 2450 4666 
L 2450 531 
L 3481 531 
L 3481 0 
L 794 0 
L 794 531 
z
" transform="scale(0.015625)"/>
       </defs>
       <use xlink:href="#DejaVuSans-31"/>
       <use xlink:href="#DejaVuSans-30" x="63.623047"/>
       <use xlink:href="#DejaVuSans-30" x="127.246094"/>
      </g>
     </g>
    </g>
    <g id="text_7">
     <!-- Time (ms) -->
     <g transform="translate(222.190046 340.4665) scale(0.16 -0.16)">
      <defs>
       <path id="DejaVuSans-54" d="M -19 4666 
L 3928 4666 
L 3928 4134 
L 2272 4134 
L 2272 0 
L 1638 0 
L 1638 4134 
L -19 4134 
L -19 4666 
z
" transform="scale(0.015625)"/>
       <path id="DejaVuSans-69" d="M 603 3500 
L 1178 3500 
L 1178 0 
L 603 0 
L 603 3500 
z
M 603 4863 
L 1178 4863 
L 1178 4134 
L 603 4134 
L 603 4863 
z
" transform="scale(0.015625)"/>
       <path id="DejaVuSans-6d" d="M 3328 2828 
Q 3544 3216 3844 3400 
Q 4144 3584 4550 3584 
Q 5097 3584 5394 3201 
Q 5691 2819 5691 2113 
L 5691 0 
L 5113 0 
L 5113 2094 
Q 5113 2597 4934 2840 
Q 4756 3084 4391 3084 
Q 3944 3084 3684 2787 
Q 3425 2491 3425 1978 
L 3425 0 
L 2847 0 
L 2847 2094 
Q 2847 2600 2669 2842 
Q 2491 3084 2119 3084 
Q 1678 3084 1418 2786 
Q 1159 2488 1159 1978 
L 1159 0 
L 581 0 
L 581 3500 
L 1159 3500 
L 1159 2956 
Q 1356 3278 1631 3431 
Q 1906 3584 2284 3584 
Q 2666 3584 2933 3390 
Q 3200 3197 3328 2828 
z
" transform="scale(0.015625)"/>
       <path id="DejaVuSans-65" d="M 3597 1894 
L 3597 1613 
L 953 1613 
Q 991 1019 1311 708 
Q 1631 397 2203 397 
Q 2534 397 2845 478 
Q 3156 559 3463 722 
L 3463 178 
Q 3153 47 2828 -22 
Q 2503 -91 2169 -91 
Q 1331 -91 842 396 
Q 353 884 353 1716 
Q 353 2575 817 3079 
Q 1281 3584 2069 3584 
Q 2775 3584 3186 3129 
Q 3597 2675 3597 1894 
z
M 3022 2063 
Q 3016 2534 2758 2815 
Q 2500 3097 2075 3097 
Q 1594 3097 1305 2825 
Q 1016 2553 972 2059 
L 3022 2063 
z
" transform="scale(0.015625)"/>
       <path id="DejaVuSans-20" transform="scale(0.015625)"/>
       <path id="DejaVuSans-28" d="M 1984 4856 
Q 1566 4138 1362 3434 
Q 1159 2731 1159 2009 
Q 1159 1288 1364 580 
Q 1569 -128 1984 -844 
L 1484 -844 
Q 1016 -109 783 600 
Q 550 1309 550 2009 
Q 550 2706 781 3412 
Q 1013 4119 1484 4856 
L 1984 4856 
z
" transform="scale(0.015625)"/>
       <path id="DejaVuSans-73" d="M 2834 3397 
L 2834 2853 
Q 2591 2978 2328 3040 
Q 2066 3103 1784 3103 
Q 1356 3103 1142 2972 
Q 928 2841 928 2578 
Q 928 2378 1081 2264 
Q 1234 2150 1697 2047 
L 1894 2003 
Q 2506 1872 2764 1633 
Q 3022 1394 3022 966 
Q 3022 478 2636 193 
Q 2250 -91 1575 -91 
Q 1294 -91 989 -36 
Q 684 19 347 128 
L 347 722 
Q 666 556 975 473 
Q 1284 391 1588 391 
Q 1994 391 2212 530 
Q 2431 669 2431 922 
Q 2431 1156 2273 1281 
Q 2116 1406 1581 1522 
L 1381 1569 
Q 847 1681 609 1914 
Q 372 2147 372 2553 
Q 372 3047 722 3315 
Q 1072 3584 1716 3584 
Q 2034 3584 2315 3537 
Q 2597 3491 2834 3397 
z
" transform="scale(0.015625)"/>
       <path id="DejaVuSans-29" d="M 513 4856 
L 1013 4856 
Q 1481 4119 1714 3412 
Q 1947 2706 1947 2009 
Q 1947 1309 1714 600 
Q 1481 -109 1013 -844 
L 513 -844 
Q 928 -128 1133 580 
Q 1338 1288 1338 2009 
Q 1338 2731 1133 3434 
Q 928 4138 513 4856 
z
" transform="scale(0.015625)"/>
      </defs>
      <use xlink:href="#DejaVuSans-54"/>
      <use xlink:href="#DejaVuSans-69" x="57.958984"/>
      <use xlink:href="#DejaVuSans-6d" x="85.742188"/>
      <use xlink:href="#DejaVuSans-65" x="183.154297"/>
      <use xlink:href="#DejaVuSans-20" x="244.677734"/>
      <use xlink:href="#DejaVuSans-28" x="276.464844"/>
      <use xlink:href="#DejaVuSans-6d" x="315.478516"/>
      <use xlink:href="#DejaVuSans-73" x="412.890625"/>
      <use xlink:href="#DejaVuSans-29" x="464.990234"/>
     </g>
    </g>
   </g>
   <g id="matplotlib.axis_2">
    <g id="ytick_1">
     <g id="line2d_7">
      <defs>
       <path id="me322d50d90" d="M 0 0 
L -3.5 0 
" style="stroke: #000000; stroke-width: 0.8"/>
      </defs>
      <g>
       <use xlink:href="#me322d50d90" x="69.305" y="288.890182" style="stroke: #000000; stroke-width: 0.8"/>
      </g>
     </g>
     <g id="text_8">
      <!-- 0.0 -->
      <g transform="translate(36.86 294.968932) scale(0.16 -0.16)">
       <defs>
        <path id="DejaVuSans-2e" d="M 684 794 
L 1344 794 
L 1344 0 
L 684 0 
L 684 794 
z
" transform="scale(0.015625)"/>
       </defs>
       <use xlink:href="#DejaVuSans-30"/>
       <use xlink:href="#DejaVuSans-2e" x="63.623047"/>
       <use xlink:href="#DejaVuSans-30" x="95.410156"/>
      </g>
     </g>
    </g>
    <g id="ytick_2">
     <g id="line2d_8">
      <g>
       <use xlink:href="#me322d50d90" x="69.305" y="237.154909" style="stroke: #000000; stroke-width: 0.8"/>
      </g>
     </g>
     <g id="text_9">
      <!-- 0.2 -->
      <g transform="translate(36.86 243.233659) scale(0.16 -0.16)">
       <use xlink:href="#DejaVuSans-30"/>
       <use xlink:href="#DejaVuSans-2e" x="63.623047"/>
       <use xlink:href="#DejaVuSans-32" x="95.410156"/>
      </g>
     </g>
    </g>
    <g id="ytick_3">
     <g id="line2d_9">
      <g>
       <use xlink:href="#me322d50d90" x="69.305" y="185.419636" style="stroke: #000000; stroke-width: 0.8"/>
      </g>
     </g>
     <g id="text_10">
      <!-- 0.4 -->
      <g transform="translate(36.86 191.498386) scale(0.16 -0.16)">
       <use xlink:href="#DejaVuSans-30"/>
       <use xlink:href="#DejaVuSans-2e" x="63.623047"/>
       <use xlink:href="#DejaVuSans-34" x="95.410156"/>
      </g>
     </g>
    </g>
    <g id="ytick_4">
     <g id="line2d_10">
      <g>
       <use xlink:href="#me322d50d90" x="69.305" y="133.684364" style="stroke: #000000; stroke-width: 0.8"/>
      </g>
     </g>
     <g id="text_11">
      <!-- 0.6 -->
      <g transform="translate(36.86 139.763114) scale(0.16 -0.16)">
       <use xlink:href="#DejaVuSans-30"/>
       <use xlink:href="#DejaVuSans-2e" x="63.623047"/>
       <use xlink:href="#DejaVuSans-36" x="95.410156"/>
      </g>
     </g>
    </g>
    <g id="ytick_5">
     <g id="line2d_11">
      <g>
       <use xlink:href="#me322d50d90" x="69.305" y="81.949091" style="stroke: #000000; stroke-width: 0.8"/>
      </g>
     </g>
     <g id="text_12">
      <!-- 0.8 -->
      <g transform="translate(36.86 88.027841) scale(0.16 -0.16)">
       <use xlink:href="#DejaVuSans-30"/>
       <use xlink:href="#DejaVuSans-2e" x="63.623047"/>
       <use xlink:href="#DejaVuSans-38" x="95.410156"/>
      </g>
     </g>
    </g>
    <g id="ytick_6">
     <g id="line2d_12">
      <g>
       <use xlink:href="#me322d50d90" x="69.305" y="30.213818" style="stroke: #000000; stroke-width: 0.8"/>
      </g>
     </g>
     <g id="text_13">
      <!-- 1.0 -->
      <g transform="translate(36.86 36.292568) scale(0.16 -0.16)">
       <use xlink:href="#DejaVuSans-31"/>
       <use xlink:href="#DejaVuSans-2e" x="63.623047"/>
       <use xlink:href="#DejaVuSans-30" x="95.410156"/>
      </g>
     </g>
    </g>
    <g id="text_14">
     <!-- Fraction of penetrated tracers -->
     <g transform="translate(29.5325 279.3895) rotate(-90) scale(0.16 -0.16)">
      <defs>
       <path id="DejaVuSans-46" d="M 628 4666 
L 3309 4666 
L 3309 4134 
L 1259 4134 
L 1259 2759 
L 3109 2759 
L 3109 2228 
L 1259 2228 
L 1259 0 
L 628 0 
L 628 4666 
z
" transform="scale(0.015625)"/>
       <path id="DejaVuSans-72" d="M 2631 2963 
Q 2534 3019 2420 3045 
Q 2306 3072 2169 3072 
Q 1681 3072 1420 2755 
Q 1159 2438 1159 1844 
L 1159 0 
L 581 0 
L 581 3500 
L 1159 3500 
L 1159 2956 
Q 1341 3275 1631 3429 
Q 1922 3584 2338 3584 
Q 2397 3584 2469 3576 
Q 2541 3569 2628 3553 
L 2631 2963 
z
" transform="scale(0.015625)"/>
       <path id="DejaVuSans-61" d="M 2194 1759 
Q 1497 1759 1228 1600 
Q 959 1441 959 1056 
Q 959 750 1161 570 
Q 1363 391 1709 391 
Q 2188 391 2477 730 
Q 2766 1069 2766 1631 
L 2766 1759 
L 2194 1759 
z
M 3341 1997 
L 3341 0 
L 2766 0 
L 2766 531 
Q 2569 213 2275 61 
Q 1981 -91 1556 -91 
Q 1019 -91 701 211 
Q 384 513 384 1019 
Q 384 1609 779 1909 
Q 1175 2209 1959 2209 
L 2766 2209 
L 2766 2266 
Q 2766 2663 2505 2880 
Q 2244 3097 1772 3097 
Q 1472 3097 1187 3025 
Q 903 2953 641 2809 
L 641 3341 
Q 956 3463 1253 3523 
Q 1550 3584 1831 3584 
Q 2591 3584 2966 3190 
Q 3341 2797 3341 1997 
z
" transform="scale(0.015625)"/>
       <path id="DejaVuSans-63" d="M 3122 3366 
L 3122 2828 
Q 2878 2963 2633 3030 
Q 2388 3097 2138 3097 
Q 1578 3097 1268 2742 
Q 959 2388 959 1747 
Q 959 1106 1268 751 
Q 1578 397 2138 397 
Q 2388 397 2633 464 
Q 2878 531 3122 666 
L 3122 134 
Q 2881 22 2623 -34 
Q 2366 -91 2075 -91 
Q 1284 -91 818 406 
Q 353 903 353 1747 
Q 353 2603 823 3093 
Q 1294 3584 2113 3584 
Q 2378 3584 2631 3529 
Q 2884 3475 3122 3366 
z
" transform="scale(0.015625)"/>
       <path id="DejaVuSans-74" d="M 1172 4494 
L 1172 3500 
L 2356 3500 
L 2356 3053 
L 1172 3053 
L 1172 1153 
Q 1172 725 1289 603 
Q 1406 481 1766 481 
L 2356 481 
L 2356 0 
L 1766 0 
Q 1100 0 847 248 
Q 594 497 594 1153 
L 594 3053 
L 172 3053 
L 172 3500 
L 594 3500 
L 594 4494 
L 1172 4494 
z
" transform="scale(0.015625)"/>
       <path id="DejaVuSans-6f" d="M 1959 3097 
Q 1497 3097 1228 2736 
Q 959 2375 959 1747 
Q 959 1119 1226 758 
Q 1494 397 1959 397 
Q 2419 397 2687 759 
Q 2956 1122 2956 1747 
Q 2956 2369 2687 2733 
Q 2419 3097 1959 3097 
z
M 1959 3584 
Q 2709 3584 3137 3096 
Q 3566 2609 3566 1747 
Q 3566 888 3137 398 
Q 2709 -91 1959 -91 
Q 1206 -91 779 398 
Q 353 888 353 1747 
Q 353 2609 779 3096 
Q 1206 3584 1959 3584 
z
" transform="scale(0.015625)"/>
       <path id="DejaVuSans-6e" d="M 3513 2113 
L 3513 0 
L 2938 0 
L 2938 2094 
Q 2938 2591 2744 2837 
Q 2550 3084 2163 3084 
Q 1697 3084 1428 2787 
Q 1159 2491 1159 1978 
L 1159 0 
L 581 0 
L 581 3500 
L 1159 3500 
L 1159 2956 
Q 1366 3272 1645 3428 
Q 1925 3584 2291 3584 
Q 2894 3584 3203 3211 
Q 3513 2838 3513 2113 
z
" transform="scale(0.015625)"/>
       <path id="DejaVuSans-66" d="M 2375 4863 
L 2375 4384 
L 1825 4384 
Q 1516 4384 1395 4259 
Q 1275 4134 1275 3809 
L 1275 3500 
L 2222 3500 
L 2222 3053 
L 1275 3053 
L 1275 0 
L 697 0 
L 697 3053 
L 147 3053 
L 147 3500 
L 697 3500 
L 697 3744 
Q 697 4328 969 4595 
Q 1241 4863 1831 4863 
L 2375 4863 
z
" transform="scale(0.015625)"/>
       <path id="DejaVuSans-70" d="M 1159 525 
L 1159 -1331 
L 581 -1331 
L 581 3500 
L 1159 3500 
L 1159 2969 
Q 1341 3281 1617 3432 
Q 1894 3584 2278 3584 
Q 2916 3584 3314 3078 
Q 3713 2572 3713 1747 
Q 3713 922 3314 415 
Q 2916 -91 2278 -91 
Q 1894 -91 1617 61 
Q 1341 213 1159 525 
z
M 3116 1747 
Q 3116 2381 2855 2742 
Q 2594 3103 2138 3103 
Q 1681 3103 1420 2742 
Q 1159 2381 1159 1747 
Q 1159 1113 1420 752 
Q 1681 391 2138 391 
Q 2594 391 2855 752 
Q 3116 1113 3116 1747 
z
" transform="scale(0.015625)"/>
       <path id="DejaVuSans-64" d="M 2906 2969 
L 2906 4863 
L 3481 4863 
L 3481 0 
L 2906 0 
L 2906 525 
Q 2725 213 2448 61 
Q 2172 -91 1784 -91 
Q 1150 -91 751 415 
Q 353 922 353 1747 
Q 353 2572 751 3078 
Q 1150 3584 1784 3584 
Q 2172 3584 2448 3432 
Q 2725 3281 2906 2969 
z
M 947 1747 
Q 947 1113 1208 752 
Q 1469 391 1925 391 
Q 2381 391 2643 752 
Q 2906 1113 2906 1747 
Q 2906 2381 2643 2742 
Q 2381 3103 1925 3103 
Q 1469 3103 1208 2742 
Q 947 2381 947 1747 
z
" transform="scale(0.015625)"/>
      </defs>
      <use xlink:href="#DejaVuSans-46"/>
      <use xlink:href="#DejaVuSans-72" x="50.269531"/>
      <use xlink:href="#DejaVuSans-61" x="91.382812"/>
      <use xlink:href="#DejaVuSans-63" x="152.662109"/>
      <use xlink:href="#DejaVuSans-74" x="207.642578"/>
      <use xlink:href="#DejaVuSans-69" x="246.851562"/>
      <use xlink:href="#DejaVuSans-6f" x="274.634766"/>
      <use xlink:href="#DejaVuSans-6e" x="335.816406"/>
      <use xlink:href="#DejaVuSans-20" x="399.195312"/>
      <use xlink:href="#DejaVuSans-6f" x="430.982422"/>
      <use xlink:href="#DejaVuSans-66" x="492.164062"/>
      <use xlink:href="#DejaVuSans-20" x="527.369141"/>
      <use xlink:href="#DejaVuSans-70" x="559.15625"/>
      <use xlink:href="#DejaVuSans-65" x="622.632812"/>
      <use xlink:href="#DejaVuSans-6e" x="684.15625"/>
      <use xlink:href="#DejaVuSans-65" x="747.535156"/>
      <use xlink:href="#DejaVuSans-74" x="809.058594"/>
      <use xlink:href="#DejaVuSans-72" x="848.267578"/>
      <use xlink:href="#DejaVuSans-61" x="889.380859"/>
      <use xlink:href="#DejaVuSans-74" x="950.660156"/>
      <use xlink:href="#DejaVuSans-65" x="989.869141"/>
      <use xlink:href="#DejaVuSans-64" x="1051.392578"/>
      <use xlink:href="#DejaVuSans-20" x="1114.869141"/>
      <use xlink:href="#DejaVuSans-74" x="1146.65625"/>
      <use xlink:href="#DejaVuSans-72" x="1185.865234"/>
      <use xlink:href="#DejaVuSans-61" x="1226.978516"/>
      <use xlink:href="#DejaVuSans-63" x="1288.257812"/>
      <use xlink:href="#DejaVuSans-65" x="1343.238281"/>
      <use xlink:href="#DejaVuSans-72" x="1404.761719"/>
      <use xlink:href="#DejaVuSans-73" x="1445.875"/>
     </g>
    </g>
   </g>
   <g id="line2d_13">
    <path d="M 86.868981 288.890182 
L 95.650972 197.318749 
L 104.432963 139.892596 
L 113.214954 90.226735 
L 121.996944 69.532625 
L 130.778935 54.529396 
L 139.560926 45.7344 
L 148.342917 42.112931 
L 157.124907 36.422051 
L 165.906898 33.835287 
L 174.688889 32.283229 
L 183.47088 31.765876 
L 192.25287 31.248524 
L 201.034861 30.731171 
L 209.816852 30.731171 
L 218.598842 30.213818 
L 227.380833 30.213818 
L 236.162824 30.213818 
L 244.944815 30.213818 
L 253.726805 30.213818 
L 262.508796 30.213818 
L 271.290787 30.213818 
L 280.072778 30.213818 
L 288.854768 30.213818 
L 297.636759 30.213818 
L 306.41875 30.213818 
L 315.20074 30.213818 
L 323.982731 30.213818 
L 332.764722 30.213818 
L 341.546713 30.213818 
L 350.328703 30.213818 
L 359.110694 30.213818 
L 367.892685 30.213818 
L 376.674676 30.213818 
L 385.456666 30.213818 
L 394.238657 30.213818 
L 403.020648 30.213818 
L 411.802639 30.213818 
L 420.584629 30.213818 
L 429.36662 30.213818 
L 438.148611 30.213818 
" clip-path="url(#p3694627d69)" style="fill: none; stroke-dasharray: 5.55,2.4; stroke-dashoffset: 0; stroke: #1f77b4; stroke-width: 1.5"/>
   </g>
   <g id="line2d_14">
    <path d="M 86.868981 288.890182 
L 95.650972 190.593164 
L 104.432963 129.028189 
L 113.214954 84.018502 
L 121.996944 64.876451 
L 130.778935 50.907927 
L 139.560926 42.630284 
L 148.342917 37.974109 
L 157.124907 34.35264 
L 165.906898 32.800582 
L 174.688889 32.283229 
L 183.47088 31.765876 
L 192.25287 30.731171 
L 201.034861 30.213818 
L 209.816852 30.213818 
L 218.598842 30.213818 
L 227.380833 30.213818 
L 236.162824 30.213818 
L 244.944815 30.213818 
L 253.726805 30.213818 
L 262.508796 30.213818 
L 271.290787 30.213818 
L 280.072778 30.213818 
L 288.854768 30.213818 
L 297.636759 30.213818 
L 306.41875 30.213818 
L 315.20074 30.213818 
L 323.982731 30.213818 
L 332.764722 30.213818 
L 341.546713 30.213818 
L 350.328703 30.213818 
L 359.110694 30.213818 
L 367.892685 30.213818 
L 376.674676 30.213818 
L 385.456666 30.213818 
L 394.238657 30.213818 
L 403.020648 30.213818 
L 411.802639 30.213818 
L 420.584629 30.213818 
L 429.36662 30.213818 
L 438.148611 30.213818 
" clip-path="url(#p3694627d69)" style="fill: none; stroke: #1f77b4; stroke-width: 1.5; stroke-linecap: square"/>
   </g>
   <g id="line2d_15">
    <path d="M 86.868981 288.890182 
L 95.650972 260.435782 
L 104.432963 234.568145 
L 113.214954 207.665804 
L 121.996944 185.419636 
L 130.778935 166.277585 
L 139.560926 150.757004 
L 148.342917 137.305833 
L 157.124907 126.441425 
L 165.906898 116.611724 
L 174.688889 107.816727 
L 183.47088 101.091142 
L 192.25287 87.639971 
L 201.034861 82.983796 
L 209.816852 78.844975 
L 218.598842 74.706153 
L 227.380833 71.602036 
L 236.162824 66.428509 
L 244.944815 63.324393 
L 253.726805 59.702924 
L 262.508796 54.529396 
L 271.290787 53.494691 
L 280.072778 51.942633 
L 288.854768 49.355869 
L 297.636759 48.838516 
L 306.41875 46.769105 
L 315.20074 44.699695 
L 323.982731 43.664989 
L 332.764722 41.595578 
L 341.546713 40.560873 
L 350.328703 40.04352 
L 359.110694 37.974109 
L 367.892685 37.456756 
L 376.674676 37.456756 
L 385.456666 36.939404 
L 394.238657 36.422051 
L 403.020648 35.387345 
L 411.802639 34.869993 
L 420.584629 34.35264 
L 429.36662 34.35264 
L 438.148611 34.35264 
" clip-path="url(#p3694627d69)" style="fill: none; stroke-dasharray: 5.55,2.4; stroke-dashoffset: 0; stroke: #ff7f0e; stroke-width: 1.5"/>
   </g>
   <g id="line2d_16">
    <path d="M 86.868981 288.890182 
L 95.650972 252.158138 
L 104.432963 212.839331 
L 113.214954 185.419636 
L 121.996944 164.725527 
L 130.778935 143.514065 
L 139.560926 129.545542 
L 148.342917 117.129076 
L 157.124907 107.299375 
L 165.906898 93.330851 
L 174.688889 86.605265 
L 183.47088 76.258211 
L 192.25287 69.015273 
L 201.034861 64.876451 
L 209.816852 59.702924 
L 218.598842 55.564102 
L 227.380833 51.42528 
L 236.162824 46.769105 
L 244.944815 44.182342 
L 253.726805 43.147636 
L 262.508796 41.595578 
L 271.290787 40.560873 
L 280.072778 39.008815 
L 288.854768 37.456756 
L 297.636759 37.456756 
L 306.41875 35.904698 
L 315.20074 33.835287 
L 323.982731 33.835287 
L 332.764722 33.317935 
L 341.546713 32.800582 
L 350.328703 32.283229 
L 359.110694 32.283229 
L 367.892685 32.283229 
L 376.674676 32.283229 
L 385.456666 32.283229 
L 394.238657 32.283229 
L 403.020648 31.765876 
L 411.802639 31.248524 
L 420.584629 31.248524 
L 429.36662 31.248524 
L 438.148611 31.248524 
" clip-path="url(#p3694627d69)" style="fill: none; stroke: #ff7f0e; stroke-width: 1.5; stroke-linecap: square"/>
   </g>
   <g id="line2d_17">
    <path d="M 86.868981 288.890182 
L 95.650972 277.508422 
L 104.432963 263.022545 
L 113.214954 254.744902 
L 121.996944 246.984611 
L 130.778935 237.154909 
L 139.560926 227.325207 
L 148.342917 215.943447 
L 157.124907 205.596393 
L 165.906898 198.870807 
L 174.688889 193.179927 
L 183.47088 189.041105 
L 192.25287 181.280815 
L 201.034861 176.107287 
L 209.816852 173.520524 
L 218.598842 170.416407 
L 227.380833 163.173469 
L 236.162824 157.482589 
L 244.944815 152.309062 
L 253.726805 146.618182 
L 262.508796 142.47936 
L 271.290787 137.823185 
L 280.072778 133.167011 
L 288.854768 130.580247 
L 297.636759 128.510836 
L 306.41875 125.40672 
L 315.20074 123.854662 
L 323.982731 118.681135 
L 332.764722 115.577018 
L 341.546713 109.886138 
L 350.328703 105.229964 
L 359.110694 103.677905 
L 367.892685 100.056436 
L 376.674676 97.469673 
L 385.456666 93.848204 
L 394.238657 91.778793 
L 403.020648 89.192029 
L 411.802639 86.605265 
L 420.584629 84.535855 
L 429.36662 80.397033 
L 438.148611 79.362327 
" clip-path="url(#p3694627d69)" style="fill: none; stroke-dasharray: 5.55,2.4; stroke-dashoffset: 0; stroke: #2ca02c; stroke-width: 1.5"/>
   </g>
   <g id="line2d_18">
    <path d="M 86.868981 288.890182 
L 95.650972 270.782836 
L 104.432963 257.331665 
L 113.214954 242.845789 
L 121.996944 225.773149 
L 130.778935 213.356684 
L 139.560926 205.07904 
L 148.342917 194.731985 
L 157.124907 188.523753 
L 165.906898 178.176698 
L 174.688889 167.312291 
L 183.47088 161.104058 
L 192.25287 152.826415 
L 201.034861 146.100829 
L 209.816852 138.857891 
L 218.598842 132.132305 
L 227.380833 123.854662 
L 236.162824 118.163782 
L 244.944815 112.990255 
L 253.726805 108.851433 
L 262.508796 105.229964 
L 271.290787 97.987025 
L 280.072778 93.848204 
L 288.854768 91.26144 
L 297.636759 88.157324 
L 306.41875 85.053207 
L 315.20074 81.949091 
L 323.982731 79.362327 
L 332.764722 74.706153 
L 341.546713 69.015273 
L 350.328703 67.463215 
L 359.110694 64.359098 
L 367.892685 62.289687 
L 376.674676 60.220276 
L 385.456666 57.633513 
L 394.238657 57.11616 
L 403.020648 56.081455 
L 411.802639 55.564102 
L 420.584629 53.494691 
L 429.36662 52.459985 
L 438.148611 51.42528 
" clip-path="url(#p3694627d69)" style="fill: none; stroke: #2ca02c; stroke-width: 1.5; stroke-linecap: square"/>
   </g>
   <g id="line2d_19">
    <path d="M 86.868981 288.890182 
L 95.650972 286.820771 
L 104.432963 283.199302 
L 113.214954 279.577833 
L 121.996944 277.508422 
L 130.778935 275.439011 
L 139.560926 271.817542 
L 148.342917 269.230778 
L 157.124907 265.609309 
L 165.906898 263.022545 
L 174.688889 259.918429 
L 183.47088 258.883724 
L 192.25287 255.779607 
L 201.034861 251.640785 
L 209.816852 249.571375 
L 218.598842 248.019316 
L 227.380833 246.984611 
L 236.162824 243.363142 
L 244.944815 239.741673 
L 253.726805 236.120204 
L 262.508796 233.016087 
L 271.290787 231.464029 
L 280.072778 230.946676 
L 288.854768 228.359913 
L 297.636759 227.325207 
L 306.41875 221.634327 
L 315.20074 219.047564 
L 323.982731 218.012858 
L 332.764722 215.943447 
L 341.546713 214.391389 
L 350.328703 211.287273 
L 359.110694 208.700509 
L 367.892685 205.07904 
L 376.674676 202.492276 
L 385.456666 200.940218 
L 394.238657 199.905513 
L 403.020648 197.836102 
L 411.802639 196.801396 
L 420.584629 195.249338 
L 429.36662 191.627869 
L 438.148611 189.558458 
" clip-path="url(#p3694627d69)" style="fill: none; stroke-dasharray: 5.55,2.4; stroke-dashoffset: 0; stroke: #d62728; stroke-width: 1.5"/>
   </g>
   <g id="line2d_20">
    <path d="M 86.868981 288.890182 
L 95.650972 282.164596 
L 104.432963 275.956364 
L 113.214954 267.67872 
L 121.996944 264.057251 
L 130.778935 257.849018 
L 139.560926 252.158138 
L 148.342917 245.432553 
L 157.124907 242.845789 
L 165.906898 238.706967 
L 174.688889 233.53344 
L 183.47088 228.877265 
L 192.25287 224.221091 
L 201.034861 219.564916 
L 209.816852 213.874036 
L 218.598842 209.217862 
L 227.380833 204.561687 
L 236.162824 199.905513 
L 244.944815 196.284044 
L 253.726805 192.662575 
L 262.508796 184.902284 
L 271.290787 179.211404 
L 280.072778 175.072582 
L 288.854768 171.451113 
L 297.636759 169.381702 
L 306.41875 165.760233 
L 315.20074 160.586705 
L 323.982731 154.895825 
L 332.764722 152.309062 
L 341.546713 149.722298 
L 350.328703 148.17024 
L 359.110694 147.135535 
L 367.892685 144.548771 
L 376.674676 141.444655 
L 385.456666 139.375244 
L 394.238657 136.78848 
L 403.020648 132.649658 
L 411.802639 130.580247 
L 420.584629 127.993484 
L 429.36662 125.924073 
L 438.148611 121.785251 
" clip-path="url(#p3694627d69)" style="fill: none; stroke: #d62728; stroke-width: 1.5; stroke-linecap: square"/>
   </g>
   <g id="line2d_21">
    <path d="M 86.868981 288.890182 
L 95.650972 286.820771 
L 104.432963 285.786065 
L 113.214954 284.75136 
L 121.996944 283.716655 
L 130.778935 282.164596 
L 139.560926 281.647244 
L 148.342917 281.129891 
L 157.124907 280.095185 
L 165.906898 279.577833 
L 174.688889 279.06048 
L 183.47088 279.06048 
L 192.25287 278.025775 
L 201.034861 277.508422 
L 209.816852 276.991069 
L 218.598842 276.991069 
L 227.380833 275.439011 
L 236.162824 274.404305 
L 244.944815 273.3696 
L 253.726805 273.3696 
L 262.508796 272.334895 
L 271.290787 271.300189 
L 280.072778 270.782836 
L 288.854768 269.748131 
L 297.636759 268.196073 
L 306.41875 268.196073 
L 315.20074 266.644015 
L 323.982731 264.574604 
L 332.764722 264.057251 
L 341.546713 263.539898 
L 350.328703 262.505193 
L 359.110694 261.470487 
L 367.892685 260.435782 
L 376.674676 259.918429 
L 385.456666 259.401076 
L 394.238657 257.849018 
L 403.020648 257.331665 
L 411.802639 257.331665 
L 420.584629 257.331665 
L 429.36662 257.331665 
L 438.148611 255.779607 
" clip-path="url(#p3694627d69)" style="fill: none; stroke-dasharray: 5.55,2.4; stroke-dashoffset: 0; stroke: #9467bd; stroke-width: 1.5"/>
   </g>
   <g id="line2d_22">
    <path d="M 86.868981 288.890182 
L 95.650972 286.303418 
L 104.432963 283.199302 
L 113.214954 282.164596 
L 121.996944 279.577833 
L 130.778935 276.991069 
L 139.560926 276.473716 
L 148.342917 274.921658 
L 157.124907 271.300189 
L 165.906898 270.265484 
L 174.688889 269.748131 
L 183.47088 267.67872 
L 192.25287 265.609309 
L 201.034861 262.505193 
L 209.816852 260.953135 
L 218.598842 258.883724 
L 227.380833 255.779607 
L 236.162824 254.227549 
L 244.944815 249.054022 
L 253.726805 249.054022 
L 262.508796 246.984611 
L 271.290787 242.845789 
L 280.072778 240.776378 
L 288.854768 239.741673 
L 297.636759 239.22432 
L 306.41875 238.189615 
L 315.20074 235.602851 
L 323.982731 234.568145 
L 332.764722 231.981382 
L 341.546713 227.325207 
L 350.328703 222.15168 
L 359.110694 222.15168 
L 367.892685 220.082269 
L 376.674676 219.047564 
L 385.456666 217.495505 
L 394.238657 215.943447 
L 403.020648 214.908742 
L 411.802639 213.356684 
L 420.584629 210.252567 
L 429.36662 208.700509 
L 438.148611 207.148451 
" clip-path="url(#p3694627d69)" style="fill: none; stroke: #9467bd; stroke-width: 1.5; stroke-linecap: square"/>
   </g>
   <g id="patch_3">
    <path d="M 69.305 301.824 
L 69.305 17.28 
" style="fill: none; stroke: #000000; stroke-width: 0.8; stroke-linejoin: miter; stroke-linecap: square"/>
   </g>
   <g id="patch_4">
    <path d="M 455.712592 301.824 
L 455.712592 17.28 
" style="fill: none; stroke: #000000; stroke-width: 0.8; stroke-linejoin: miter; stroke-linecap: square"/>
   </g>
   <g id="patch_5">
    <path d="M 69.305 301.824 
L 455.712592 301.824 
" style="fill: none; stroke: #000000; stroke-width: 0.8; stroke-linejoin: miter; stroke-linecap: square"/>
   </g>
   <g id="patch_6">
    <path d="M 69.305 17.28 
L 455.712592 17.28 
" style="fill: none; stroke: #000000; stroke-width: 0.8; stroke-linejoin: miter; stroke-linecap: square"/>
   </g>
   <g id="legend_1">
    <g id="patch_7">
     <path d="M 38.908796 404.2756 
L 486.108796 404.2756 
Q 489.308796 404.2756 489.308796 401.0756 
L 489.308796 355.7056 
Q 489.308796 352.5056 486.108796 352.5056 
L 38.908796 352.5056 
Q 35.708796 352.5056 35.708796 355.7056 
L 35.708796 401.0756 
Q 35.708796 404.2756 38.908796 404.2756 
z
" style="fill: #ffffff; opacity: 0.8; stroke: #cccccc; stroke-linejoin: miter"/>
    </g>
    <g id="line2d_23">
     <path d="M 42.108796 365.4631 
L 58.108796 365.4631 
L 74.108796 365.4631 
" style="fill: none; stroke: #1f77b4; stroke-width: 1.5; stroke-linecap: square"/>
    </g>
    <g id="text_15">
     <!-- $\sigma_t=$10nm -->
     <g transform="translate(86.908796 371.0631) scale(0.16 -0.16)">
      <defs>
       <path id="DejaVuSans-Oblique-3c3" d="M 2219 3044 
Q 1744 3044 1422 2700 
Q 1081 2341 969 1747 
Q 844 1119 1044 756 
Q 1241 397 1706 397 
Q 2166 397 2503 759 
Q 2844 1122 2966 1747 
Q 3075 2319 2881 2700 
Q 2700 3044 2219 3044 
z
M 2309 3503 
L 4219 3500 
L 4106 2925 
L 3463 2925 
Q 3706 2438 3575 1747 
Q 3406 888 2884 400 
Q 2359 -91 1609 -91 
Q 856 -91 525 400 
Q 194 888 363 1747 
Q 528 2609 1050 3097 
Q 1484 3503 2309 3503 
z
" transform="scale(0.015625)"/>
       <path id="DejaVuSans-Oblique-74" d="M 2706 3500 
L 2619 3053 
L 1472 3053 
L 1100 1153 
Q 1081 1047 1072 975 
Q 1063 903 1063 863 
Q 1063 663 1183 572 
Q 1303 481 1569 481 
L 2150 481 
L 2053 0 
L 1503 0 
Q 991 0 739 200 
Q 488 400 488 806 
Q 488 878 497 964 
Q 506 1050 525 1153 
L 897 3053 
L 409 3053 
L 500 3500 
L 978 3500 
L 1172 4494 
L 1747 4494 
L 1556 3500 
L 2706 3500 
z
" transform="scale(0.015625)"/>
       <path id="DejaVuSans-3d" d="M 678 2906 
L 4684 2906 
L 4684 2381 
L 678 2381 
L 678 2906 
z
M 678 1631 
L 4684 1631 
L 4684 1100 
L 678 1100 
L 678 1631 
z
" transform="scale(0.015625)"/>
      </defs>
      <use xlink:href="#DejaVuSans-Oblique-3c3" transform="translate(0 0.78125)"/>
      <use xlink:href="#DejaVuSans-Oblique-74" transform="translate(63.378906 -15.625) scale(0.7)"/>
      <use xlink:href="#DejaVuSans-3d" transform="translate(113.041992 0.78125)"/>
      <use xlink:href="#DejaVuSans-31" transform="translate(216.313477 0.78125)"/>
      <use xlink:href="#DejaVuSans-30" transform="translate(279.936523 0.78125)"/>
      <use xlink:href="#DejaVuSans-6e" transform="translate(343.55957 0.78125)"/>
      <use xlink:href="#DejaVuSans-6d" transform="translate(406.938477 0.78125)"/>
     </g>
    </g>
    <g id="line2d_24">
     <path d="M 42.108796 388.9481 
L 58.108796 388.9481 
L 74.108796 388.9481 
" style="fill: none; stroke: #ff7f0e; stroke-width: 1.5; stroke-linecap: square"/>
    </g>
    <g id="text_16">
     <!-- $\sigma_t=$14nm -->
     <g transform="translate(86.908796 394.5481) scale(0.16 -0.16)">
      <use xlink:href="#DejaVuSans-Oblique-3c3" transform="translate(0 0.09375)"/>
      <use xlink:href="#DejaVuSans-Oblique-74" transform="translate(63.378906 -16.3125) scale(0.7)"/>
      <use xlink:href="#DejaVuSans-3d" transform="translate(113.041992 0.09375)"/>
      <use xlink:href="#DejaVuSans-31" transform="translate(216.313477 0.09375)"/>
      <use xlink:href="#DejaVuSans-34" transform="translate(279.936523 0.09375)"/>
      <use xlink:href="#DejaVuSans-6e" transform="translate(343.55957 0.09375)"/>
      <use xlink:href="#DejaVuSans-6d" transform="translate(406.938477 0.09375)"/>
     </g>
    </g>
    <g id="line2d_25">
     <path d="M 199.708796 365.4631 
L 215.708796 365.4631 
L 231.708796 365.4631 
" style="fill: none; stroke: #2ca02c; stroke-width: 1.5; stroke-linecap: square"/>
    </g>
    <g id="text_17">
     <!-- $\sigma_t=$16nm -->
     <g transform="translate(244.508796 371.0631) scale(0.16 -0.16)">
      <use xlink:href="#DejaVuSans-Oblique-3c3" transform="translate(0 0.78125)"/>
      <use xlink:href="#DejaVuSans-Oblique-74" transform="translate(63.378906 -15.625) scale(0.7)"/>
      <use xlink:href="#DejaVuSans-3d" transform="translate(113.041992 0.78125)"/>
      <use xlink:href="#DejaVuSans-31" transform="translate(216.313477 0.78125)"/>
      <use xlink:href="#DejaVuSans-36" transform="translate(279.936523 0.78125)"/>
      <use xlink:href="#DejaVuSans-6e" transform="translate(343.55957 0.78125)"/>
      <use xlink:href="#DejaVuSans-6d" transform="translate(406.938477 0.78125)"/>
     </g>
    </g>
    <g id="line2d_26">
     <path d="M 199.708796 388.9481 
L 215.708796 388.9481 
L 231.708796 388.9481 
" style="fill: none; stroke: #d62728; stroke-width: 1.5; stroke-linecap: square"/>
    </g>
    <g id="text_18">
     <!-- $\sigma_t=$18nm -->
     <g transform="translate(244.508796 394.5481) scale(0.16 -0.16)">
      <use xlink:href="#DejaVuSans-Oblique-3c3" transform="translate(0 0.78125)"/>
      <use xlink:href="#DejaVuSans-Oblique-74" transform="translate(63.378906 -15.625) scale(0.7)"/>
      <use xlink:href="#DejaVuSans-3d" transform="translate(113.041992 0.78125)"/>
      <use xlink:href="#DejaVuSans-31" transform="translate(216.313477 0.78125)"/>
      <use xlink:href="#DejaVuSans-38" transform="translate(279.936523 0.78125)"/>
      <use xlink:href="#DejaVuSans-6e" transform="translate(343.55957 0.78125)"/>
      <use xlink:href="#DejaVuSans-6d" transform="translate(406.938477 0.78125)"/>
     </g>
    </g>
    <g id="line2d_27">
     <path d="M 357.308796 365.4631 
L 373.308796 365.4631 
L 389.308796 365.4631 
" style="fill: none; stroke: #9467bd; stroke-width: 1.5; stroke-linecap: square"/>
    </g>
    <g id="text_19">
     <!-- $\sigma_t=$20nm -->
     <g transform="translate(402.108796 371.0631) scale(0.16 -0.16)">
      <use xlink:href="#DejaVuSans-Oblique-3c3" transform="translate(0 0.78125)"/>
      <use xlink:href="#DejaVuSans-Oblique-74" transform="translate(63.378906 -15.625) scale(0.7)"/>
      <use xlink:href="#DejaVuSans-3d" transform="translate(113.041992 0.78125)"/>
      <use xlink:href="#DejaVuSans-32" transform="translate(216.313477 0.78125)"/>
      <use xlink:href="#DejaVuSans-30" transform="translate(279.936523 0.78125)"/>
      <use xlink:href="#DejaVuSans-6e" transform="translate(343.55957 0.78125)"/>
      <use xlink:href="#DejaVuSans-6d" transform="translate(406.938477 0.78125)"/>
     </g>
    </g>
   </g>
  </g>
 </g>
 <defs>
  <clipPath id="p3694627d69">
   <rect x="69.305" y="17.28" width="386.407592" height="284.544"/>
  </clipPath>
 </defs>
</svg>
