<?xml version="1.0" encoding="utf-8" standalone="no"?>
<!DOCTYPE svg PUBLIC "-//W3C//DTD SVG 1.1//EN"
  "http://www.w3.org/Graphics/SVG/1.1/DTD/svg11.dtd">
<svg xmlns:xlink="http://www.w3.org/1999/xlink" width="460.8pt" height="345.6pt" viewBox="0 0 460.8 345.6" xmlns="http://www.w3.org/2000/svg" version="1.1">
 <metadata>
  <rdf:RDF xmlns:dc="http://purl.org/dc/elements/1.1/" xmlns:cc="http://creativecommons.org/ns#" xmlns:rdf="http://www.w3.org/1999/02/22-rdf-syntax-ns#">
   <cc:Work>
    <dc:type rdf:resource="http://purl.org/dc/dcmitype/StillImage"/>
    <dc:date>2024-09-25T13:58:00.090334</dc:date>
    <dc:format>image/svg+xml</dc:format>
    <dc:creator>
     <cc:Agent>
      <dc:title>Matplotlib v3.8.2, https://matplotlib.org/</dc:title>
     </cc:Agent>
    </dc:creator>
   </cc:Work>
  </rdf:RDF>
 </metadata>
 <defs>
  <style type="text/css">*{stroke-linejoin: round; stroke-linecap: butt}</style>
 </defs>
 <g id="figure_1">
  <g id="patch_1">
   <path d="M 0 345.6 
L 460.8 345.6 
L 460.8 0 
L 0 0 
z
" style="fill: #ffffff"/>
  </g>
  <g id="axes_1">
   <g id="patch_2">
    <path d="M 57.6 307.584 
L 414.72 307.584 
L 414.72 41.472 
L 57.6 41.472 
z
" style="fill: #ffffff"/>
   </g>
   <g id="matplotlib.axis_1">
    <g id="xtick_1">
     <g id="line2d_1">
      <defs>
       <path id="m4363833582" d="M 0 0 
L 0 3.5 
" style="stroke: #000000; stroke-width: 0.8"/>
      </defs>
      <g>
       <use xlink:href="#m4363833582" x="73.832727" y="307.584" style="stroke: #000000; stroke-width: 0.8"/>
      </g>
     </g>
     <g id="text_1">
      <!-- 0 -->
      <g transform="translate(68.742727 326.7415) scale(0.16 -0.16)">
       <defs>
        <path id="DejaVuSans-30" d="M 2034 4250 
Q 1547 4250 1301 3770 
Q 1056 3291 1056 2328 
Q 1056 1369 1301 889 
Q 1547 409 2034 409 
Q 2525 409 2770 889 
Q 3016 1369 3016 2328 
Q 3016 3291 2770 3770 
Q 2525 4250 2034 4250 
z
M 2034 4750 
Q 2819 4750 3233 4129 
Q 3647 3509 3647 2328 
Q 3647 1150 3233 529 
Q 2819 -91 2034 -91 
Q 1250 -91 836 529 
Q 422 1150 422 2328 
Q 422 3509 836 4129 
Q 1250 4750 2034 4750 
z
" transform="scale(0.015625)"/>
       </defs>
       <use xlink:href="#DejaVuSans-30"/>
      </g>
     </g>
    </g>
    <g id="xtick_2">
     <g id="line2d_2">
      <g>
       <use xlink:href="#m4363833582" x="138.763636" y="307.584" style="stroke: #000000; stroke-width: 0.8"/>
      </g>
     </g>
     <g id="text_2">
      <!-- 20 -->
      <g transform="translate(128.583636 326.7415) scale(0.16 -0.16)">
       <defs>
        <path id="DejaVuSans-32" d="M 1228 531 
L 3431 531 
L 3431 0 
L 469 0 
L 469 531 
Q 828 903 1448 1529 
Q 2069 2156 2228 2338 
Q 2531 2678 2651 2914 
Q 2772 3150 2772 3378 
Q 2772 3750 2511 3984 
Q 2250 4219 1831 4219 
Q 1534 4219 1204 4116 
Q 875 4013 500 3803 
L 500 4441 
Q 881 4594 1212 4672 
Q 1544 4750 1819 4750 
Q 2544 4750 2975 4387 
Q 3406 4025 3406 3419 
Q 3406 3131 3298 2873 
Q 3191 2616 2906 2266 
Q 2828 2175 2409 1742 
Q 1991 1309 1228 531 
z
" transform="scale(0.015625)"/>
       </defs>
       <use xlink:href="#DejaVuSans-32"/>
       <use xlink:href="#DejaVuSans-30" x="63.623047"/>
      </g>
     </g>
    </g>
    <g id="xtick_3">
     <g id="line2d_3">
      <g>
       <use xlink:href="#m4363833582" x="203.694545" y="307.584" style="stroke: #000000; stroke-width: 0.8"/>
      </g>
     </g>
     <g id="text_3">
      <!-- 40 -->
      <g transform="translate(193.514545 326.7415) scale(0.16 -0.16)">
       <defs>
        <path id="DejaVuSans-34" d="M 2419 4116 
L 825 1625 
L 2419 1625 
L 2419 4116 
z
M 2253 4666 
L 3047 4666 
L 3047 1625 
L 3713 1625 
L 3713 1100 
L 3047 1100 
L 3047 0 
L 2419 0 
L 2419 1100 
L 313 1100 
L 313 1709 
L 2253 4666 
z
" transform="scale(0.015625)"/>
       </defs>
       <use xlink:href="#DejaVuSans-34"/>
       <use xlink:href="#DejaVuSans-30" x="63.623047"/>
      </g>
     </g>
    </g>
    <g id="xtick_4">
     <g id="line2d_4">
      <g>
       <use xlink:href="#m4363833582" x="268.625455" y="307.584" style="stroke: #000000; stroke-width: 0.8"/>
      </g>
     </g>
     <g id="text_4">
      <!-- 60 -->
      <g transform="translate(258.445455 326.7415) scale(0.16 -0.16)">
       <defs>
        <path id="DejaVuSans-36" d="M 2113 2584 
Q 1688 2584 1439 2293 
Q 1191 2003 1191 1497 
Q 1191 994 1439 701 
Q 1688 409 2113 409 
Q 2538 409 2786 701 
Q 3034 994 3034 1497 
Q 3034 2003 2786 2293 
Q 2538 2584 2113 2584 
z
M 3366 4563 
L 3366 3988 
Q 3128 4100 2886 4159 
Q 2644 4219 2406 4219 
Q 1781 4219 1451 3797 
Q 1122 3375 1075 2522 
Q 1259 2794 1537 2939 
Q 1816 3084 2150 3084 
Q 2853 3084 3261 2657 
Q 3669 2231 3669 1497 
Q 3669 778 3244 343 
Q 2819 -91 2113 -91 
Q 1303 -91 875 529 
Q 447 1150 447 2328 
Q 447 3434 972 4092 
Q 1497 4750 2381 4750 
Q 2619 4750 2861 4703 
Q 3103 4656 3366 4563 
z
" transform="scale(0.015625)"/>
       </defs>
       <use xlink:href="#DejaVuSans-36"/>
       <use xlink:href="#DejaVuSans-30" x="63.623047"/>
      </g>
     </g>
    </g>
    <g id="xtick_5">
     <g id="line2d_5">
      <g>
       <use xlink:href="#m4363833582" x="333.556364" y="307.584" style="stroke: #000000; stroke-width: 0.8"/>
      </g>
     </g>
     <g id="text_5">
      <!-- 80 -->
      <g transform="translate(323.376364 326.7415) scale(0.16 -0.16)">
       <defs>
        <path id="DejaVuSans-38" d="M 2034 2216 
Q 1584 2216 1326 1975 
Q 1069 1734 1069 1313 
Q 1069 891 1326 650 
Q 1584 409 2034 409 
Q 2484 409 2743 651 
Q 3003 894 3003 1313 
Q 3003 1734 2745 1975 
Q 2488 2216 2034 2216 
z
M 1403 2484 
Q 997 2584 770 2862 
Q 544 3141 544 3541 
Q 544 4100 942 4425 
Q 1341 4750 2034 4750 
Q 2731 4750 3128 4425 
Q 3525 4100 3525 3541 
Q 3525 3141 3298 2862 
Q 3072 2584 2669 2484 
Q 3125 2378 3379 2068 
Q 3634 1759 3634 1313 
Q 3634 634 3220 271 
Q 2806 -91 2034 -91 
Q 1263 -91 848 271 
Q 434 634 434 1313 
Q 434 1759 690 2068 
Q 947 2378 1403 2484 
z
M 1172 3481 
Q 1172 3119 1398 2916 
Q 1625 2713 2034 2713 
Q 2441 2713 2670 2916 
Q 2900 3119 2900 3481 
Q 2900 3844 2670 4047 
Q 2441 4250 2034 4250 
Q 1625 4250 1398 4047 
Q 1172 3844 1172 3481 
z
" transform="scale(0.015625)"/>
       </defs>
       <use xlink:href="#DejaVuSans-38"/>
       <use xlink:href="#DejaVuSans-30" x="63.623047"/>
      </g>
     </g>
    </g>
    <g id="xtick_6">
     <g id="line2d_6">
      <g>
       <use xlink:href="#m4363833582" x="398.487273" y="307.584" style="stroke: #000000; stroke-width: 0.8"/>
      </g>
     </g>
     <g id="text_6">
      <!-- 100 -->
      <g transform="translate(383.217273 326.7415) scale(0.16 -0.16)">
       <defs>
        <path id="DejaVuSans-31" d="M 794 531 
L 1825 531 
L 1825 4091 
L 703 3866 
L 703 4441 
L 1819 4666 
L 2450 4666 
L 2450 531 
L 3481 531 
L 3481 0 
L 794 0 
L 794 531 
z
" transform="scale(0.015625)"/>
       </defs>
       <use xlink:href="#DejaVuSans-31"/>
       <use xlink:href="#DejaVuSans-30" x="63.623047"/>
       <use xlink:href="#DejaVuSans-30" x="127.246094"/>
      </g>
     </g>
    </g>
    <g id="text_7">
     <!-- Time (ms) -->
     <g transform="translate(195.84125 346.2265) scale(0.16 -0.16)">
      <defs>
       <path id="DejaVuSans-54" d="M -19 4666 
L 3928 4666 
L 3928 4134 
L 2272 4134 
L 2272 0 
L 1638 0 
L 1638 4134 
L -19 4134 
L -19 4666 
z
" transform="scale(0.015625)"/>
       <path id="DejaVuSans-69" d="M 603 3500 
L 1178 3500 
L 1178 0 
L 603 0 
L 603 3500 
z
M 603 4863 
L 1178 4863 
L 1178 4134 
L 603 4134 
L 603 4863 
z
" transform="scale(0.015625)"/>
       <path id="DejaVuSans-6d" d="M 3328 2828 
Q 3544 3216 3844 3400 
Q 4144 3584 4550 3584 
Q 5097 3584 5394 3201 
Q 5691 2819 5691 2113 
L 5691 0 
L 5113 0 
L 5113 2094 
Q 5113 2597 4934 2840 
Q 4756 3084 4391 3084 
Q 3944 3084 3684 2787 
Q 3425 2491 3425 1978 
L 3425 0 
L 2847 0 
L 2847 2094 
Q 2847 2600 2669 2842 
Q 2491 3084 2119 3084 
Q 1678 3084 1418 2786 
Q 1159 2488 1159 1978 
L 1159 0 
L 581 0 
L 581 3500 
L 1159 3500 
L 1159 2956 
Q 1356 3278 1631 3431 
Q 1906 3584 2284 3584 
Q 2666 3584 2933 3390 
Q 3200 3197 3328 2828 
z
" transform="scale(0.015625)"/>
       <path id="DejaVuSans-65" d="M 3597 1894 
L 3597 1613 
L 953 1613 
Q 991 1019 1311 708 
Q 1631 397 2203 397 
Q 2534 397 2845 478 
Q 3156 559 3463 722 
L 3463 178 
Q 3153 47 2828 -22 
Q 2503 -91 2169 -91 
Q 1331 -91 842 396 
Q 353 884 353 1716 
Q 353 2575 817 3079 
Q 1281 3584 2069 3584 
Q 2775 3584 3186 3129 
Q 3597 2675 3597 1894 
z
M 3022 2063 
Q 3016 2534 2758 2815 
Q 2500 3097 2075 3097 
Q 1594 3097 1305 2825 
Q 1016 2553 972 2059 
L 3022 2063 
z
" transform="scale(0.015625)"/>
       <path id="DejaVuSans-20" transform="scale(0.015625)"/>
       <path id="DejaVuSans-28" d="M 1984 4856 
Q 1566 4138 1362 3434 
Q 1159 2731 1159 2009 
Q 1159 1288 1364 580 
Q 1569 -128 1984 -844 
L 1484 -844 
Q 1016 -109 783 600 
Q 550 1309 550 2009 
Q 550 2706 781 3412 
Q 1013 4119 1484 4856 
L 1984 4856 
z
" transform="scale(0.015625)"/>
       <path id="DejaVuSans-73" d="M 2834 3397 
L 2834 2853 
Q 2591 2978 2328 3040 
Q 2066 3103 1784 3103 
Q 1356 3103 1142 2972 
Q 928 2841 928 2578 
Q 928 2378 1081 2264 
Q 1234 2150 1697 2047 
L 1894 2003 
Q 2506 1872 2764 1633 
Q 3022 1394 3022 966 
Q 3022 478 2636 193 
Q 2250 -91 1575 -91 
Q 1294 -91 989 -36 
Q 684 19 347 128 
L 347 722 
Q 666 556 975 473 
Q 1284 391 1588 391 
Q 1994 391 2212 530 
Q 2431 669 2431 922 
Q 2431 1156 2273 1281 
Q 2116 1406 1581 1522 
L 1381 1569 
Q 847 1681 609 1914 
Q 372 2147 372 2553 
Q 372 3047 722 3315 
Q 1072 3584 1716 3584 
Q 2034 3584 2315 3537 
Q 2597 3491 2834 3397 
z
" transform="scale(0.015625)"/>
       <path id="DejaVuSans-29" d="M 513 4856 
L 1013 4856 
Q 1481 4119 1714 3412 
Q 1947 2706 1947 2009 
Q 1947 1309 1714 600 
Q 1481 -109 1013 -844 
L 513 -844 
Q 928 -128 1133 580 
Q 1338 1288 1338 2009 
Q 1338 2731 1133 3434 
Q 928 4138 513 4856 
z
" transform="scale(0.015625)"/>
      </defs>
      <use xlink:href="#DejaVuSans-54"/>
      <use xlink:href="#DejaVuSans-69" x="57.958984"/>
      <use xlink:href="#DejaVuSans-6d" x="85.742188"/>
      <use xlink:href="#DejaVuSans-65" x="183.154297"/>
      <use xlink:href="#DejaVuSans-20" x="244.677734"/>
      <use xlink:href="#DejaVuSans-28" x="276.464844"/>
      <use xlink:href="#DejaVuSans-6d" x="315.478516"/>
      <use xlink:href="#DejaVuSans-73" x="412.890625"/>
      <use xlink:href="#DejaVuSans-29" x="464.990234"/>
     </g>
    </g>
   </g>
   <g id="matplotlib.axis_2">
    <g id="ytick_1">
     <g id="line2d_7">
      <defs>
       <path id="mcb73fbc443" d="M 0 0 
L -3.5 0 
" style="stroke: #000000; stroke-width: 0.8"/>
      </defs>
      <g>
       <use xlink:href="#mcb73fbc443" x="57.6" y="295.488" style="stroke: #000000; stroke-width: 0.8"/>
      </g>
     </g>
     <g id="text_8">
      <!-- 0.0 -->
      <g transform="translate(25.155 301.56675) scale(0.16 -0.16)">
       <defs>
        <path id="DejaVuSans-2e" d="M 684 794 
L 1344 794 
L 1344 0 
L 684 0 
L 684 794 
z
" transform="scale(0.015625)"/>
       </defs>
       <use xlink:href="#DejaVuSans-30"/>
       <use xlink:href="#DejaVuSans-2e" x="63.623047"/>
       <use xlink:href="#DejaVuSans-30" x="95.410156"/>
      </g>
     </g>
    </g>
    <g id="ytick_2">
     <g id="line2d_8">
      <g>
       <use xlink:href="#mcb73fbc443" x="57.6" y="247.104" style="stroke: #000000; stroke-width: 0.8"/>
      </g>
     </g>
     <g id="text_9">
      <!-- 0.2 -->
      <g transform="translate(25.155 253.18275) scale(0.16 -0.16)">
       <use xlink:href="#DejaVuSans-30"/>
       <use xlink:href="#DejaVuSans-2e" x="63.623047"/>
       <use xlink:href="#DejaVuSans-32" x="95.410156"/>
      </g>
     </g>
    </g>
    <g id="ytick_3">
     <g id="line2d_9">
      <g>
       <use xlink:href="#mcb73fbc443" x="57.6" y="198.72" style="stroke: #000000; stroke-width: 0.8"/>
      </g>
     </g>
     <g id="text_10">
      <!-- 0.4 -->
      <g transform="translate(25.155 204.79875) scale(0.16 -0.16)">
       <use xlink:href="#DejaVuSans-30"/>
       <use xlink:href="#DejaVuSans-2e" x="63.623047"/>
       <use xlink:href="#DejaVuSans-34" x="95.410156"/>
      </g>
     </g>
    </g>
    <g id="ytick_4">
     <g id="line2d_10">
      <g>
       <use xlink:href="#mcb73fbc443" x="57.6" y="150.336" style="stroke: #000000; stroke-width: 0.8"/>
      </g>
     </g>
     <g id="text_11">
      <!-- 0.6 -->
      <g transform="translate(25.155 156.41475) scale(0.16 -0.16)">
       <use xlink:href="#DejaVuSans-30"/>
       <use xlink:href="#DejaVuSans-2e" x="63.623047"/>
       <use xlink:href="#DejaVuSans-36" x="95.410156"/>
      </g>
     </g>
    </g>
    <g id="ytick_5">
     <g id="line2d_11">
      <g>
       <use xlink:href="#mcb73fbc443" x="57.6" y="101.952" style="stroke: #000000; stroke-width: 0.8"/>
      </g>
     </g>
     <g id="text_12">
      <!-- 0.8 -->
      <g transform="translate(25.155 108.03075) scale(0.16 -0.16)">
       <use xlink:href="#DejaVuSans-30"/>
       <use xlink:href="#DejaVuSans-2e" x="63.623047"/>
       <use xlink:href="#DejaVuSans-38" x="95.410156"/>
      </g>
     </g>
    </g>
    <g id="ytick_6">
     <g id="line2d_12">
      <g>
       <use xlink:href="#mcb73fbc443" x="57.6" y="53.568" style="stroke: #000000; stroke-width: 0.8"/>
      </g>
     </g>
     <g id="text_13">
      <!-- 1.0 -->
      <g transform="translate(25.155 59.64675) scale(0.16 -0.16)">
       <use xlink:href="#DejaVuSans-31"/>
       <use xlink:href="#DejaVuSans-2e" x="63.623047"/>
       <use xlink:href="#DejaVuSans-30" x="95.410156"/>
      </g>
     </g>
    </g>
    <g id="text_14">
     <!-- Survival probability -->
     <g transform="translate(17.8275 252.00675) rotate(-90) scale(0.16 -0.16)">
      <defs>
       <path id="DejaVuSans-53" d="M 3425 4513 
L 3425 3897 
Q 3066 4069 2747 4153 
Q 2428 4238 2131 4238 
Q 1616 4238 1336 4038 
Q 1056 3838 1056 3469 
Q 1056 3159 1242 3001 
Q 1428 2844 1947 2747 
L 2328 2669 
Q 3034 2534 3370 2195 
Q 3706 1856 3706 1288 
Q 3706 609 3251 259 
Q 2797 -91 1919 -91 
Q 1588 -91 1214 -16 
Q 841 59 441 206 
L 441 856 
Q 825 641 1194 531 
Q 1563 422 1919 422 
Q 2459 422 2753 634 
Q 3047 847 3047 1241 
Q 3047 1584 2836 1778 
Q 2625 1972 2144 2069 
L 1759 2144 
Q 1053 2284 737 2584 
Q 422 2884 422 3419 
Q 422 4038 858 4394 
Q 1294 4750 2059 4750 
Q 2388 4750 2728 4690 
Q 3069 4631 3425 4513 
z
" transform="scale(0.015625)"/>
       <path id="DejaVuSans-75" d="M 544 1381 
L 544 3500 
L 1119 3500 
L 1119 1403 
Q 1119 906 1312 657 
Q 1506 409 1894 409 
Q 2359 409 2629 706 
Q 2900 1003 2900 1516 
L 2900 3500 
L 3475 3500 
L 3475 0 
L 2900 0 
L 2900 538 
Q 2691 219 2414 64 
Q 2138 -91 1772 -91 
Q 1169 -91 856 284 
Q 544 659 544 1381 
z
M 1991 3584 
L 1991 3584 
z
" transform="scale(0.015625)"/>
       <path id="DejaVuSans-72" d="M 2631 2963 
Q 2534 3019 2420 3045 
Q 2306 3072 2169 3072 
Q 1681 3072 1420 2755 
Q 1159 2438 1159 1844 
L 1159 0 
L 581 0 
L 581 3500 
L 1159 3500 
L 1159 2956 
Q 1341 3275 1631 3429 
Q 1922 3584 2338 3584 
Q 2397 3584 2469 3576 
Q 2541 3569 2628 3553 
L 2631 2963 
z
" transform="scale(0.015625)"/>
       <path id="DejaVuSans-76" d="M 191 3500 
L 800 3500 
L 1894 563 
L 2988 3500 
L 3597 3500 
L 2284 0 
L 1503 0 
L 191 3500 
z
" transform="scale(0.015625)"/>
       <path id="DejaVuSans-61" d="M 2194 1759 
Q 1497 1759 1228 1600 
Q 959 1441 959 1056 
Q 959 750 1161 570 
Q 1363 391 1709 391 
Q 2188 391 2477 730 
Q 2766 1069 2766 1631 
L 2766 1759 
L 2194 1759 
z
M 3341 1997 
L 3341 0 
L 2766 0 
L 2766 531 
Q 2569 213 2275 61 
Q 1981 -91 1556 -91 
Q 1019 -91 701 211 
Q 384 513 384 1019 
Q 384 1609 779 1909 
Q 1175 2209 1959 2209 
L 2766 2209 
L 2766 2266 
Q 2766 2663 2505 2880 
Q 2244 3097 1772 3097 
Q 1472 3097 1187 3025 
Q 903 2953 641 2809 
L 641 3341 
Q 956 3463 1253 3523 
Q 1550 3584 1831 3584 
Q 2591 3584 2966 3190 
Q 3341 2797 3341 1997 
z
" transform="scale(0.015625)"/>
       <path id="DejaVuSans-6c" d="M 603 4863 
L 1178 4863 
L 1178 0 
L 603 0 
L 603 4863 
z
" transform="scale(0.015625)"/>
       <path id="DejaVuSans-70" d="M 1159 525 
L 1159 -1331 
L 581 -1331 
L 581 3500 
L 1159 3500 
L 1159 2969 
Q 1341 3281 1617 3432 
Q 1894 3584 2278 3584 
Q 2916 3584 3314 3078 
Q 3713 2572 3713 1747 
Q 3713 922 3314 415 
Q 2916 -91 2278 -91 
Q 1894 -91 1617 61 
Q 1341 213 1159 525 
z
M 3116 1747 
Q 3116 2381 2855 2742 
Q 2594 3103 2138 3103 
Q 1681 3103 1420 2742 
Q 1159 2381 1159 1747 
Q 1159 1113 1420 752 
Q 1681 391 2138 391 
Q 2594 391 2855 752 
Q 3116 1113 3116 1747 
z
" transform="scale(0.015625)"/>
       <path id="DejaVuSans-6f" d="M 1959 3097 
Q 1497 3097 1228 2736 
Q 959 2375 959 1747 
Q 959 1119 1226 758 
Q 1494 397 1959 397 
Q 2419 397 2687 759 
Q 2956 1122 2956 1747 
Q 2956 2369 2687 2733 
Q 2419 3097 1959 3097 
z
M 1959 3584 
Q 2709 3584 3137 3096 
Q 3566 2609 3566 1747 
Q 3566 888 3137 398 
Q 2709 -91 1959 -91 
Q 1206 -91 779 398 
Q 353 888 353 1747 
Q 353 2609 779 3096 
Q 1206 3584 1959 3584 
z
" transform="scale(0.015625)"/>
       <path id="DejaVuSans-62" d="M 3116 1747 
Q 3116 2381 2855 2742 
Q 2594 3103 2138 3103 
Q 1681 3103 1420 2742 
Q 1159 2381 1159 1747 
Q 1159 1113 1420 752 
Q 1681 391 2138 391 
Q 2594 391 2855 752 
Q 3116 1113 3116 1747 
z
M 1159 2969 
Q 1341 3281 1617 3432 
Q 1894 3584 2278 3584 
Q 2916 3584 3314 3078 
Q 3713 2572 3713 1747 
Q 3713 922 3314 415 
Q 2916 -91 2278 -91 
Q 1894 -91 1617 61 
Q 1341 213 1159 525 
L 1159 0 
L 581 0 
L 581 4863 
L 1159 4863 
L 1159 2969 
z
" transform="scale(0.015625)"/>
       <path id="DejaVuSans-74" d="M 1172 4494 
L 1172 3500 
L 2356 3500 
L 2356 3053 
L 1172 3053 
L 1172 1153 
Q 1172 725 1289 603 
Q 1406 481 1766 481 
L 2356 481 
L 2356 0 
L 1766 0 
Q 1100 0 847 248 
Q 594 497 594 1153 
L 594 3053 
L 172 3053 
L 172 3500 
L 594 3500 
L 594 4494 
L 1172 4494 
z
" transform="scale(0.015625)"/>
       <path id="DejaVuSans-79" d="M 2059 -325 
Q 1816 -950 1584 -1140 
Q 1353 -1331 966 -1331 
L 506 -1331 
L 506 -850 
L 844 -850 
Q 1081 -850 1212 -737 
Q 1344 -625 1503 -206 
L 1606 56 
L 191 3500 
L 800 3500 
L 1894 763 
L 2988 3500 
L 3597 3500 
L 2059 -325 
z
" transform="scale(0.015625)"/>
      </defs>
      <use xlink:href="#DejaVuSans-53"/>
      <use xlink:href="#DejaVuSans-75" x="63.476562"/>
      <use xlink:href="#DejaVuSans-72" x="126.855469"/>
      <use xlink:href="#DejaVuSans-76" x="167.96875"/>
      <use xlink:href="#DejaVuSans-69" x="227.148438"/>
      <use xlink:href="#DejaVuSans-76" x="254.931641"/>
      <use xlink:href="#DejaVuSans-61" x="314.111328"/>
      <use xlink:href="#DejaVuSans-6c" x="375.390625"/>
      <use xlink:href="#DejaVuSans-20" x="403.173828"/>
      <use xlink:href="#DejaVuSans-70" x="434.960938"/>
      <use xlink:href="#DejaVuSans-72" x="498.4375"/>
      <use xlink:href="#DejaVuSans-6f" x="537.300781"/>
      <use xlink:href="#DejaVuSans-62" x="598.482422"/>
      <use xlink:href="#DejaVuSans-61" x="661.958984"/>
      <use xlink:href="#DejaVuSans-62" x="723.238281"/>
      <use xlink:href="#DejaVuSans-69" x="786.714844"/>
      <use xlink:href="#DejaVuSans-6c" x="814.498047"/>
      <use xlink:href="#DejaVuSans-69" x="842.28125"/>
      <use xlink:href="#DejaVuSans-74" x="870.064453"/>
      <use xlink:href="#DejaVuSans-79" x="909.273438"/>
     </g>
    </g>
   </g>
   <g id="line2d_13">
    <path d="M 73.832727 53.568 
L 81.949091 70.01856 
L 90.065455 92.2752 
L 98.181818 105.82272 
L 106.298182 120.82176 
L 114.414545 133.4016 
L 122.530909 145.98144 
L 130.647273 156.14208 
L 138.763636 166.78656 
L 146.88 179.3664 
L 154.996364 187.59168 
L 163.112727 195.81696 
L 171.229091 202.10688 
L 179.345455 207.91296 
L 187.461818 214.68672 
L 195.578182 221.46048 
L 203.694545 227.7504 
L 211.810909 231.62112 
L 219.927273 235.97568 
L 228.043636 243.23328 
L 236.16 248.07168 
L 244.276364 251.9424 
L 252.392727 254.84544 
L 260.509091 256.29696 
L 268.625455 258.71616 
L 276.741818 259.68384 
L 284.858182 261.6192 
L 292.974545 261.6192 
L 301.090909 265.00608 
L 309.207273 266.94144 
L 317.323636 267.90912 
L 325.44 268.8768 
L 333.556364 269.84448 
L 341.672727 270.81216 
L 349.789091 272.26368 
L 357.905455 275.16672 
L 366.021818 277.58592 
L 374.138182 278.06976 
L 382.254545 279.03744 
L 390.370909 280.48896 
L 398.487273 282.42432 
" clip-path="url(#p662c675a94)" style="fill: none; stroke: #1f77b4; stroke-width: 1.5; stroke-linecap: square"/>
    <defs>
     <path id="m39123ba3af" d="M 0 1.5 
C 0.397805 1.5 0.77937 1.341951 1.06066 1.06066 
C 1.341951 0.77937 1.5 0.397805 1.5 0 
C 1.5 -0.397805 1.341951 -0.77937 1.06066 -1.06066 
C 0.77937 -1.341951 0.397805 -1.5 0 -1.5 
C -0.397805 -1.5 -0.77937 -1.341951 -1.06066 -1.06066 
C -1.341951 -0.77937 -1.5 -0.397805 -1.5 0 
C -1.5 0.397805 -1.341951 0.77937 -1.06066 1.06066 
C -0.77937 1.341951 -0.397805 1.5 0 1.5 
z
" style="stroke: #1f77b4"/>
    </defs>
    <g clip-path="url(#p662c675a94)">
     <use xlink:href="#m39123ba3af" x="73.832727" y="53.568" style="fill: #1f77b4; stroke: #1f77b4"/>
     <use xlink:href="#m39123ba3af" x="81.949091" y="70.01856" style="fill: #1f77b4; stroke: #1f77b4"/>
     <use xlink:href="#m39123ba3af" x="90.065455" y="92.2752" style="fill: #1f77b4; stroke: #1f77b4"/>
     <use xlink:href="#m39123ba3af" x="98.181818" y="105.82272" style="fill: #1f77b4; stroke: #1f77b4"/>
     <use xlink:href="#m39123ba3af" x="106.298182" y="120.82176" style="fill: #1f77b4; stroke: #1f77b4"/>
     <use xlink:href="#m39123ba3af" x="114.414545" y="133.4016" style="fill: #1f77b4; stroke: #1f77b4"/>
     <use xlink:href="#m39123ba3af" x="122.530909" y="145.98144" style="fill: #1f77b4; stroke: #1f77b4"/>
     <use xlink:href="#m39123ba3af" x="130.647273" y="156.14208" style="fill: #1f77b4; stroke: #1f77b4"/>
     <use xlink:href="#m39123ba3af" x="138.763636" y="166.78656" style="fill: #1f77b4; stroke: #1f77b4"/>
     <use xlink:href="#m39123ba3af" x="146.88" y="179.3664" style="fill: #1f77b4; stroke: #1f77b4"/>
     <use xlink:href="#m39123ba3af" x="154.996364" y="187.59168" style="fill: #1f77b4; stroke: #1f77b4"/>
     <use xlink:href="#m39123ba3af" x="163.112727" y="195.81696" style="fill: #1f77b4; stroke: #1f77b4"/>
     <use xlink:href="#m39123ba3af" x="171.229091" y="202.10688" style="fill: #1f77b4; stroke: #1f77b4"/>
     <use xlink:href="#m39123ba3af" x="179.345455" y="207.91296" style="fill: #1f77b4; stroke: #1f77b4"/>
     <use xlink:href="#m39123ba3af" x="187.461818" y="214.68672" style="fill: #1f77b4; stroke: #1f77b4"/>
     <use xlink:href="#m39123ba3af" x="195.578182" y="221.46048" style="fill: #1f77b4; stroke: #1f77b4"/>
     <use xlink:href="#m39123ba3af" x="203.694545" y="227.7504" style="fill: #1f77b4; stroke: #1f77b4"/>
     <use xlink:href="#m39123ba3af" x="211.810909" y="231.62112" style="fill: #1f77b4; stroke: #1f77b4"/>
     <use xlink:href="#m39123ba3af" x="219.927273" y="235.97568" style="fill: #1f77b4; stroke: #1f77b4"/>
     <use xlink:href="#m39123ba3af" x="228.043636" y="243.23328" style="fill: #1f77b4; stroke: #1f77b4"/>
     <use xlink:href="#m39123ba3af" x="236.16" y="248.07168" style="fill: #1f77b4; stroke: #1f77b4"/>
     <use xlink:href="#m39123ba3af" x="244.276364" y="251.9424" style="fill: #1f77b4; stroke: #1f77b4"/>
     <use xlink:href="#m39123ba3af" x="252.392727" y="254.84544" style="fill: #1f77b4; stroke: #1f77b4"/>
     <use xlink:href="#m39123ba3af" x="260.509091" y="256.29696" style="fill: #1f77b4; stroke: #1f77b4"/>
     <use xlink:href="#m39123ba3af" x="268.625455" y="258.71616" style="fill: #1f77b4; stroke: #1f77b4"/>
     <use xlink:href="#m39123ba3af" x="276.741818" y="259.68384" style="fill: #1f77b4; stroke: #1f77b4"/>
     <use xlink:href="#m39123ba3af" x="284.858182" y="261.6192" style="fill: #1f77b4; stroke: #1f77b4"/>
     <use xlink:href="#m39123ba3af" x="292.974545" y="261.6192" style="fill: #1f77b4; stroke: #1f77b4"/>
     <use xlink:href="#m39123ba3af" x="301.090909" y="265.00608" style="fill: #1f77b4; stroke: #1f77b4"/>
     <use xlink:href="#m39123ba3af" x="309.207273" y="266.94144" style="fill: #1f77b4; stroke: #1f77b4"/>
     <use xlink:href="#m39123ba3af" x="317.323636" y="267.90912" style="fill: #1f77b4; stroke: #1f77b4"/>
     <use xlink:href="#m39123ba3af" x="325.44" y="268.8768" style="fill: #1f77b4; stroke: #1f77b4"/>
     <use xlink:href="#m39123ba3af" x="333.556364" y="269.84448" style="fill: #1f77b4; stroke: #1f77b4"/>
     <use xlink:href="#m39123ba3af" x="341.672727" y="270.81216" style="fill: #1f77b4; stroke: #1f77b4"/>
     <use xlink:href="#m39123ba3af" x="349.789091" y="272.26368" style="fill: #1f77b4; stroke: #1f77b4"/>
     <use xlink:href="#m39123ba3af" x="357.905455" y="275.16672" style="fill: #1f77b4; stroke: #1f77b4"/>
     <use xlink:href="#m39123ba3af" x="366.021818" y="277.58592" style="fill: #1f77b4; stroke: #1f77b4"/>
     <use xlink:href="#m39123ba3af" x="374.138182" y="278.06976" style="fill: #1f77b4; stroke: #1f77b4"/>
     <use xlink:href="#m39123ba3af" x="382.254545" y="279.03744" style="fill: #1f77b4; stroke: #1f77b4"/>
     <use xlink:href="#m39123ba3af" x="390.370909" y="280.48896" style="fill: #1f77b4; stroke: #1f77b4"/>
     <use xlink:href="#m39123ba3af" x="398.487273" y="282.42432" style="fill: #1f77b4; stroke: #1f77b4"/>
    </g>
   </g>
   <g id="line2d_14">
    <path d="M 73.832727 53.568 
L 81.949091 70.720552 
L 90.065455 86.656958 
L 98.181818 101.463444 
L 106.298182 115.220125 
L 114.414545 128.001433 
L 122.530909 139.876524 
L 130.647273 150.909651 
L 138.763636 161.160509 
L 146.88 170.684563 
L 154.996364 179.533346 
L 163.112727 187.754734 
L 171.229091 195.393211 
L 179.345455 202.490107 
L 187.461818 209.083821 
L 195.578182 215.210028 
L 203.694545 220.901877 
L 211.810909 226.190164 
L 219.927273 231.103502 
L 228.043636 235.668476 
L 236.16 239.909785 
L 244.276364 243.850377 
L 252.392727 247.511575 
L 260.509091 250.913188 
L 268.625455 254.07362 
L 276.741818 257.009972 
L 284.858182 259.738132 
L 292.974545 262.27286 
L 301.090909 264.627872 
L 309.207273 266.815909 
L 317.323636 268.84881 
L 325.44 270.737576 
L 333.556364 272.492424 
L 341.672727 274.122851 
L 349.789091 275.637677 
L 357.905455 277.0451 
L 366.021818 278.352734 
L 374.138182 279.567654 
L 382.254545 280.696435 
L 390.370909 281.745182 
L 398.487273 282.719572 
" clip-path="url(#p662c675a94)" style="fill: none; stroke-dasharray: 5.55,2.4; stroke-dashoffset: 0; stroke: #000000; stroke-width: 1.5"/>
   </g>
   <g id="line2d_15">
    <path d="M 73.832727 53.568 
L 81.949091 89.37216 
L 90.065455 120.33792 
L 98.181818 147.9168 
L 106.298182 170.65728 
L 114.414545 190.49472 
L 122.530909 206.94528 
L 130.647273 220.97664 
L 138.763636 234.52416 
L 146.88 243.71712 
L 154.996364 251.45856 
L 163.112727 256.29696 
L 171.229091 262.10304 
L 179.345455 266.4576 
L 187.461818 272.26368 
L 195.578182 274.68288 
L 203.694545 277.58592 
L 211.810909 281.94048 
L 219.927273 284.35968 
L 228.043636 285.8112 
L 236.16 286.77888 
L 244.276364 287.74656 
L 252.392727 289.68192 
L 260.509091 290.16576 
L 268.625455 290.16576 
L 276.741818 291.13344 
L 284.858182 292.58496 
L 292.974545 292.58496 
L 301.090909 293.0688 
L 309.207273 293.55264 
L 317.323636 293.55264 
L 325.44 294.03648 
L 333.556364 294.03648 
L 341.672727 295.00416 
L 349.789091 295.00416 
L 357.905455 295.488 
L 366.021818 295.488 
L 374.138182 295.488 
L 382.254545 295.488 
L 390.370909 295.488 
L 398.487273 295.488 
" clip-path="url(#p662c675a94)" style="fill: none; stroke: #ff7f0e; stroke-width: 1.5; stroke-linecap: square"/>
    <defs>
     <path id="mda4e8e78fe" d="M 0 1.5 
C 0.397805 1.5 0.77937 1.341951 1.06066 1.06066 
C 1.341951 0.77937 1.5 0.397805 1.5 0 
C 1.5 -0.397805 1.341951 -0.77937 1.06066 -1.06066 
C 0.77937 -1.341951 0.397805 -1.5 0 -1.5 
C -0.397805 -1.5 -0.77937 -1.341951 -1.06066 -1.06066 
C -1.341951 -0.77937 -1.5 -0.397805 -1.5 0 
C -1.5 0.397805 -1.341951 0.77937 -1.06066 1.06066 
C -0.77937 1.341951 -0.397805 1.5 0 1.5 
z
" style="stroke: #ff7f0e"/>
    </defs>
    <g clip-path="url(#p662c675a94)">
     <use xlink:href="#mda4e8e78fe" x="73.832727" y="53.568" style="fill: #ff7f0e; stroke: #ff7f0e"/>
     <use xlink:href="#mda4e8e78fe" x="81.949091" y="89.37216" style="fill: #ff7f0e; stroke: #ff7f0e"/>
     <use xlink:href="#mda4e8e78fe" x="90.065455" y="120.33792" style="fill: #ff7f0e; stroke: #ff7f0e"/>
     <use xlink:href="#mda4e8e78fe" x="98.181818" y="147.9168" style="fill: #ff7f0e; stroke: #ff7f0e"/>
     <use xlink:href="#mda4e8e78fe" x="106.298182" y="170.65728" style="fill: #ff7f0e; stroke: #ff7f0e"/>
     <use xlink:href="#mda4e8e78fe" x="114.414545" y="190.49472" style="fill: #ff7f0e; stroke: #ff7f0e"/>
     <use xlink:href="#mda4e8e78fe" x="122.530909" y="206.94528" style="fill: #ff7f0e; stroke: #ff7f0e"/>
     <use xlink:href="#mda4e8e78fe" x="130.647273" y="220.97664" style="fill: #ff7f0e; stroke: #ff7f0e"/>
     <use xlink:href="#mda4e8e78fe" x="138.763636" y="234.52416" style="fill: #ff7f0e; stroke: #ff7f0e"/>
     <use xlink:href="#mda4e8e78fe" x="146.88" y="243.71712" style="fill: #ff7f0e; stroke: #ff7f0e"/>
     <use xlink:href="#mda4e8e78fe" x="154.996364" y="251.45856" style="fill: #ff7f0e; stroke: #ff7f0e"/>
     <use xlink:href="#mda4e8e78fe" x="163.112727" y="256.29696" style="fill: #ff7f0e; stroke: #ff7f0e"/>
     <use xlink:href="#mda4e8e78fe" x="171.229091" y="262.10304" style="fill: #ff7f0e; stroke: #ff7f0e"/>
     <use xlink:href="#mda4e8e78fe" x="179.345455" y="266.4576" style="fill: #ff7f0e; stroke: #ff7f0e"/>
     <use xlink:href="#mda4e8e78fe" x="187.461818" y="272.26368" style="fill: #ff7f0e; stroke: #ff7f0e"/>
     <use xlink:href="#mda4e8e78fe" x="195.578182" y="274.68288" style="fill: #ff7f0e; stroke: #ff7f0e"/>
     <use xlink:href="#mda4e8e78fe" x="203.694545" y="277.58592" style="fill: #ff7f0e; stroke: #ff7f0e"/>
     <use xlink:href="#mda4e8e78fe" x="211.810909" y="281.94048" style="fill: #ff7f0e; stroke: #ff7f0e"/>
     <use xlink:href="#mda4e8e78fe" x="219.927273" y="284.35968" style="fill: #ff7f0e; stroke: #ff7f0e"/>
     <use xlink:href="#mda4e8e78fe" x="228.043636" y="285.8112" style="fill: #ff7f0e; stroke: #ff7f0e"/>
     <use xlink:href="#mda4e8e78fe" x="236.16" y="286.77888" style="fill: #ff7f0e; stroke: #ff7f0e"/>
     <use xlink:href="#mda4e8e78fe" x="244.276364" y="287.74656" style="fill: #ff7f0e; stroke: #ff7f0e"/>
     <use xlink:href="#mda4e8e78fe" x="252.392727" y="289.68192" style="fill: #ff7f0e; stroke: #ff7f0e"/>
     <use xlink:href="#mda4e8e78fe" x="260.509091" y="290.16576" style="fill: #ff7f0e; stroke: #ff7f0e"/>
     <use xlink:href="#mda4e8e78fe" x="268.625455" y="290.16576" style="fill: #ff7f0e; stroke: #ff7f0e"/>
     <use xlink:href="#mda4e8e78fe" x="276.741818" y="291.13344" style="fill: #ff7f0e; stroke: #ff7f0e"/>
     <use xlink:href="#mda4e8e78fe" x="284.858182" y="292.58496" style="fill: #ff7f0e; stroke: #ff7f0e"/>
     <use xlink:href="#mda4e8e78fe" x="292.974545" y="292.58496" style="fill: #ff7f0e; stroke: #ff7f0e"/>
     <use xlink:href="#mda4e8e78fe" x="301.090909" y="293.0688" style="fill: #ff7f0e; stroke: #ff7f0e"/>
     <use xlink:href="#mda4e8e78fe" x="309.207273" y="293.55264" style="fill: #ff7f0e; stroke: #ff7f0e"/>
     <use xlink:href="#mda4e8e78fe" x="317.323636" y="293.55264" style="fill: #ff7f0e; stroke: #ff7f0e"/>
     <use xlink:href="#mda4e8e78fe" x="325.44" y="294.03648" style="fill: #ff7f0e; stroke: #ff7f0e"/>
     <use xlink:href="#mda4e8e78fe" x="333.556364" y="294.03648" style="fill: #ff7f0e; stroke: #ff7f0e"/>
     <use xlink:href="#mda4e8e78fe" x="341.672727" y="295.00416" style="fill: #ff7f0e; stroke: #ff7f0e"/>
     <use xlink:href="#mda4e8e78fe" x="349.789091" y="295.00416" style="fill: #ff7f0e; stroke: #ff7f0e"/>
     <use xlink:href="#mda4e8e78fe" x="357.905455" y="295.488" style="fill: #ff7f0e; stroke: #ff7f0e"/>
     <use xlink:href="#mda4e8e78fe" x="366.021818" y="295.488" style="fill: #ff7f0e; stroke: #ff7f0e"/>
     <use xlink:href="#mda4e8e78fe" x="374.138182" y="295.488" style="fill: #ff7f0e; stroke: #ff7f0e"/>
     <use xlink:href="#mda4e8e78fe" x="382.254545" y="295.488" style="fill: #ff7f0e; stroke: #ff7f0e"/>
     <use xlink:href="#mda4e8e78fe" x="390.370909" y="295.488" style="fill: #ff7f0e; stroke: #ff7f0e"/>
     <use xlink:href="#mda4e8e78fe" x="398.487273" y="295.488" style="fill: #ff7f0e; stroke: #ff7f0e"/>
    </g>
   </g>
   <g id="line2d_16">
    <path d="M 73.832727 53.568 
L 81.949091 91.009879 
L 90.065455 122.656891 
L 98.181818 149.405906 
L 106.298182 172.014984 
L 114.414545 191.124862 
L 122.530909 207.277111 
L 130.647273 220.929481 
L 138.763636 232.468879 
L 146.88 242.222328 
L 154.996364 250.466238 
L 163.112727 257.434242 
L 171.229091 263.32381 
L 179.345455 268.301851 
L 187.461818 272.509442 
L 195.578182 276.065826 
L 203.694545 279.07179 
L 211.810909 281.612521 
L 219.927273 283.760024 
L 228.043636 285.575159 
L 236.16 287.109367 
L 244.276364 288.406125 
L 252.392727 289.502184 
L 260.509091 290.428607 
L 268.625455 291.211648 
L 276.741818 291.873497 
L 284.858182 292.432913 
L 292.974545 292.905748 
L 301.090909 293.305402 
L 309.207273 293.643202 
L 317.323636 293.928721 
L 325.44 294.17005 
L 333.556364 294.374029 
L 341.672727 294.546438 
L 349.789091 294.692163 
L 357.905455 294.815334 
L 366.021818 294.919443 
L 374.138182 295.007438 
L 382.254545 295.081814 
L 390.370909 295.14468 
L 398.487273 295.197815 
" clip-path="url(#p662c675a94)" style="fill: none; stroke-dasharray: 5.55,2.4; stroke-dashoffset: 0; stroke: #000000; stroke-width: 1.5"/>
   </g>
   <g id="patch_3">
    <path d="M 57.6 307.584 
L 57.6 41.472 
" style="fill: none; stroke: #000000; stroke-width: 0.8; stroke-linejoin: miter; stroke-linecap: square"/>
   </g>
   <g id="patch_4">
    <path d="M 414.72 307.584 
L 414.72 41.472 
" style="fill: none; stroke: #000000; stroke-width: 0.8; stroke-linejoin: miter; stroke-linecap: square"/>
   </g>
   <g id="patch_5">
    <path d="M 57.6 307.584 
L 414.72 307.584 
" style="fill: none; stroke: #000000; stroke-width: 0.8; stroke-linejoin: miter; stroke-linecap: square"/>
   </g>
   <g id="patch_6">
    <path d="M 57.6 41.472 
L 414.72 41.472 
" style="fill: none; stroke: #000000; stroke-width: 0.8; stroke-linejoin: miter; stroke-linecap: square"/>
   </g>
   <g id="text_15">
    <!-- T=0.1s, $\sigma_t=$15nm,  -->
    <g transform="translate(141.312 10.5126) scale(0.192 -0.192)">
     <defs>
      <path id="DejaVuSans-3d" d="M 678 2906 
L 4684 2906 
L 4684 2381 
L 678 2381 
L 678 2906 
z
M 678 1631 
L 4684 1631 
L 4684 1100 
L 678 1100 
L 678 1631 
z
" transform="scale(0.015625)"/>
      <path id="DejaVuSans-2c" d="M 750 794 
L 1409 794 
L 1409 256 
L 897 -744 
L 494 -744 
L 750 256 
L 750 794 
z
" transform="scale(0.015625)"/>
      <path id="DejaVuSans-Oblique-3c3" d="M 2219 3044 
Q 1744 3044 1422 2700 
Q 1081 2341 969 1747 
Q 844 1119 1044 756 
Q 1241 397 1706 397 
Q 2166 397 2503 759 
Q 2844 1122 2966 1747 
Q 3075 2319 2881 2700 
Q 2700 3044 2219 3044 
z
M 2309 3503 
L 4219 3500 
L 4106 2925 
L 3463 2925 
Q 3706 2438 3575 1747 
Q 3406 888 2884 400 
Q 2359 -91 1609 -91 
Q 856 -91 525 400 
Q 194 888 363 1747 
Q 528 2609 1050 3097 
Q 1484 3503 2309 3503 
z
" transform="scale(0.015625)"/>
      <path id="DejaVuSans-Oblique-74" d="M 2706 3500 
L 2619 3053 
L 1472 3053 
L 1100 1153 
Q 1081 1047 1072 975 
Q 1063 903 1063 863 
Q 1063 663 1183 572 
Q 1303 481 1569 481 
L 2150 481 
L 2053 0 
L 1503 0 
Q 991 0 739 200 
Q 488 400 488 806 
Q 488 878 497 964 
Q 506 1050 525 1153 
L 897 3053 
L 409 3053 
L 500 3500 
L 978 3500 
L 1172 4494 
L 1747 4494 
L 1556 3500 
L 2706 3500 
z
" transform="scale(0.015625)"/>
      <path id="DejaVuSans-35" d="M 691 4666 
L 3169 4666 
L 3169 4134 
L 1269 4134 
L 1269 2991 
Q 1406 3038 1543 3061 
Q 1681 3084 1819 3084 
Q 2600 3084 3056 2656 
Q 3513 2228 3513 1497 
Q 3513 744 3044 326 
Q 2575 -91 1722 -91 
Q 1428 -91 1123 -41 
Q 819 9 494 109 
L 494 744 
Q 775 591 1075 516 
Q 1375 441 1709 441 
Q 2250 441 2565 725 
Q 2881 1009 2881 1497 
Q 2881 1984 2565 2268 
Q 2250 2553 1709 2553 
Q 1456 2553 1204 2497 
Q 953 2441 691 2322 
L 691 4666 
z
" transform="scale(0.015625)"/>
      <path id="DejaVuSans-6e" d="M 3513 2113 
L 3513 0 
L 2938 0 
L 2938 2094 
Q 2938 2591 2744 2837 
Q 2550 3084 2163 3084 
Q 1697 3084 1428 2787 
Q 1159 2491 1159 1978 
L 1159 0 
L 581 0 
L 581 3500 
L 1159 3500 
L 1159 2956 
Q 1366 3272 1645 3428 
Q 1925 3584 2291 3584 
Q 2894 3584 3203 3211 
Q 3513 2838 3513 2113 
z
" transform="scale(0.015625)"/>
     </defs>
     <use xlink:href="#DejaVuSans-54" transform="translate(0 0.78125)"/>
     <use xlink:href="#DejaVuSans-3d" transform="translate(61.083984 0.78125)"/>
     <use xlink:href="#DejaVuSans-30" transform="translate(144.873047 0.78125)"/>
     <use xlink:href="#DejaVuSans-2e" transform="translate(208.496094 0.78125)"/>
     <use xlink:href="#DejaVuSans-31" transform="translate(240.283203 0.78125)"/>
     <use xlink:href="#DejaVuSans-73" transform="translate(303.90625 0.78125)"/>
     <use xlink:href="#DejaVuSans-2c" transform="translate(356.005859 0.78125)"/>
     <use xlink:href="#DejaVuSans-20" transform="translate(387.792969 0.78125)"/>
     <use xlink:href="#DejaVuSans-Oblique-3c3" transform="translate(419.580078 0.78125)"/>
     <use xlink:href="#DejaVuSans-Oblique-74" transform="translate(482.958984 -15.625) scale(0.7)"/>
     <use xlink:href="#DejaVuSans-3d" transform="translate(532.62207 0.78125)"/>
     <use xlink:href="#DejaVuSans-31" transform="translate(635.893555 0.78125)"/>
     <use xlink:href="#DejaVuSans-35" transform="translate(699.516602 0.78125)"/>
     <use xlink:href="#DejaVuSans-6e" transform="translate(763.139648 0.78125)"/>
     <use xlink:href="#DejaVuSans-6d" transform="translate(826.518555 0.78125)"/>
     <use xlink:href="#DejaVuSans-2c" transform="translate(923.930664 0.78125)"/>
     <use xlink:href="#DejaVuSans-20" transform="translate(955.717773 0.78125)"/>
    </g>
    <!-- $d_c$=0nm, $D_c=$9.375$\mathrm{\mu m^2}$/s, $\Delta t$=1e-9s -->
    <g transform="translate(60.384 35.472) scale(0.192 -0.192)">
     <defs>
      <path id="DejaVuSans-Oblique-64" d="M 2675 525 
Q 2444 222 2128 65 
Q 1813 -91 1428 -91 
Q 903 -91 598 267 
Q 294 625 294 1247 
Q 294 1766 478 2236 
Q 663 2706 1013 3078 
Q 1244 3325 1534 3454 
Q 1825 3584 2144 3584 
Q 2481 3584 2739 3421 
Q 2997 3259 3138 2956 
L 3513 4863 
L 4091 4863 
L 3144 0 
L 2566 0 
L 2675 525 
z
M 891 1350 
Q 891 897 1095 644 
Q 1300 391 1663 391 
Q 1931 391 2161 520 
Q 2391 650 2566 903 
Q 2750 1166 2856 1509 
Q 2963 1853 2963 2188 
Q 2963 2622 2758 2865 
Q 2553 3109 2194 3109 
Q 1922 3109 1687 2981 
Q 1453 2853 1288 2613 
Q 1106 2353 998 2009 
Q 891 1666 891 1350 
z
" transform="scale(0.015625)"/>
      <path id="DejaVuSans-Oblique-63" d="M 3431 3366 
L 3316 2797 
Q 3109 2947 2876 3022 
Q 2644 3097 2394 3097 
Q 2119 3097 1870 3000 
Q 1622 2903 1453 2725 
Q 1184 2453 1037 2087 
Q 891 1722 891 1331 
Q 891 859 1127 628 
Q 1363 397 1844 397 
Q 2081 397 2348 469 
Q 2616 541 2906 684 
L 2797 116 
Q 2547 13 2283 -39 
Q 2019 -91 1741 -91 
Q 1044 -91 669 257 
Q 294 606 294 1253 
Q 294 1797 489 2255 
Q 684 2713 1069 3078 
Q 1331 3328 1684 3456 
Q 2038 3584 2456 3584 
Q 2700 3584 2940 3529 
Q 3181 3475 3431 3366 
z
" transform="scale(0.015625)"/>
      <path id="DejaVuSans-Oblique-44" d="M 1081 4666 
L 2438 4666 
Q 3519 4666 4070 4208 
Q 4622 3750 4622 2847 
Q 4622 2250 4412 1698 
Q 4203 1147 3834 769 
Q 3463 381 2891 190 
Q 2319 0 1538 0 
L 172 0 
L 1081 4666 
z
M 1613 4147 
L 909 519 
L 1734 519 
Q 2794 519 3375 1128 
Q 3956 1738 3956 2847 
Q 3956 3519 3581 3833 
Q 3206 4147 2406 4147 
L 1613 4147 
z
" transform="scale(0.015625)"/>
      <path id="DejaVuSans-39" d="M 703 97 
L 703 672 
Q 941 559 1184 500 
Q 1428 441 1663 441 
Q 2288 441 2617 861 
Q 2947 1281 2994 2138 
Q 2813 1869 2534 1725 
Q 2256 1581 1919 1581 
Q 1219 1581 811 2004 
Q 403 2428 403 3163 
Q 403 3881 828 4315 
Q 1253 4750 1959 4750 
Q 2769 4750 3195 4129 
Q 3622 3509 3622 2328 
Q 3622 1225 3098 567 
Q 2575 -91 1691 -91 
Q 1453 -91 1209 -44 
Q 966 3 703 97 
z
M 1959 2075 
Q 2384 2075 2632 2365 
Q 2881 2656 2881 3163 
Q 2881 3666 2632 3958 
Q 2384 4250 1959 4250 
Q 1534 4250 1286 3958 
Q 1038 3666 1038 3163 
Q 1038 2656 1286 2365 
Q 1534 2075 1959 2075 
z
" transform="scale(0.015625)"/>
      <path id="DejaVuSans-33" d="M 2597 2516 
Q 3050 2419 3304 2112 
Q 3559 1806 3559 1356 
Q 3559 666 3084 287 
Q 2609 -91 1734 -91 
Q 1441 -91 1130 -33 
Q 819 25 488 141 
L 488 750 
Q 750 597 1062 519 
Q 1375 441 1716 441 
Q 2309 441 2620 675 
Q 2931 909 2931 1356 
Q 2931 1769 2642 2001 
Q 2353 2234 1838 2234 
L 1294 2234 
L 1294 2753 
L 1863 2753 
Q 2328 2753 2575 2939 
Q 2822 3125 2822 3475 
Q 2822 3834 2567 4026 
Q 2313 4219 1838 4219 
Q 1578 4219 1281 4162 
Q 984 4106 628 3988 
L 628 4550 
Q 988 4650 1302 4700 
Q 1616 4750 1894 4750 
Q 2613 4750 3031 4423 
Q 3450 4097 3450 3541 
Q 3450 3153 3228 2886 
Q 3006 2619 2597 2516 
z
" transform="scale(0.015625)"/>
      <path id="DejaVuSans-37" d="M 525 4666 
L 3525 4666 
L 3525 4397 
L 1831 0 
L 1172 0 
L 2766 4134 
L 525 4134 
L 525 4666 
z
" transform="scale(0.015625)"/>
      <path id="DejaVuSans-3bc" d="M 544 -1331 
L 544 3500 
L 1119 3500 
L 1119 1325 
Q 1119 872 1334 640 
Q 1550 409 1972 409 
Q 2434 409 2667 671 
Q 2900 934 2900 1459 
L 2900 3500 
L 3475 3500 
L 3475 806 
Q 3475 619 3529 530 
Q 3584 441 3700 441 
Q 3728 441 3778 458 
Q 3828 475 3916 513 
L 3916 50 
Q 3788 -22 3673 -56 
Q 3559 -91 3450 -91 
Q 3234 -91 3106 31 
Q 2978 153 2931 403 
Q 2775 156 2548 32 
Q 2322 -91 2016 -91 
Q 1697 -91 1473 31 
Q 1250 153 1119 397 
L 1119 -1331 
L 544 -1331 
z
" transform="scale(0.015625)"/>
      <path id="DejaVuSans-2f" d="M 1625 4666 
L 2156 4666 
L 531 -594 
L 0 -594 
L 1625 4666 
z
" transform="scale(0.015625)"/>
      <path id="DejaVuSans-394" d="M 2188 4044 
L 906 525 
L 3472 525 
L 2188 4044 
z
M 50 0 
L 1831 4666 
L 2547 4666 
L 4325 0 
L 50 0 
z
" transform="scale(0.015625)"/>
      <path id="DejaVuSans-2d" d="M 313 2009 
L 1997 2009 
L 1997 1497 
L 313 1497 
L 313 2009 
z
" transform="scale(0.015625)"/>
     </defs>
     <use xlink:href="#DejaVuSans-Oblique-64" transform="translate(0 0.765625)"/>
     <use xlink:href="#DejaVuSans-Oblique-63" transform="translate(63.476562 -15.640625) scale(0.7)"/>
     <use xlink:href="#DejaVuSans-3d" transform="translate(104.697266 0.765625)"/>
     <use xlink:href="#DejaVuSans-30" transform="translate(188.486328 0.765625)"/>
     <use xlink:href="#DejaVuSans-6e" transform="translate(252.109375 0.765625)"/>
     <use xlink:href="#DejaVuSans-6d" transform="translate(315.488281 0.765625)"/>
     <use xlink:href="#DejaVuSans-2c" transform="translate(412.900391 0.765625)"/>
     <use xlink:href="#DejaVuSans-20" transform="translate(444.6875 0.765625)"/>
     <use xlink:href="#DejaVuSans-Oblique-44" transform="translate(476.474609 0.765625)"/>
     <use xlink:href="#DejaVuSans-Oblique-63" transform="translate(553.476562 -15.640625) scale(0.7)"/>
     <use xlink:href="#DejaVuSans-3d" transform="translate(614.179688 0.765625)"/>
     <use xlink:href="#DejaVuSans-39" transform="translate(717.451172 0.765625)"/>
     <use xlink:href="#DejaVuSans-2e" transform="translate(781.074219 0.765625)"/>
     <use xlink:href="#DejaVuSans-33" transform="translate(812.861328 0.765625)"/>
     <use xlink:href="#DejaVuSans-37" transform="translate(876.484375 0.765625)"/>
     <use xlink:href="#DejaVuSans-35" transform="translate(940.107422 0.765625)"/>
     <use xlink:href="#DejaVuSans-3bc" transform="translate(1003.730469 0.765625)"/>
     <use xlink:href="#DejaVuSans-6d" transform="translate(1067.353516 0.765625)"/>
     <use xlink:href="#DejaVuSans-32" transform="translate(1165.722656 39.046875) scale(0.7)"/>
     <use xlink:href="#DejaVuSans-2f" transform="translate(1212.993164 0.765625)"/>
     <use xlink:href="#DejaVuSans-73" transform="translate(1246.68457 0.765625)"/>
     <use xlink:href="#DejaVuSans-2c" transform="translate(1298.78418 0.765625)"/>
     <use xlink:href="#DejaVuSans-20" transform="translate(1330.571289 0.765625)"/>
     <use xlink:href="#DejaVuSans-394" transform="translate(1362.358398 0.765625)"/>
     <use xlink:href="#DejaVuSans-Oblique-74" transform="translate(1430.766602 0.765625)"/>
     <use xlink:href="#DejaVuSans-3d" transform="translate(1469.975586 0.765625)"/>
     <use xlink:href="#DejaVuSans-31" transform="translate(1553.764648 0.765625)"/>
     <use xlink:href="#DejaVuSans-65" transform="translate(1617.387695 0.765625)"/>
     <use xlink:href="#DejaVuSans-2d" transform="translate(1678.911133 0.765625)"/>
     <use xlink:href="#DejaVuSans-39" transform="translate(1714.995117 0.765625)"/>
     <use xlink:href="#DejaVuSans-73" transform="translate(1778.618164 0.765625)"/>
    </g>
   </g>
   <g id="legend_1">
    <g id="patch_7">
     <path d="M 269.76 101.242 
L 403.52 101.242 
Q 406.72 101.242 406.72 98.042 
L 406.72 52.672 
Q 406.72 49.472 403.52 49.472 
L 269.76 49.472 
Q 266.56 49.472 266.56 52.672 
L 266.56 98.042 
Q 266.56 101.242 269.76 101.242 
z
" style="fill: #ffffff; opacity: 0.8; stroke: #cccccc; stroke-linejoin: miter"/>
    </g>
    <g id="line2d_17">
     <path d="M 272.96 62.4295 
L 288.96 62.4295 
L 304.96 62.4295 
" style="fill: none; stroke: #1f77b4; stroke-width: 1.5; stroke-linecap: square"/>
     <g>
      <use xlink:href="#m39123ba3af" x="288.96" y="62.4295" style="fill: #1f77b4; stroke: #1f77b4"/>
     </g>
    </g>
    <g id="text_16">
     <!-- $d_c=$0nm -->
     <g transform="translate(317.76 68.0295) scale(0.16 -0.16)">
      <use xlink:href="#DejaVuSans-Oblique-64" transform="translate(0 0.015625)"/>
      <use xlink:href="#DejaVuSans-Oblique-63" transform="translate(63.476562 -16.390625) scale(0.7)"/>
      <use xlink:href="#DejaVuSans-3d" transform="translate(124.179688 0.015625)"/>
      <use xlink:href="#DejaVuSans-30" transform="translate(227.451172 0.015625)"/>
      <use xlink:href="#DejaVuSans-6e" transform="translate(291.074219 0.015625)"/>
      <use xlink:href="#DejaVuSans-6d" transform="translate(354.453125 0.015625)"/>
     </g>
    </g>
    <g id="line2d_18">
     <path d="M 272.96 85.9145 
L 288.96 85.9145 
L 304.96 85.9145 
" style="fill: none; stroke: #ff7f0e; stroke-width: 1.5; stroke-linecap: square"/>
     <g>
      <use xlink:href="#mda4e8e78fe" x="288.96" y="85.9145" style="fill: #ff7f0e; stroke: #ff7f0e"/>
     </g>
    </g>
    <g id="text_17">
     <!-- $d_c=$24nm -->
     <g transform="translate(317.76 91.5145) scale(0.16 -0.16)">
      <use xlink:href="#DejaVuSans-Oblique-64" transform="translate(0 0.015625)"/>
      <use xlink:href="#DejaVuSans-Oblique-63" transform="translate(63.476562 -16.390625) scale(0.7)"/>
      <use xlink:href="#DejaVuSans-3d" transform="translate(124.179688 0.015625)"/>
      <use xlink:href="#DejaVuSans-32" transform="translate(227.451172 0.015625)"/>
      <use xlink:href="#DejaVuSans-34" transform="translate(291.074219 0.015625)"/>
      <use xlink:href="#DejaVuSans-6e" transform="translate(354.697266 0.015625)"/>
      <use xlink:href="#DejaVuSans-6d" transform="translate(418.076172 0.015625)"/>
     </g>
    </g>
   </g>
  </g>
 </g>
 <defs>
  <clipPath id="p662c675a94">
   <rect x="57.6" y="41.472" width="357.12" height="266.112"/>
  </clipPath>
 </defs>
</svg>
